<svg width="109" height="33" viewBox="0 0 109 33" fill="none" xmlns="http://www.w3.org/2000/svg">
<rect x="1.28564" y="1.00537" width="107" height="31" rx="3.5" fill="#000B26"/>
<path d="M55.2655 17.9453C53.3455 17.9453 51.8255 19.3853 51.8255 21.3853C51.8255 23.3053 53.3455 24.8253 55.2655 24.8253C57.1855 24.8253 58.7055 23.3853 58.7055 21.3853C58.7055 19.3053 57.1855 17.9453 55.2655 17.9453ZM55.2655 23.3853C54.2255 23.3853 53.3455 22.5053 53.3455 21.3053C53.3455 20.1053 54.2255 19.2253 55.2655 19.2253C56.3055 19.2253 57.1855 20.0253 57.1855 21.3053C57.1855 22.5053 56.3055 23.3853 55.2655 23.3853ZM47.8255 17.9453C45.9055 17.9453 44.3855 19.3853 44.3855 21.3853C44.3855 23.3053 45.9055 24.8253 47.8255 24.8253C49.7455 24.8253 51.2655 23.3853 51.2655 21.3853C51.2655 19.3053 49.7455 17.9453 47.8255 17.9453ZM47.8255 23.3853C46.7855 23.3853 45.9055 22.5053 45.9055 21.3053C45.9055 20.1053 46.7855 19.2253 47.8255 19.2253C48.8655 19.2253 49.7455 20.0253 49.7455 21.3053C49.7455 22.5053 48.8655 23.3853 47.8255 23.3853ZM38.9455 18.9853V20.4253H42.3855C42.3055 21.2253 41.9855 21.8653 41.5855 22.2653C41.1055 22.7453 40.3055 23.3053 38.9455 23.3053C36.7855 23.3053 35.1855 21.6253 35.1855 19.4653C35.1855 17.3053 36.8655 15.6253 38.9455 15.6253C40.0655 15.6253 40.9455 16.1053 41.5855 16.6653L42.6255 15.6253C41.7455 14.8253 40.6255 14.1853 39.0255 14.1853C36.1455 14.1853 33.6655 16.5853 33.6655 19.4653C33.6655 22.3453 36.1455 24.7453 39.0255 24.7453C40.6255 24.7453 41.7455 24.2653 42.7055 23.2253C43.6655 22.2653 43.9855 20.9053 43.9855 19.8653C43.9855 19.5453 43.9855 19.2253 43.9055 18.9853H38.9455ZM75.2655 20.1053C74.9455 19.3053 74.1455 17.9453 72.3855 17.9453C70.6255 17.9453 69.1855 19.3053 69.1855 21.3853C69.1855 23.3053 70.6255 24.8253 72.5455 24.8253C74.0655 24.8253 75.0255 23.8653 75.3455 23.3053L74.2255 22.5053C73.8255 23.0653 73.3455 23.4653 72.5455 23.4653C71.7455 23.4653 71.2655 23.1453 70.8655 22.4253L75.4255 20.5053L75.2655 20.1053ZM70.6255 21.2253C70.6255 19.9453 71.6655 19.2253 72.3855 19.2253C72.9455 19.2253 73.5055 19.5453 73.6655 19.9453L70.6255 21.2253ZM66.8655 24.5053H68.3855V14.5053H66.8655V24.5053ZM64.4655 18.6653C64.0655 18.2653 63.4255 17.8653 62.6255 17.8653C60.9455 17.8653 59.3455 19.3853 59.3455 21.3053C59.3455 23.2253 60.8655 24.6653 62.6255 24.6653C63.4255 24.6653 64.0655 24.2653 64.3855 23.8653H64.4655V24.3453C64.4655 25.6253 63.7455 26.3453 62.6255 26.3453C61.7455 26.3453 61.1055 25.7053 60.9455 25.1453L59.6655 25.7053C60.0655 26.5853 61.0255 27.7053 62.7055 27.7053C64.4655 27.7053 65.9055 26.6653 65.9055 24.1853V18.1053H64.4655V18.6653ZM62.7055 23.3853C61.6655 23.3853 60.7855 22.5053 60.7855 21.3053C60.7855 20.1053 61.6655 19.2253 62.7055 19.2253C63.7455 19.2253 64.5455 20.1053 64.5455 21.3053C64.5455 22.5053 63.7455 23.3853 62.7055 23.3853ZM82.2256 14.5053H78.6255V24.5053H80.1455V20.7453H82.2256C83.9056 20.7453 85.5056 19.5453 85.5056 17.6253C85.5056 15.7053 83.9056 14.5053 82.2256 14.5053ZM82.3055 19.3053H80.1455V15.8653H82.3055C83.4255 15.8653 84.0655 16.8253 84.0655 17.5453C83.9855 18.4253 83.3456 19.3053 82.3055 19.3053ZM91.5056 17.8653C90.3856 17.8653 89.2655 18.3453 88.8655 19.3853L90.2256 19.9453C90.5456 19.3853 91.0256 19.2253 91.5856 19.2253C92.3856 19.2253 93.1056 19.7053 93.1856 20.5053V20.5853C92.9456 20.4253 92.3055 20.1853 91.6656 20.1853C90.2255 20.1853 88.7855 20.9853 88.7855 22.4253C88.7855 23.7853 89.9855 24.6653 91.2655 24.6653C92.3055 24.6653 92.7856 24.1853 93.1856 23.7053H93.2655V24.5053H94.7056V20.6653C94.5456 18.9053 93.1856 17.8653 91.5056 17.8653ZM91.3455 23.3853C90.8655 23.3853 90.1455 23.1453 90.1455 22.5053C90.1455 21.7053 91.0255 21.4653 91.7455 21.4653C92.3855 21.4653 92.7056 21.6253 93.1056 21.7853C92.9456 22.7453 92.1455 23.3853 91.3455 23.3853ZM99.7456 18.1053L98.0656 22.4253H97.9855L96.2256 18.1053H94.6256L97.2656 24.1853L95.7456 27.5453H97.2656L101.346 18.1053H99.7456ZM86.3055 24.5053H87.8256V14.5053H86.3055V24.5053Z" fill="white"/>
<path d="M9.10564 6.50537C8.86564 6.74537 8.78564 7.14537 8.78564 7.62537V25.3054C8.78564 25.7854 8.94564 26.1854 9.18564 26.4254L9.26565 26.5054L19.1856 16.5854V16.5054V16.4254L9.10564 6.50537Z" fill="url(#paint0_linear_830_688)"/>
<path d="M22.3855 19.9453L19.1055 16.6653V16.5053V16.4253L22.3855 13.1453L22.4655 13.2253L26.3855 15.4653C27.5055 16.1053 27.5055 17.1453 26.3855 17.7853L22.3855 19.9453Z" fill="url(#paint1_linear_830_688)"/>
<path d="M22.4655 19.8651L19.1055 16.5051L9.10547 26.5051C9.50547 26.9051 10.0655 26.9051 10.7855 26.5851L22.4655 19.8651Z" fill="url(#paint2_linear_830_688)"/>
<path d="M22.4655 13.1453L10.7855 6.50529C10.0655 6.10529 9.50547 6.18529 9.10547 6.58529L19.1055 16.5053L22.4655 13.1453Z" fill="url(#paint3_linear_830_688)"/>
<path opacity="0.2" d="M22.3855 19.7853L10.7855 26.3453C10.1455 26.7453 9.58547 26.6653 9.18547 26.3453L9.10547 26.4253L9.18547 26.5053C9.58547 26.8253 10.1455 26.9053 10.7855 26.5053L22.3855 19.7853Z" fill="black"/>
<path opacity="0.12" d="M9.10564 26.3453C8.86564 26.1053 8.78564 25.7053 8.78564 25.2253V25.3053C8.78564 25.7853 8.94564 26.1853 9.18564 26.4253V26.3453H9.10564Z" fill="black"/>
<path opacity="0.12" d="M26.3857 17.5451L22.3857 19.7851L22.4657 19.8651L26.3857 17.6251C26.9457 17.3051 27.1857 16.9051 27.1857 16.5051C27.1857 16.9051 26.8657 17.2251 26.3857 17.5451Z" fill="black"/>
<path opacity="0.25" d="M10.7856 6.58527L26.3856 15.4653C26.8656 15.7853 27.1856 16.1053 27.1856 16.5053C27.1856 16.1053 26.9456 15.7053 26.3856 15.3853L10.7856 6.50527C9.66564 5.86527 8.78564 6.34527 8.78564 7.62527V7.70527C8.78564 6.50527 9.66564 5.94527 10.7856 6.58527Z" fill="white"/>
<path d="M34.4658 11.9453H33.9058V10.3453H34.3858C34.7858 10.0253 35.0258 9.38535 35.0258 8.50535V6.10535H38.2258V10.3453H38.7858V11.9453H38.2258V10.9053H34.5458V11.9453H34.4658ZM35.5858 8.50535C35.5858 9.22535 35.4258 9.86535 35.1058 10.3453H37.5058V6.66535H35.5058V8.50535H35.5858Z" fill="white" stroke="white" stroke-width="0.2" stroke-miterlimit="10"/>
<path d="M43.5056 10.2653C43.0256 10.7453 42.4656 10.9853 41.7456 10.9853C41.0256 10.9853 40.4656 10.7453 39.9856 10.2653C39.5056 9.78527 39.2656 9.22527 39.2656 8.50527C39.2656 7.78527 39.5056 7.22527 39.9856 6.74527C40.4656 6.26527 41.0256 6.02527 41.7456 6.02527C42.4656 6.02527 43.0256 6.26527 43.5056 6.74527C43.9856 7.22527 44.2256 7.78527 44.2256 8.50527C44.2256 9.22527 43.9856 9.78527 43.5056 10.2653ZM40.4656 9.86527C40.7856 10.1853 41.2656 10.4253 41.7456 10.4253C42.2256 10.4253 42.7056 10.2653 43.0256 9.86527C43.3456 9.54527 43.5856 9.06527 43.5856 8.50527C43.5856 7.94527 43.4256 7.46527 43.0256 7.14527C42.7056 6.82527 42.2256 6.58527 41.7456 6.58527C41.2656 6.58527 40.7856 6.74527 40.4656 7.14527C40.1456 7.46527 39.9056 7.94527 39.9056 8.50527C39.9056 9.06527 40.0656 9.54527 40.4656 9.86527Z" fill="white" stroke="white" stroke-width="0.2" stroke-miterlimit="10"/>
<path d="M47.3457 10.9853C46.6257 10.9853 46.0657 10.7453 45.5857 10.2653C45.1057 9.78527 44.8657 9.22527 44.8657 8.50527C44.8657 7.78527 45.1057 7.22527 45.5857 6.74527C46.0657 6.26527 46.6257 6.02527 47.3457 6.02527C48.0657 6.02527 48.6257 6.26527 49.1057 6.82527L48.7057 7.22527C48.3857 6.82527 47.9057 6.58527 47.3457 6.58527C46.7857 6.58527 46.3857 6.74527 45.9857 7.14527C45.5857 7.46527 45.4257 7.94527 45.4257 8.50527C45.4257 9.06527 45.5857 9.54527 45.9857 9.86527C46.3057 10.1853 46.7857 10.4253 47.3457 10.4253C47.9057 10.4253 48.3857 10.1853 48.7857 9.70527L49.1857 10.1053C48.9457 10.3453 48.7057 10.5853 48.3857 10.7453C48.0657 10.9053 47.7457 10.9853 47.3457 10.9853Z" fill="white" stroke="white" stroke-width="0.2" stroke-miterlimit="10"/>
<path d="M51.7456 10.9053H51.1056V6.66535H49.7456V6.10535H53.0256V6.66535H51.6656V10.9053H51.7456Z" fill="white" stroke="white" stroke-width="0.2" stroke-miterlimit="10"/>
<path d="M57.2652 6.10535L55.4253 10.1853C55.1853 10.7454 54.7853 11.0654 54.3053 11.0654C54.1453 11.0654 53.9853 11.0654 53.8253 10.9854L53.9853 10.4253C54.0653 10.5053 54.2253 10.5053 54.3053 10.5053C54.4653 10.5053 54.5453 10.5053 54.6253 10.4253C54.7053 10.3453 54.7853 10.2653 54.8653 10.1053L55.0253 9.70535L53.4253 6.18535H54.1453L55.3453 8.90535L56.5452 6.10535H57.2652Z" fill="white" stroke="white" stroke-width="0.2" stroke-miterlimit="10"/>
<path d="M57.9858 10.9053V6.10535H61.4258V10.9053H60.7858V6.66535H58.5458V10.9053H57.9858Z" fill="white" stroke="white" stroke-width="0.2" stroke-miterlimit="10"/>
<path d="M62.5459 10.9053V6.10535H63.1859V8.18535H65.5859V6.10535H66.2259V10.9053H65.5859V8.74534H63.1859V10.9053H62.5459Z" fill="white" stroke="white" stroke-width="0.2" stroke-miterlimit="10"/>
<path d="M71.2654 10.2653C70.7854 10.7453 70.2254 10.9853 69.5054 10.9853C68.7854 10.9853 68.2254 10.7453 67.7454 10.2653C67.2654 9.78527 67.0254 9.22527 67.0254 8.50527C67.0254 7.78527 67.2654 7.22527 67.7454 6.74527C68.2254 6.26527 68.7854 6.02527 69.5054 6.02527C70.2254 6.02527 70.7854 6.26527 71.2654 6.74527C71.7454 7.22527 71.9854 7.78527 71.9854 8.50527C71.9054 9.22527 71.6654 9.78527 71.2654 10.2653ZM68.1454 9.86527C68.4654 10.1853 68.9454 10.4253 69.4254 10.4253C69.9054 10.4253 70.3854 10.2653 70.7054 9.86527C71.0254 9.54527 71.2654 9.06527 71.2654 8.50527C71.2654 7.94527 71.1054 7.46527 70.7054 7.14527C70.3854 6.82527 69.9054 6.58527 69.4254 6.58527C68.9454 6.58527 68.4654 6.74527 68.1454 7.14527C67.8254 7.46527 67.5854 7.94527 67.5854 8.50527C67.5854 9.06527 67.8254 9.54527 68.1454 9.86527Z" fill="white" stroke="white" stroke-width="0.2" stroke-miterlimit="10"/>
<path d="M74.4658 10.9053V6.10535H76.2258C76.6258 6.10535 76.9458 6.26535 77.1858 6.50535C77.4258 6.74535 77.5858 7.06535 77.5858 7.38535C77.5858 7.62535 77.5058 7.78534 77.4258 8.02534C77.3458 8.18534 77.1858 8.34534 76.9458 8.42534C77.1858 8.50534 77.3458 8.66534 77.5058 8.82534C77.6658 8.98534 77.7458 9.22534 77.7458 9.54534C77.7458 9.94534 77.5858 10.2653 77.3458 10.5053C77.0258 10.7453 76.7058 10.9053 76.3058 10.9053H74.4658ZM75.1058 8.18535H76.2258C76.4658 8.18535 76.6258 8.10535 76.7858 7.94535C76.9458 7.78535 77.0258 7.62535 77.0258 7.46535C77.0258 7.30535 76.8658 7.06535 76.7858 6.90535C76.6258 6.74535 76.4658 6.66535 76.2258 6.66535H75.1058V8.18535ZM75.1058 10.3453H76.3858C76.6258 10.3453 76.7858 10.2653 76.9458 10.1053C77.1058 9.94534 77.1858 9.78534 77.1858 9.54534C77.1858 9.38534 77.1058 9.14534 76.9458 8.98534C76.7858 8.82534 76.6258 8.74534 76.3858 8.74534H75.1858V10.3453H75.1058Z" fill="white" stroke="white" stroke-width="0.2" stroke-miterlimit="10"/>
<rect x="1.28564" y="1.00537" width="107" height="31" rx="3.5" stroke="#A6A6A6"/>
<defs>
<linearGradient id="paint0_linear_830_688" x1="18.2253" y1="7.47321" x2="4.79941" y2="20.8991" gradientUnits="userSpaceOnUse">
<stop stop-color="#00A0FF"/>
<stop offset="0.00657445" stop-color="#00A1FF"/>
<stop offset="0.2601" stop-color="#00BEFF"/>
<stop offset="0.5122" stop-color="#00D2FF"/>
<stop offset="0.7604" stop-color="#00DFFF"/>
<stop offset="1" stop-color="#00E3FF"/>
</linearGradient>
<linearGradient id="paint1_linear_830_688" x1="27.8529" y1="16.5065" x2="8.49539" y2="16.5065" gradientUnits="userSpaceOnUse">
<stop stop-color="#FFE000"/>
<stop offset="0.4087" stop-color="#FFBD00"/>
<stop offset="0.7754" stop-color="#FFA500"/>
<stop offset="1" stop-color="#FF9C00"/>
</linearGradient>
<linearGradient id="paint2_linear_830_688" x1="20.647" y1="18.3421" x2="2.44035" y2="36.5487" gradientUnits="userSpaceOnUse">
<stop stop-color="#FF3A44"/>
<stop offset="1" stop-color="#C31162"/>
</linearGradient>
<linearGradient id="paint3_linear_830_688" x1="6.62323" y1="0.64633" x2="14.7533" y2="8.77633" gradientUnits="userSpaceOnUse">
<stop stop-color="#32A071"/>
<stop offset="0.0685" stop-color="#2DA771"/>
<stop offset="0.4762" stop-color="#15CF74"/>
<stop offset="0.8009" stop-color="#06E775"/>
<stop offset="1" stop-color="#00F076"/>
</linearGradient>
</defs>
</svg>
