<svg width="144" height="48" viewBox="0 0 144 48" fill="none" xmlns="http://www.w3.org/2000/svg">
<rect x="0.5" y="0.5" width="143" height="47" rx="5.5" fill="black"/>
<path d="M29.8056 24.361C29.8186 23.3594 30.0854 22.3774 30.5812 21.5062C31.077 20.6351 31.7857 19.9032 32.6415 19.3786C32.0978 18.6044 31.3807 17.9672 30.547 17.5178C29.7132 17.0683 28.7859 16.8189 27.8386 16.7893C25.8179 16.5778 23.8588 17.9951 22.8291 17.9951C21.7795 17.9951 20.194 16.8103 18.4868 16.8454C17.3825 16.8809 16.3062 17.2012 15.3629 17.7748C14.4196 18.3485 13.6415 19.1561 13.1042 20.1188C10.7769 24.1369 12.5128 30.0422 14.7422 33.2901C15.8576 34.8805 17.1612 36.6571 18.8669 36.5941C20.5361 36.525 21.1595 35.5327 23.1743 35.5327C25.1704 35.5327 25.7552 36.5941 27.4955 36.554C29.2866 36.525 30.4151 34.9565 31.4913 33.351C32.2928 32.2178 32.9094 30.9653 33.3186 29.64C32.278 29.2011 31.39 28.4665 30.7653 27.5278C30.1406 26.589 29.8069 25.4877 29.8056 24.361Z" fill="white"/>
<path d="M26.5186 14.6533C27.4952 13.4843 27.9763 11.9817 27.8598 10.4646C26.3678 10.6209 24.9897 11.3319 23.9999 12.4561C23.516 13.0053 23.1453 13.6443 22.9092 14.3364C22.673 15.0285 22.576 15.7603 22.6236 16.4898C23.3699 16.4975 24.1081 16.3362 24.7828 16.0181C25.4575 15.7 26.051 15.2333 26.5186 14.6533Z" fill="white"/>
<path d="M50.9052 32.5679H45.2092L43.8413 36.5957H41.4287L46.8239 21.6941H49.3305L54.7257 36.5957H52.2719L50.9052 32.5679ZM45.7991 30.7093H50.3142L48.0884 24.1726H48.0261L45.7991 30.7093Z" fill="white"/>
<path d="M66.3775 31.1639C66.3775 34.54 64.5654 36.7092 61.8308 36.7092C61.1381 36.7453 60.4491 36.5862 59.8429 36.25C59.2366 35.9138 58.7376 35.4142 58.4028 34.8084H58.3511V40.1896H56.1147V25.731H58.2794V27.5381H58.3206C58.6707 26.9351 59.1782 26.4381 59.7891 26.0999C60.3999 25.7617 61.0913 25.5949 61.7897 25.6174C64.5548 25.6174 66.3775 27.7971 66.3775 31.1639ZM64.0789 31.1639C64.0789 28.9643 62.939 27.5181 61.1997 27.5181C59.491 27.5181 58.3417 28.9947 58.3417 31.1639C58.3417 33.3529 59.491 34.8189 61.1997 34.8189C62.939 34.8189 64.0789 33.3834 64.0789 31.1639Z" fill="white"/>
<path d="M78.3692 31.164C78.3692 34.5401 76.5571 36.7093 73.8225 36.7093C73.1298 36.7454 72.4408 36.5863 71.8346 36.2501C71.2283 35.914 70.7293 35.4143 70.3945 34.8085H70.3428V40.1897H68.1064V25.7311H70.2711V27.5382H70.3122C70.6623 26.9352 71.1698 26.4382 71.7807 26.1C72.3916 25.7618 73.083 25.595 73.7813 25.6175C76.5465 25.6175 78.3692 27.7972 78.3692 31.164ZM76.0706 31.164C76.0706 28.9644 74.9306 27.5183 73.1914 27.5183C71.4827 27.5183 70.3334 28.9948 70.3334 31.164C70.3334 33.353 71.4827 34.819 73.1914 34.819C74.9307 34.819 76.0706 33.3835 76.0706 31.164H76.0706Z" fill="white"/>
<path d="M86.2941 32.4437C86.4598 33.9214 87.8994 34.8917 89.8666 34.8917C91.7516 34.8917 93.1077 33.9214 93.1077 32.5889C93.1077 31.4323 92.2898 30.7397 90.3532 30.2651L88.4165 29.7999C85.6725 29.1389 84.3986 27.8592 84.3986 25.7827C84.3986 23.2116 86.6455 21.4456 89.8361 21.4456C92.9937 21.4456 95.1584 23.2116 95.2313 25.7827H92.9737C92.8386 24.2956 91.6059 23.3979 89.8043 23.3979C88.0028 23.3979 86.7701 24.3061 86.7701 25.628C86.7701 26.6815 87.5574 27.3014 89.4835 27.776L91.1299 28.1791C94.1959 28.9022 95.4698 30.1303 95.4698 32.31C95.4698 35.0979 93.2429 36.844 89.7009 36.844C86.3869 36.844 84.1494 35.1389 84.0049 32.4436L86.2941 32.4437Z" fill="white"/>
<path d="M100.296 23.1602V25.7313H102.368V27.4973H100.296V33.4867C100.296 34.4172 100.711 34.8508 101.622 34.8508C101.867 34.8465 102.113 34.8293 102.357 34.7992V36.5546C101.948 36.6309 101.532 36.6655 101.115 36.6578C98.9092 36.6578 98.049 35.8316 98.049 33.7246V27.4973H96.4648V25.7313H98.049V23.1602H100.296Z" fill="white"/>
<path d="M103.568 31.1639C103.568 27.7456 105.587 25.5975 108.735 25.5975C111.894 25.5975 113.903 27.7455 113.903 31.1639C113.903 34.5917 111.904 36.7303 108.735 36.7303C105.567 36.7303 103.568 34.5917 103.568 31.1639ZM111.625 31.1639C111.625 28.819 110.547 27.435 108.735 27.435C106.923 27.435 105.847 28.8296 105.847 31.1639C105.847 33.5182 106.923 34.8917 108.735 34.8917C110.547 34.8917 111.625 33.5182 111.625 31.1639H111.625Z" fill="white"/>
<path d="M115.748 25.7312H117.88V27.5804H117.932C118.077 27.0028 118.416 26.4924 118.893 26.135C119.37 25.7775 119.956 25.5948 120.553 25.6175C120.811 25.6166 121.068 25.6445 121.319 25.7007V27.7866C120.994 27.6875 120.654 27.642 120.314 27.6519C119.989 27.6387 119.665 27.6959 119.365 27.8193C119.064 27.9428 118.794 28.1297 118.572 28.3671C118.351 28.6046 118.184 28.887 118.082 29.195C117.981 29.503 117.947 29.8293 117.984 30.1515V36.5956H115.748L115.748 25.7312Z" fill="white"/>
<path d="M131.63 33.4046C131.329 35.3768 129.403 36.7303 126.938 36.7303C123.769 36.7303 121.802 34.6128 121.802 31.2155C121.802 27.8077 123.78 25.5975 126.844 25.5975C129.859 25.5975 131.754 27.6624 131.754 30.9565V31.7206H124.059V31.8553C124.024 32.2552 124.074 32.658 124.207 33.037C124.339 33.416 124.551 33.7625 124.828 34.0536C125.105 34.3446 125.442 34.5736 125.814 34.7251C126.187 34.8767 126.588 34.9474 126.99 34.9327C127.519 34.982 128.049 34.86 128.502 34.5847C128.956 34.3093 129.308 33.8954 129.506 33.4045L131.63 33.4046ZM124.07 30.162H129.517C129.537 29.8025 129.482 29.4427 129.356 29.1052C129.23 28.7678 129.036 28.4599 128.785 28.201C128.534 27.9421 128.232 27.7377 127.898 27.6006C127.564 27.4636 127.205 27.3968 126.844 27.4046C126.48 27.4024 126.119 27.4722 125.782 27.6099C125.445 27.7476 125.139 27.9504 124.881 28.2068C124.623 28.4632 124.419 28.7679 124.279 29.1035C124.14 29.4391 124.069 29.7988 124.07 30.162V30.162Z" fill="white"/>
<path d="M44.2098 13.5041H45.17C45.3352 13.5246 45.503 13.5108 45.6626 13.4635C45.8223 13.4161 45.9704 13.3363 46.0975 13.2291C46.2247 13.1219 46.3283 12.9895 46.4016 12.8404C46.475 12.6913 46.5165 12.5286 46.5237 12.3627C46.5237 11.7024 46.0255 11.2758 45.1805 11.2758C45.0112 11.2522 44.8388 11.2627 44.6736 11.3066C44.5084 11.3505 44.3537 11.427 44.2187 11.5316C44.0836 11.6361 43.9709 11.7666 43.8873 11.9153C43.8036 12.064 43.7506 12.2279 43.7316 12.3973H42.6774C42.6955 12.0897 42.777 11.7892 42.9167 11.5144C43.0563 11.2396 43.2512 10.9964 43.4892 10.7999C43.7272 10.6035 44.0032 10.458 44.3001 10.3725C44.5969 10.2871 44.9082 10.2634 45.2146 10.3031C46.6283 10.3031 47.6237 11.0924 47.6237 12.2285C47.627 12.6091 47.4993 12.9794 47.2619 13.2774C47.0245 13.5755 46.6918 13.7833 46.3193 13.8662V13.9506C46.7609 13.9701 47.1768 14.1632 47.4761 14.4877C47.7754 14.8121 47.9336 15.2416 47.9163 15.682C47.8836 15.9987 47.7879 16.3057 47.6347 16.585C47.4815 16.8643 47.2739 17.1103 47.0242 17.3085C46.7744 17.5068 46.4875 17.6533 46.1802 17.7396C45.8729 17.8258 45.5514 17.85 45.2346 17.8108C44.9171 17.8539 44.5942 17.8329 44.2851 17.7489C43.9759 17.665 43.6869 17.5198 43.4352 17.3221C43.1835 17.1244 42.9744 16.8782 42.8201 16.5981C42.6659 16.3181 42.5698 16.0099 42.5376 15.692H43.6082C43.6728 16.377 44.3039 16.8188 45.2346 16.8188C46.1653 16.8188 46.7729 16.3225 46.7729 15.6229C46.7729 14.9133 46.2006 14.4762 45.2005 14.4762H44.2098V13.5041Z" fill="white"/>
<path d="M49.1323 16.1092C49.1323 15.1365 49.8598 14.5758 51.1477 14.4961L52.6155 14.4117V13.9453C52.6155 13.3746 52.2383 13.0524 51.5062 13.0524C50.9092 13.0524 50.4967 13.2709 50.3768 13.653H49.3415C49.4508 12.7248 50.3275 12.1295 51.5567 12.1295C52.9152 12.1295 53.6814 12.8039 53.6814 13.9453V17.6373H52.6508V16.878H52.5662C52.3944 17.1503 52.1533 17.3724 51.8673 17.5215C51.5814 17.6705 51.2609 17.7412 50.9386 17.7264C50.7111 17.75 50.4812 17.7257 50.2637 17.6553C50.0461 17.5849 49.8458 17.4698 49.6756 17.3174C49.5055 17.165 49.3692 16.9788 49.2756 16.7707C49.182 16.5626 49.1332 16.3373 49.1323 16.1092ZM52.6155 15.6475V15.1957L51.2922 15.2801C50.546 15.3299 50.2076 15.583 50.2076 16.0594C50.2076 16.5457 50.6306 16.8287 51.2124 16.8287C51.3828 16.8459 51.555 16.8288 51.7187 16.7783C51.8824 16.7278 52.0342 16.6449 52.1651 16.5347C52.296 16.4245 52.4033 16.2892 52.4807 16.1368C52.5581 15.9843 52.604 15.8179 52.6155 15.6475Z" fill="white"/>
<path d="M56.5196 13.1315V17.6374H55.4502V12.2339H59.018V13.1315L56.5196 13.1315Z" fill="white"/>
<path d="M65.4992 14.9333C65.4992 16.6501 64.6284 17.7264 63.2605 17.7264C62.9247 17.7493 62.5894 17.676 62.294 17.5152C61.9985 17.3544 61.7553 17.1128 61.593 16.8188H61.5084V19.4339H60.439V12.2339H61.4684V13.1269H61.5483C61.7136 12.8226 61.96 12.5698 62.2603 12.3964C62.5606 12.223 62.9031 12.1357 63.25 12.1442C64.6284 12.1442 65.4992 13.2159 65.4992 14.9333ZM64.3993 14.9333C64.3993 13.7919 63.8575 13.1022 62.9515 13.1022C62.0514 13.1022 61.4884 13.8065 61.4884 14.938C61.4884 16.0641 62.0513 16.769 62.9468 16.769C63.8575 16.769 64.3993 16.0794 64.3993 14.9333Z" fill="white"/>
<path d="M66.9235 19.5728V18.6546C67.0392 18.6693 67.1558 18.6759 67.2724 18.6745C67.5003 18.6913 67.7263 18.6237 67.9072 18.4845C68.0881 18.3453 68.2111 18.1444 68.2525 17.9204L68.3324 17.6573L66.3711 12.2339H67.5357L68.8942 16.5259H68.9788L70.3326 12.2339H71.4667L69.4466 17.8606C68.9836 19.1755 68.4712 19.5974 67.3665 19.5974C67.2772 19.5974 67.0234 19.5874 66.9235 19.5728Z" fill="white"/>
<path d="M72.2998 16.1038H73.3645C73.4691 16.5802 73.9169 16.8286 74.5432 16.8286C75.2554 16.8286 75.6925 16.5157 75.6925 16.0294C75.6925 15.5085 75.3 15.2601 74.5432 15.2601H73.7323V14.4316H74.5291C75.1754 14.4316 75.5045 14.1837 75.5045 13.732C75.5045 13.3353 75.186 13.0324 74.5291 13.0324C73.9309 13.0324 73.4938 13.2855 73.4244 13.7121H72.3938C72.4709 13.2219 72.7378 12.7815 73.1371 12.4855C73.5364 12.1896 74.0362 12.0617 74.5291 12.1294C75.8171 12.1294 76.5539 12.7101 76.5539 13.623C76.5599 13.8772 76.4783 14.1258 76.3225 14.3271C76.1668 14.5285 75.9465 14.6704 75.6984 14.7292V14.8136C75.9938 14.8516 76.2649 14.9964 76.4603 15.2205C76.6556 15.4446 76.7617 15.7325 76.7584 16.0294C76.7584 17.0566 75.8817 17.7363 74.5432 17.7363C73.3598 17.7362 72.3985 17.1954 72.2998 16.1038Z" fill="white"/>
<path d="M78.2988 17.6374V12.2339H79.3588V15.9505H79.4434L81.9407 12.2339H83.0007V17.6374H81.9407V13.9009H81.8608L79.3588 17.6374L78.2988 17.6374Z" fill="white"/>
<path d="M88.8393 13.1315H87.1329V17.6373H86.0623V13.1315H84.356V12.2339H88.8393V13.1315Z" fill="white"/>
<path d="M94.6 16.1783C94.4543 16.6721 94.1392 17.0992 93.7098 17.385C93.2804 17.6707 92.764 17.7969 92.2508 17.7416C91.8938 17.751 91.5391 17.6828 91.2111 17.5418C90.8832 17.4007 90.59 17.1902 90.3518 16.9249C90.1137 16.6595 89.9363 16.3456 89.832 16.005C89.7276 15.6645 89.6989 15.3053 89.7477 14.9525C89.7002 14.5987 89.7294 14.2388 89.8335 13.8971C89.9376 13.5555 90.1141 13.2402 90.351 12.9725C90.5879 12.7048 90.8797 12.491 91.2066 12.3456C91.5336 12.2001 91.8881 12.1264 92.2461 12.1295C93.7539 12.1295 94.6646 13.1567 94.6646 14.8535V15.2256H90.8383V15.2854C90.8213 15.4837 90.8462 15.6834 90.9113 15.8716C90.9763 16.0598 91.0801 16.2323 91.216 16.3781C91.3519 16.5239 91.5169 16.6397 91.7004 16.7181C91.8839 16.7965 92.0818 16.8358 92.2814 16.8334C92.537 16.8638 92.796 16.8178 93.0253 16.7012C93.2546 16.5845 93.444 16.4025 93.5694 16.1783L94.6 16.1783ZM90.8382 14.4369H93.574C93.5875 14.2557 93.5629 14.0736 93.5017 13.9024C93.4404 13.7312 93.344 13.5747 93.2185 13.4428C93.093 13.311 92.9412 13.2068 92.773 13.137C92.6047 13.0671 92.4236 13.0331 92.2414 13.0371C92.0564 13.0346 91.8728 13.0691 91.7013 13.1386C91.5299 13.208 91.3742 13.3111 91.2434 13.4416C91.1126 13.572 91.0094 13.7274 90.9398 13.8983C90.8702 14.0693 90.8357 14.2524 90.8383 14.4369H90.8382Z" fill="white"/>
<path d="M99.1338 12.2339H101.577C102.637 12.2339 103.259 12.7694 103.259 13.6079C103.26 13.8739 103.17 14.1325 103.004 14.3403C102.837 14.548 102.604 14.6924 102.343 14.7493V14.8337C102.66 14.8536 102.956 14.994 103.172 15.2258C103.388 15.4576 103.506 15.7632 103.502 16.0794C103.502 17.0221 102.791 17.6374 101.602 17.6374H99.1338V12.2339ZM100.194 13.0524V14.4516H101.254C101.9 14.4516 102.209 14.2038 102.209 13.7468C102.209 13.3255 101.94 13.0524 101.373 13.0524L100.194 13.0524ZM100.194 15.2357V16.8189H101.462C102.094 16.8189 102.433 16.5405 102.433 16.0296C102.433 15.4888 102.049 15.2357 101.328 15.2357L100.194 15.2357Z" fill="white"/>
<rect x="0.5" y="0.5" width="143" height="47" rx="5.5" stroke="#A6A6A6"/>
</svg>
