<svg width="144" height="43" viewBox="0 0 144 43" fill="none" xmlns="http://www.w3.org/2000/svg">
<rect x="0.5" y="0.5" width="143" height="41.6667" rx="5.5" fill="black"/>
<path d="M72.6399 23.2534C70.0799 23.2534 68.0532 25.1734 68.0532 27.8401C68.0532 30.4001 70.0799 32.4268 72.6399 32.4268C75.1999 32.4268 77.2265 30.5068 77.2265 27.8401C77.2265 25.0668 75.1999 23.2534 72.6399 23.2534ZM72.6399 30.5068C71.2532 30.5068 70.0799 29.3334 70.0799 27.7334C70.0799 26.1334 71.2532 24.9601 72.6399 24.9601C74.0265 24.9601 75.1999 26.0268 75.1999 27.7334C75.1999 29.3334 74.0265 30.5068 72.6399 30.5068ZM62.7199 23.2534C60.1599 23.2534 58.1332 25.1734 58.1332 27.8401C58.1332 30.4001 60.1599 32.4268 62.7199 32.4268C65.2799 32.4268 67.3065 30.5068 67.3065 27.8401C67.3065 25.0668 65.2799 23.2534 62.7199 23.2534ZM62.7199 30.5068C61.3332 30.5068 60.1599 29.3334 60.1599 27.7334C60.1599 26.1334 61.3332 24.9601 62.7199 24.9601C64.1065 24.9601 65.2799 26.0268 65.2799 27.7334C65.2799 29.3334 64.1065 30.5068 62.7199 30.5068ZM50.8798 24.6401V26.5601H55.4665C55.3598 27.6268 54.9332 28.4801 54.3998 29.0134C53.7598 29.6534 52.6932 30.4001 50.8798 30.4001C47.9998 30.4001 45.8665 28.1601 45.8665 25.2801C45.8665 22.4001 48.1065 20.1601 50.8798 20.1601C52.3732 20.1601 53.5465 20.8001 54.3998 21.5468L55.7865 20.1601C54.6132 19.0934 53.1198 18.2401 50.9865 18.2401C47.1465 18.2401 43.8398 21.4401 43.8398 25.2801C43.8398 29.1201 47.1465 32.3201 50.9865 32.3201C53.1198 32.3201 54.6132 31.6801 55.8932 30.2934C57.1732 29.0134 57.5999 27.2001 57.5999 25.8134C57.5999 25.3868 57.5999 24.9601 57.4932 24.6401H50.8798ZM99.3065 26.1334C98.8799 25.0668 97.8132 23.2534 95.4665 23.2534C93.1199 23.2534 91.1999 25.0668 91.1999 27.8401C91.1999 30.4001 93.1199 32.4268 95.6799 32.4268C97.7065 32.4268 98.9865 31.1468 99.4132 30.4001L97.9199 29.3334C97.3865 30.0801 96.7465 30.6134 95.6799 30.6134C94.6132 30.6134 93.9732 30.1868 93.4399 29.2268L99.5199 26.6668L99.3065 26.1334ZM93.1199 27.6268C93.1199 25.9201 94.5065 24.9601 95.4665 24.9601C96.2132 24.9601 96.9599 25.3868 97.1732 25.9201L93.1199 27.6268ZM88.1065 32.0001H90.1332V18.6668H88.1065V32.0001ZM84.9065 24.2134C84.3732 23.6801 83.5199 23.1468 82.4532 23.1468C80.2132 23.1468 78.0799 25.1734 78.0799 27.7334C78.0799 30.2934 80.1065 32.2134 82.4532 32.2134C83.5199 32.2134 84.3732 31.6801 84.7999 31.1468H84.9065V31.7868C84.9065 33.4934 83.9465 34.4534 82.4532 34.4534C81.2799 34.4534 80.4265 33.6001 80.2132 32.8534L78.5065 33.6001C79.0399 34.7734 80.3199 36.2668 82.5599 36.2668C84.9065 36.2668 86.8265 34.8801 86.8265 31.5734V23.4668H84.9065V24.2134ZM82.5599 30.5068C81.1732 30.5068 79.9999 29.3334 79.9999 27.7334C79.9999 26.1334 81.1732 24.9601 82.5599 24.9601C83.9465 24.9601 85.0132 26.1334 85.0132 27.7334C85.0132 29.3334 83.9465 30.5068 82.5599 30.5068ZM108.587 18.6668H103.787V32.0001H105.813V26.9868H108.587C110.827 26.9868 112.96 25.3868 112.96 22.8268C112.96 20.2668 110.827 18.6668 108.587 18.6668ZM108.693 25.0668H105.813V20.4801H108.693C110.187 20.4801 111.04 21.7601 111.04 22.7201C110.933 23.8934 110.08 25.0668 108.693 25.0668ZM120.96 23.1468C119.467 23.1468 117.973 23.7868 117.44 25.1734L119.253 25.9201C119.68 25.1734 120.32 24.9601 121.067 24.9601C122.133 24.9601 123.093 25.6001 123.2 26.6668V26.7734C122.88 26.5601 122.027 26.2401 121.173 26.2401C119.253 26.2401 117.333 27.3068 117.333 29.2268C117.333 31.0401 118.933 32.2134 120.64 32.2134C122.027 32.2134 122.667 31.5734 123.2 30.9334H123.307V32.0001H125.227V26.8801C125.013 24.5334 123.2 23.1468 120.96 23.1468ZM120.747 30.5068C120.107 30.5068 119.147 30.1868 119.147 29.3334C119.147 28.2668 120.32 27.9468 121.28 27.9468C122.133 27.9468 122.56 28.1601 123.093 28.3734C122.88 29.6534 121.813 30.5068 120.747 30.5068ZM131.947 23.4668L129.707 29.2268H129.6L127.253 23.4668H125.12L128.64 31.5734L126.613 36.0534H128.64L134.08 23.4668H131.947ZM114.027 32.0001H116.053V18.6668H114.027V32.0001Z" fill="white"/>
<path d="M11.0932 8C10.7732 8.32 10.6665 8.85333 10.6665 9.49333V33.0667C10.6665 33.7067 10.8798 34.24 11.1998 34.56L11.3065 34.6667L24.5332 21.44V21.3333V21.2267L11.0932 8Z" fill="url(#paint0_linear_812_1762)"/>
<path d="M28.7996 25.9202L24.4263 21.5468V21.3335V21.2268L28.7996 16.8535L28.9063 16.9602L34.1329 19.9468C35.6263 20.8002 35.6263 22.1868 34.1329 23.0402L28.7996 25.9202Z" fill="url(#paint1_linear_812_1762)"/>
<path d="M28.9066 25.8134L24.4266 21.3334L11.0933 34.6667C11.6266 35.2 12.3733 35.2 13.3333 34.7734L28.9066 25.8134Z" fill="url(#paint2_linear_812_1762)"/>
<path d="M28.9066 16.8535L13.3333 8.00018C12.3733 7.46684 11.6266 7.57351 11.0933 8.10684L24.4266 21.3335L28.9066 16.8535Z" fill="url(#paint3_linear_812_1762)"/>
<path opacity="0.2" d="M28.7999 25.7068L13.3333 34.4535C12.4799 34.9868 11.7333 34.8801 11.1999 34.4535L11.0933 34.5601L11.1999 34.6668C11.7333 35.0935 12.4799 35.2001 13.3333 34.6668L28.7999 25.7068Z" fill="black"/>
<path opacity="0.12" d="M11.0932 34.4534C10.7732 34.1334 10.6665 33.6001 10.6665 32.9601V33.0667C10.6665 33.7067 10.8798 34.2401 11.1998 34.5601V34.4534H11.0932Z" fill="black"/>
<path opacity="0.12" d="M34.1331 22.72L28.7998 25.7067L28.9065 25.8134L34.1331 22.8267C34.8798 22.4 35.1998 21.8667 35.1998 21.3334C35.1998 21.8667 34.7731 22.2934 34.1331 22.72Z" fill="black"/>
<path opacity="0.25" d="M13.3332 8.10678L34.1332 19.9468C34.7732 20.3734 35.1998 20.8001 35.1998 21.3334C35.1998 20.8001 34.8798 20.2668 34.1332 19.8401L13.3332 8.00011C11.8398 7.14678 10.6665 7.78678 10.6665 9.49344V9.60011C10.6665 8.00011 11.8398 7.25344 13.3332 8.10678Z" fill="white"/>
<path d="M44.9068 15.2533H44.1602V13.12H44.8002C45.3335 12.6933 45.6535 11.84 45.6535 10.6667V7.46667H49.9202V13.12H50.6668V15.2533H49.9202V13.8667H45.0135V15.2533H44.9068ZM46.4002 10.6667C46.4002 11.6267 46.1868 12.48 45.7602 13.12H48.9602V8.21334H46.2935V10.6667H46.4002Z" fill="white" stroke="white" stroke-width="0.2" stroke-miterlimit="10"/>
<path d="M56.96 13.0132C56.32 13.6532 55.5733 13.9732 54.6133 13.9732C53.6533 13.9732 52.9066 13.6532 52.2666 13.0132C51.6266 12.3732 51.3066 11.6265 51.3066 10.6665C51.3066 9.70653 51.6266 8.95986 52.2666 8.31986C52.9066 7.67986 53.6533 7.35986 54.6133 7.35986C55.5733 7.35986 56.32 7.67986 56.96 8.31986C57.6 8.95986 57.92 9.70653 57.92 10.6665C57.92 11.6265 57.6 12.3732 56.96 13.0132ZM52.9066 12.4799C53.3333 12.9065 53.9733 13.2265 54.6133 13.2265C55.2533 13.2265 55.8933 13.0132 56.32 12.4799C56.7466 12.0532 57.0666 11.4132 57.0666 10.6665C57.0666 9.91986 56.8533 9.27986 56.32 8.8532C55.8933 8.42653 55.2533 8.10653 54.6133 8.10653C53.9733 8.10653 53.3333 8.31986 52.9066 8.8532C52.48 9.27986 52.16 9.91986 52.16 10.6665C52.16 11.4132 52.3733 12.0532 52.9066 12.4799Z" fill="white" stroke="white" stroke-width="0.2" stroke-miterlimit="10"/>
<path d="M62.0801 13.9732C61.1201 13.9732 60.3734 13.6532 59.7334 13.0132C59.0934 12.3732 58.7734 11.6265 58.7734 10.6665C58.7734 9.70653 59.0934 8.95986 59.7334 8.31986C60.3734 7.67986 61.1201 7.35986 62.0801 7.35986C63.0401 7.35986 63.7868 7.67986 64.4268 8.42653L63.8934 8.95986C63.4668 8.42653 62.8268 8.10653 62.0801 8.10653C61.3334 8.10653 60.8001 8.31986 60.2668 8.8532C59.7334 9.27986 59.5201 9.91986 59.5201 10.6665C59.5201 11.4132 59.7334 12.0532 60.2668 12.4799C60.6934 12.9065 61.3334 13.2265 62.0801 13.2265C62.8268 13.2265 63.4668 12.9065 64.0001 12.2665L64.5334 12.7999C64.2134 13.1199 63.8934 13.4399 63.4668 13.6532C63.0401 13.8665 62.6134 13.9732 62.0801 13.9732Z" fill="white" stroke="white" stroke-width="0.2" stroke-miterlimit="10"/>
<path d="M67.9465 13.8667H67.0931V8.21334H65.2798V7.46667H69.6531V8.21334H67.8398V13.8667H67.9465Z" fill="white" stroke="white" stroke-width="0.2" stroke-miterlimit="10"/>
<path d="M75.3065 7.46667L72.8532 12.9067C72.5332 13.6533 71.9998 14.08 71.3598 14.08C71.1465 14.08 70.9332 14.08 70.7199 13.9733L70.9332 13.2267C71.0398 13.3333 71.2532 13.3333 71.3598 13.3333C71.5732 13.3333 71.6798 13.3333 71.7865 13.2267C71.8932 13.12 71.9998 13.0133 72.1065 12.8L72.3198 12.2667L70.1865 7.57334H71.1465L72.7465 11.2L74.3465 7.46667H75.3065Z" fill="white" stroke="white" stroke-width="0.2" stroke-miterlimit="10"/>
<path d="M76.2666 13.8667V7.46667H80.8532V13.8667H79.9999V8.21334H77.0133V13.8667H76.2666Z" fill="white" stroke="white" stroke-width="0.2" stroke-miterlimit="10"/>
<path d="M82.3467 13.8667V7.46667H83.2V10.24H86.4V7.46667H87.2534V13.8667H86.4V10.9867H83.2V13.8667H82.3467Z" fill="white" stroke="white" stroke-width="0.2" stroke-miterlimit="10"/>
<path d="M93.9731 13.0132C93.3331 13.6532 92.5865 13.9732 91.6265 13.9732C90.6665 13.9732 89.9198 13.6532 89.2798 13.0132C88.6398 12.3732 88.3198 11.6265 88.3198 10.6665C88.3198 9.70653 88.6398 8.95986 89.2798 8.31986C89.9198 7.67986 90.6665 7.35986 91.6265 7.35986C92.5865 7.35986 93.3331 7.67986 93.9731 8.31986C94.6131 8.95986 94.9332 9.70653 94.9332 10.6665C94.8265 11.6265 94.5065 12.3732 93.9731 13.0132ZM89.8132 12.4799C90.2398 12.9065 90.8798 13.2265 91.5198 13.2265C92.1598 13.2265 92.7998 13.0132 93.2265 12.4799C93.6532 12.0532 93.9731 11.4132 93.9731 10.6665C93.9731 9.91986 93.7598 9.27986 93.2265 8.8532C92.7998 8.42653 92.1598 8.10653 91.5198 8.10653C90.8798 8.10653 90.2398 8.31986 89.8132 8.8532C89.3865 9.27986 89.0665 9.91986 89.0665 10.6665C89.0665 11.4132 89.3865 12.0532 89.8132 12.4799Z" fill="white" stroke="white" stroke-width="0.2" stroke-miterlimit="10"/>
<path d="M98.2402 13.8667V7.46667H100.587C101.12 7.46667 101.547 7.68001 101.867 8.00001C102.187 8.32001 102.4 8.74667 102.4 9.17334C102.4 9.49334 102.294 9.70667 102.187 10.0267C102.08 10.24 101.867 10.4533 101.547 10.56C101.867 10.6667 102.08 10.88 102.294 11.0933C102.507 11.3067 102.614 11.6267 102.614 12.0533C102.614 12.5867 102.4 13.0133 102.08 13.3333C101.654 13.6533 101.227 13.8667 100.694 13.8667H98.2402ZM99.0936 10.24H100.587C100.907 10.24 101.12 10.1333 101.334 9.92001C101.547 9.70667 101.654 9.49334 101.654 9.28001C101.654 9.06667 101.44 8.74667 101.334 8.53334C101.12 8.32001 100.907 8.21334 100.587 8.21334H99.0936V10.24ZM99.0936 13.12H100.8C101.12 13.12 101.334 13.0133 101.547 12.8C101.76 12.5867 101.867 12.3733 101.867 12.0533C101.867 11.84 101.76 11.52 101.547 11.3067C101.334 11.0933 101.12 10.9867 100.8 10.9867H99.2002V13.12H99.0936Z" fill="white" stroke="white" stroke-width="0.2" stroke-miterlimit="10"/>
<rect x="0.5" y="0.5" width="143" height="41.6667" rx="5.5" stroke="#A6A6A6"/>
<defs>
<linearGradient id="paint0_linear_812_1762" x1="23.2527" y1="9.29045" x2="5.35152" y2="27.1917" gradientUnits="userSpaceOnUse">
<stop stop-color="#00A0FF"/>
<stop offset="0.00657445" stop-color="#00A1FF"/>
<stop offset="0.2601" stop-color="#00BEFF"/>
<stop offset="0.5122" stop-color="#00D2FF"/>
<stop offset="0.7604" stop-color="#00DFFF"/>
<stop offset="1" stop-color="#00E3FF"/>
</linearGradient>
<linearGradient id="paint1_linear_812_1762" x1="36.0895" y1="21.3351" x2="10.2795" y2="21.3351" gradientUnits="userSpaceOnUse">
<stop stop-color="#FFE000"/>
<stop offset="0.4087" stop-color="#FFBD00"/>
<stop offset="0.7754" stop-color="#FFA500"/>
<stop offset="1" stop-color="#FF9C00"/>
</linearGradient>
<linearGradient id="paint2_linear_812_1762" x1="26.482" y1="23.7827" x2="2.20647" y2="48.0582" gradientUnits="userSpaceOnUse">
<stop stop-color="#FF3A44"/>
<stop offset="1" stop-color="#C31162"/>
</linearGradient>
<linearGradient id="paint3_linear_812_1762" x1="7.78361" y1="0.188231" x2="18.6237" y2="11.0282" gradientUnits="userSpaceOnUse">
<stop stop-color="#32A071"/>
<stop offset="0.0685" stop-color="#2DA771"/>
<stop offset="0.4762" stop-color="#15CF74"/>
<stop offset="0.8009" stop-color="#06E775"/>
<stop offset="1" stop-color="#00F076"/>
</linearGradient>
</defs>
</svg>
