<svg width="144" height="44" viewBox="0 0 144 44" fill="none" xmlns="http://www.w3.org/2000/svg">
<rect x="0.5" y="1.16663" width="143" height="41.8936" rx="5.5" fill="black"/>
<path d="M45.0718 32.8368L49.9678 20.1403H51.7822L57.0238 32.8368H55.0942L53.5966 29.0049H48.2398L46.8286 32.8368H45.0718ZM48.7582 27.6323H53.0782L51.7534 24.1151C51.3502 23.057 51.0334 22.1706 50.8606 21.4843C50.6878 22.2849 50.4574 23.1142 50.1694 23.9149L48.7582 27.6323Z" fill="black"/>
<path d="M58.1758 36.3541V23.629H59.6158V24.83C59.9614 24.3725 60.3358 24.0007 60.7678 23.772C61.1998 23.5432 61.7182 23.4288 62.323 23.4288C63.1006 23.4288 63.8206 23.629 64.4254 24.0293C65.0302 24.4297 65.491 25.0016 65.8078 25.7451C66.1246 26.4886 66.2686 27.2893 66.2686 28.1757C66.2686 29.1194 66.0958 29.9773 65.7502 30.7207C65.4046 31.4642 64.915 32.0647 64.2814 32.4651C63.6478 32.8654 62.9566 33.0656 62.2366 33.0656C61.7182 33.0656 61.2574 32.9512 60.8254 32.7224C60.4222 32.4937 60.0766 32.2363 59.7886 31.8932V36.3827H58.1758V36.3541ZM59.587 28.2901C59.587 29.4625 59.8174 30.349 60.307 30.9209C60.7966 31.4928 61.3726 31.7788 62.0638 31.7788C62.755 31.7788 63.3598 31.4928 63.8494 30.8923C64.339 30.3204 64.5982 29.4053 64.5982 28.1757C64.5982 27.0033 64.3678 26.1168 63.8782 25.5449C63.3886 24.973 62.8126 24.6585 62.1502 24.6585C61.4878 24.6585 60.883 24.973 60.3646 25.6021C59.8462 26.2026 59.587 27.1177 59.587 28.2901Z" fill="black"/>
<path d="M68.1118 36.3541V23.629H69.5518V24.83C69.8974 24.3725 70.2718 24.0007 70.7038 23.772C71.1358 23.5432 71.6542 23.4288 72.259 23.4288C73.0366 23.4288 73.7566 23.629 74.3614 24.0293C74.9662 24.4297 75.427 25.0016 75.7438 25.7451C76.0606 26.4886 76.2046 27.2893 76.2046 28.1757C76.2046 29.1194 76.0318 29.9773 75.6862 30.7207C75.3406 31.4642 74.851 32.0647 74.2174 32.4651C73.555 32.8654 72.8926 33.0656 72.1726 33.0656C71.6542 33.0656 71.1934 32.9512 70.7614 32.7224C70.3582 32.4937 70.0126 32.2363 69.7246 31.8932V36.3827H68.1118V36.3541ZM69.523 28.2901C69.523 29.4625 69.7534 30.349 70.243 30.9209C70.7326 31.4928 71.3086 31.7788 71.9998 31.7788C72.691 31.7788 73.2958 31.4928 73.7854 30.8923C74.275 30.3204 74.5342 29.4053 74.5342 28.1757C74.5342 27.0033 74.3038 26.1168 73.8142 25.5449C73.3246 24.973 72.7486 24.6585 72.0862 24.6585C71.4238 24.6585 70.819 24.973 70.3006 25.6021C69.7822 26.2026 69.523 27.1177 69.523 28.2901Z" fill="black"/>
<path d="M84.211 27.8612V26.3742H89.6254V31.0925C88.7902 31.7502 87.9262 32.2363 87.0622 32.5795C86.1982 32.9226 85.2766 33.0656 84.355 33.0656C83.0878 33.0656 81.9646 32.8082 80.9278 32.2649C79.891 31.7216 79.1134 30.9495 78.595 29.9487C78.0766 28.9478 77.8174 27.804 77.8174 26.5744C77.8174 25.3447 78.0766 24.1723 78.595 23.1143C79.1134 22.0562 79.8622 21.2556 80.8414 20.7408C81.8206 20.2261 82.9438 19.9688 84.211 19.9688C85.1326 19.9688 85.9678 20.1117 86.7166 20.4263C87.4654 20.7122 88.0414 21.1412 88.4734 21.6559C88.9054 22.1992 89.2222 22.8855 89.4526 23.7434L87.9262 24.1723C87.7246 23.5146 87.4942 23.0285 87.2062 22.6567C86.9182 22.285 86.515 21.999 85.9966 21.7703C85.4782 21.5415 84.8734 21.4271 84.2398 21.4271C83.4622 21.4271 82.7998 21.5415 82.2238 21.7703C81.6478 21.999 81.2158 22.3136 80.8702 22.6853C80.5246 23.0571 80.2654 23.486 80.0638 23.9436C79.747 24.7156 79.5742 25.5735 79.5742 26.4886C79.5742 27.6324 79.7758 28.5761 80.1502 29.3196C80.5534 30.0916 81.1006 30.635 81.8494 31.0067C82.5982 31.3784 83.4046 31.55 84.2398 31.55C84.9598 31.55 85.6798 31.407 86.371 31.1211C87.0622 30.8351 87.6094 30.5492 87.955 30.2346V27.8612H84.211Z" fill="black"/>
<path d="M97.9776 31.6931C97.4016 32.1792 96.8256 32.5223 96.3072 32.7225C95.76 32.9227 95.184 33.0371 94.5792 33.0371C93.5711 33.0371 92.7935 32.7797 92.2463 32.2936C91.6991 31.8075 91.4399 31.1783 91.4399 30.4063C91.4399 29.9487 91.5551 29.5484 91.7567 29.1766C91.9583 28.8049 92.2463 28.5189 92.5631 28.2902C92.9087 28.0614 93.2831 27.8898 93.6863 27.7754C94.0031 27.6897 94.464 27.6039 95.0688 27.5467C96.336 27.4037 97.2576 27.2035 97.8624 27.0034C97.8624 26.8032 97.8624 26.6602 97.8624 26.603C97.8624 25.9739 97.7184 25.5164 97.4304 25.259C97.0272 24.9159 96.4224 24.7443 95.6448 24.7443C94.896 24.7443 94.3488 24.8587 94.0032 25.116C93.6575 25.3734 93.3984 25.8309 93.2256 26.4886L91.6991 26.2885C91.8431 25.6308 92.0735 25.116 92.3903 24.7157C92.7071 24.3154 93.168 24.0008 93.7728 23.8006C94.3776 23.5719 95.0688 23.4861 95.8752 23.4861C96.6528 23.4861 97.3152 23.5719 97.8048 23.772C98.2944 23.9436 98.6688 24.201 98.8992 24.4583C99.1296 24.7443 99.3024 25.0874 99.3888 25.5164C99.4464 25.7737 99.4752 26.2599 99.4752 26.9462V28.9765C99.4752 30.4349 99.504 31.3499 99.5616 31.7217C99.6192 32.0934 99.7632 32.4652 99.9648 32.8369H98.3232C98.1216 32.5223 98.0064 32.122 97.9776 31.6931ZM97.8336 28.233C97.2576 28.4617 96.4224 28.6619 95.2704 28.8335C94.6368 28.9193 94.176 29.0337 93.888 29.148C93.6288 29.2624 93.4271 29.434 93.2831 29.6628C93.1391 29.8915 93.0528 30.1203 93.0528 30.4063C93.0528 30.8352 93.1968 31.1783 93.5136 31.4357C93.8304 31.6931 94.2912 31.8646 94.896 31.8646C95.5008 31.8646 96.048 31.7217 96.5088 31.4643C96.9696 31.2069 97.3152 30.8352 97.5456 30.3777C97.7184 30.0345 97.8048 29.5198 97.8048 28.8335V28.233H97.8336Z" fill="black"/>
<path d="M101.836 32.8368V20.1403H103.392V32.8368H101.836Z" fill="black"/>
<path d="M105.782 32.8368V20.1403H107.337V32.8368H105.782Z" fill="black"/>
<path d="M116.121 29.8629L117.734 30.063C117.475 31.0067 117.014 31.7216 116.323 32.2649C115.631 32.7796 114.739 33.037 113.673 33.037C112.319 33.037 111.254 32.6367 110.447 31.8074C109.641 30.9781 109.267 29.8057 109.267 28.3187C109.267 26.7745 109.67 25.5735 110.476 24.7156C111.283 23.8578 112.319 23.4288 113.587 23.4288C114.825 23.4288 115.833 23.8578 116.611 24.687C117.388 25.5163 117.791 26.6887 117.791 28.2329C117.791 28.3187 117.791 28.4617 117.791 28.6619H110.879C110.937 29.6627 111.225 30.4348 111.743 30.9781C112.262 31.5214 112.895 31.7788 113.673 31.7788C114.249 31.7788 114.739 31.6358 115.142 31.3213C115.574 31.0067 115.891 30.5206 116.121 29.8629ZM110.966 27.3465H116.15C116.092 26.5744 115.891 26.0025 115.545 25.6021C115.055 25.0016 114.393 24.7156 113.587 24.7156C112.867 24.7156 112.262 24.9444 111.772 25.4305C111.283 25.9167 111.023 26.5458 110.966 27.3465Z" fill="black"/>
<path d="M119.692 32.8368V23.629H121.104V25.0302C121.478 24.3725 121.795 23.9436 122.112 23.7434C122.428 23.5432 122.745 23.4288 123.12 23.4288C123.638 23.4288 124.185 23.6004 124.732 23.9436L124.185 25.4019C123.811 25.1732 123.408 25.0588 123.033 25.0588C122.688 25.0588 122.371 25.1732 122.112 25.3733C121.852 25.5735 121.651 25.8595 121.536 26.2312C121.363 26.7745 121.276 27.4036 121.276 28.0613V32.8654H119.692V32.8368Z" fill="black"/>
<path d="M125.596 36.3828L125.424 34.9244C125.769 35.0102 126.057 35.0674 126.316 35.0674C126.662 35.0674 126.95 35.0102 127.152 34.8958C127.353 34.7815 127.526 34.6099 127.67 34.4097C127.756 34.2667 127.929 33.8664 128.16 33.2373C128.188 33.1515 128.246 33.0371 128.304 32.8655L124.79 23.6577H126.489L128.419 28.9765C128.678 29.6628 128.88 30.3491 129.081 31.0926C129.254 30.3777 129.484 29.6914 129.715 29.0051L131.702 23.6577H133.257L129.744 32.9799C129.369 33.9808 129.081 34.6957 128.851 35.0674C128.563 35.5821 128.246 35.9539 127.9 36.2112C127.526 36.44 127.123 36.583 126.604 36.583C126.316 36.5544 125.971 36.4972 125.596 36.3828Z" fill="black"/>
<path d="M44.6689 11.6188C44.6689 10.5321 44.9569 9.67427 45.5617 9.07376C46.1377 8.44465 46.9154 8.15869 47.837 8.15869C48.4418 8.15869 48.989 8.30167 49.4786 8.58763C49.9682 8.87359 50.3426 9.27393 50.6018 9.78865C50.861 10.3034 50.9762 10.9039 50.9762 11.533C50.9762 12.1907 50.8322 12.7912 50.573 13.3059C50.3138 13.8207 49.9106 14.221 49.421 14.5069C48.9314 14.7643 48.3842 14.9073 47.8082 14.9073C47.1745 14.9073 46.6273 14.7643 46.1377 14.4498C45.6481 14.1638 45.2737 13.7349 45.0145 13.2201C44.7841 12.7626 44.6689 12.2193 44.6689 11.6188ZM45.5617 11.6474C45.5617 12.4481 45.7633 13.0486 46.1953 13.5061C46.6273 13.9636 47.1457 14.1924 47.8082 14.1924C48.4706 14.1924 49.0178 13.9636 49.421 13.5061C49.853 13.0486 50.0546 12.3909 50.0546 11.5616C50.0546 11.0183 49.9682 10.5607 49.7954 10.1604C49.6226 9.76005 49.3346 9.4455 48.989 9.24533C48.6434 9.04516 48.2402 8.93078 47.8082 8.93078C47.2033 8.93078 46.6561 9.13095 46.2241 9.55988C45.7921 9.96022 45.5617 10.6465 45.5617 11.6474Z" fill="black"/>
<path d="M53.7987 14.8215V9.04516H51.6387V8.27307H56.8803V9.04516H54.6915V14.8215H53.7987Z" fill="black"/>
<path d="M57.7441 8.2731H58.6081V11.1327C59.0113 11.1327 59.2993 11.0469 59.4433 10.9039C59.6161 10.7609 59.8177 10.3892 60.0769 9.78868C60.2497 9.35974 60.4225 9.04519 60.5377 8.87361C60.6529 8.70204 60.8257 8.55906 61.0561 8.41608C61.2865 8.3017 61.5169 8.24451 61.7761 8.24451C62.1217 8.24451 62.2945 8.24451 62.2945 8.24451V8.988C62.2657 8.988 62.2081 8.988 62.1217 8.988C62.0353 8.988 61.9777 8.988 61.9489 8.988C61.6609 8.988 61.4593 9.04519 61.3153 9.18817C61.1713 9.33114 61.0273 9.6171 60.8545 10.046C60.6241 10.5894 60.4513 10.9611 60.2785 11.1041C60.1345 11.2471 59.9329 11.3614 59.7313 11.4472C60.1633 11.5616 60.5665 11.962 60.9985 12.6197L62.3521 14.7929H61.2577L60.1633 13.02C59.8465 12.5339 59.6161 12.1907 59.4145 12.0191C59.2129 11.8476 58.9537 11.7332 58.6081 11.7332V14.7929H57.7441V8.2731Z" fill="black"/>
<path d="M63.1011 14.8215V8.27307H65.5779C66.0099 8.27307 66.3555 8.30167 66.5859 8.33026C66.9027 8.38745 67.1907 8.47324 67.3923 8.64482C67.6227 8.78779 67.7955 9.01656 67.9107 9.27392C68.0547 9.53128 68.1123 9.84584 68.1123 10.1604C68.1123 10.7037 67.9395 11.1898 67.5651 11.5616C67.2195 11.9333 66.5571 12.1335 65.6355 12.1335H63.9363V14.7929H63.1011V14.8215ZM63.9651 11.39H65.6643C66.2403 11.39 66.6147 11.2756 66.8739 11.0755C67.1043 10.8753 67.2195 10.5607 67.2195 10.189C67.2195 9.90303 67.1619 9.67426 67.0179 9.47409C66.8739 9.27392 66.7011 9.15954 66.4707 9.07375C66.3267 9.04516 66.0387 9.01656 65.6643 9.01656H63.9651V11.39Z" fill="black"/>
<path d="M68.7744 11.6187C68.7744 10.532 69.0624 9.67414 69.6672 9.07363C70.2432 8.44453 71.0208 8.15857 71.9424 8.15857C72.5472 8.15857 73.0944 8.30155 73.584 8.58751C74.0736 8.87346 74.448 9.2738 74.7072 9.78853C74.9664 10.3032 75.0816 10.9038 75.0816 11.5329C75.0816 12.1906 74.9376 12.7911 74.6784 13.3058C74.4192 13.8205 74.016 14.2209 73.5264 14.5068C73.0368 14.7642 72.4896 14.9072 71.9136 14.9072C71.28 14.9072 70.7328 14.7642 70.2432 14.4496C69.7536 14.1637 69.3792 13.7347 69.12 13.22C68.9184 12.7625 68.7744 12.2192 68.7744 11.6187ZM69.696 11.6472C69.696 12.4479 69.8976 13.0484 70.3296 13.506C70.7616 13.9635 71.28 14.1923 71.9424 14.1923C72.6048 14.1923 73.152 13.9635 73.5552 13.506C73.9872 13.0484 74.1888 12.3907 74.1888 11.5615C74.1888 11.0181 74.1024 10.5606 73.9296 10.1603C73.7568 9.75993 73.4688 9.44538 73.1232 9.24521C72.7776 9.01644 72.3744 8.93065 71.9424 8.93065C71.3376 8.93065 70.7904 9.13082 70.3584 9.55976C69.8976 9.9601 69.696 10.6464 69.696 11.6472Z" fill="black"/>
<path d="M76.2334 8.27296H77.0398V13.4488L80.5534 8.27296H81.4174V14.8214H80.6398V9.64556L77.1262 14.8214H76.2622V8.27296H76.2334ZM79.5166 6.7002H80.0638C80.0062 7.07194 79.891 7.3579 79.6606 7.55807C79.4302 7.75824 79.1134 7.84402 78.739 7.84402C78.3646 7.84402 78.0478 7.75824 77.8174 7.55807C77.587 7.3579 77.443 7.07194 77.4142 6.7002H77.9614C77.9902 6.90037 78.0766 7.04334 78.2206 7.15773C78.3358 7.24351 78.5086 7.30071 78.7102 7.30071C78.9406 7.30071 79.1422 7.24351 79.2574 7.15773C79.3726 7.07194 79.459 6.92896 79.5166 6.7002Z" fill="black"/>
<path d="M84.5282 14.8214V9.04503H82.3682V8.27295H87.6098V9.04503H85.421V14.8214H84.5282Z" fill="black"/>
<path d="M88.5024 14.8214V8.27295H93.2833V9.04503H89.3952V11.0467H93.0241V11.8188H89.3664V14.0493H93.4273V14.8214H88.5024Z" fill="black"/>
<path d="M97.1426 14.8215V8.27307H99.6194C100.138 8.27307 100.541 8.33026 100.829 8.47324C101.146 8.61622 101.376 8.81639 101.549 9.07375C101.722 9.35971 101.808 9.64567 101.808 9.93162C101.808 10.2176 101.722 10.4749 101.578 10.7323C101.434 10.9897 101.203 11.1898 100.887 11.3328C101.29 11.4472 101.607 11.6474 101.808 11.9333C102.01 12.2193 102.125 12.5338 102.125 12.9342C102.125 13.2487 102.067 13.5347 101.923 13.792C101.779 14.0494 101.635 14.2496 101.434 14.3926C101.232 14.5355 101.002 14.6499 100.714 14.7071C100.426 14.7929 100.08 14.8215 99.6482 14.8215H97.1426ZM98.0354 11.0183H99.4754C99.8498 11.0183 100.138 10.9897 100.311 10.9325C100.541 10.8753 100.714 10.7609 100.8 10.6179C100.887 10.4749 100.973 10.2748 100.973 10.046C100.973 9.81724 100.915 9.64567 100.829 9.47409C100.714 9.30252 100.57 9.18813 100.368 9.13094C100.167 9.07375 99.8498 9.04516 99.3602 9.04516H98.0354V11.0183ZM98.0354 14.0494H99.677C99.965 14.0494 100.167 14.0494 100.282 14.0208C100.483 13.9922 100.656 13.935 100.8 13.8492C100.944 13.7635 101.059 13.6491 101.146 13.4775C101.232 13.3059 101.29 13.1343 101.29 12.9342C101.29 12.6768 101.232 12.4766 101.088 12.3051C100.973 12.1335 100.8 11.9905 100.57 11.9333C100.339 11.8475 100.023 11.8189 99.5906 11.8189H98.0642V14.0494H98.0354Z" fill="black"/>
<path fill-rule="evenodd" clip-rule="evenodd" d="M29.0879 8.53052H17.1359C11.4911 8.53052 9.44629 10.5894 9.44629 16.1656V28.0328C9.44629 33.6376 11.5199 35.6679 17.1359 35.6679H29.0879C34.7327 35.6679 36.7775 33.609 36.7775 28.0328V16.1656C36.8063 10.5894 34.7327 8.53052 29.0879 8.53052Z" fill="#C7102D"/>
<path d="M14.8606 22.1134H15.5806V25.6593H14.8606V24.2295H13.219V25.6593H12.499V22.1134H13.219V23.5432H14.8606V22.1134ZM18.9502 24.1437C18.9502 24.7156 18.6622 25.0302 18.1438 25.0302C17.6254 25.0302 17.3374 24.7156 17.3374 24.1151V22.1134H16.6174V24.1437C16.6174 25.1446 17.1646 25.7165 18.1438 25.7165C19.123 25.7165 19.699 25.1446 19.699 24.1151V22.1134H18.979V24.1437H18.9502ZM27.331 24.544L26.5246 22.1134H25.9198L25.1134 24.544L24.3358 22.1134H23.5582L24.7966 25.6593H25.4014L26.2078 23.3144L27.0142 25.6593H27.619L28.8574 22.1134H28.1086L27.331 24.544ZM30.1822 24.1437H31.507V23.486H30.1822V22.7711H32.1118V22.1134H29.491V25.6593H32.1982V25.0016H30.211V24.1437H30.1822ZM33.0334 25.6593H33.7534V22.1134H33.0334V25.6593ZM21.1102 24.9158L20.7934 25.6593H20.0446L21.5998 22.1134H22.2334L23.7886 25.6593H23.0398L22.7518 24.9158H21.1102ZM21.3694 24.2867H22.4638L21.9166 23.0285L21.3694 24.2867Z" fill="white"/>
<path d="M23.1266 17.5954C20.621 17.5954 18.5762 15.5651 18.5762 13.0773H19.2098C19.2098 15.222 20.9666 16.9663 23.1266 16.9663C25.2866 16.9663 27.0434 15.222 27.0434 13.0773H27.677C27.677 15.5651 25.6322 17.5954 23.1266 17.5954Z" fill="white"/>
<path d="M45.0718 32.8368L49.9678 20.1403H51.7822L57.0238 32.8368H55.0942L53.5966 29.0049H48.2398L46.8286 32.8368H45.0718ZM48.7582 27.6323H53.0782L51.7534 24.1151C51.3502 23.057 51.0334 22.1706 50.8606 21.4843C50.6878 22.2849 50.4574 23.1142 50.1694 23.9149L48.7582 27.6323Z" fill="white"/>
<path d="M58.1758 36.3541V23.629H59.6158V24.83C59.9614 24.3725 60.3358 24.0007 60.7678 23.772C61.1998 23.5432 61.7182 23.4288 62.323 23.4288C63.1006 23.4288 63.8206 23.629 64.4254 24.0293C65.0302 24.4297 65.491 25.0016 65.8078 25.7451C66.1246 26.4886 66.2686 27.2893 66.2686 28.1757C66.2686 29.1194 66.0958 29.9773 65.7502 30.7207C65.4046 31.4642 64.915 32.0647 64.2814 32.4651C63.6478 32.8654 62.9566 33.0656 62.2366 33.0656C61.7182 33.0656 61.2574 32.9512 60.8254 32.7224C60.4222 32.4937 60.0766 32.2363 59.7886 31.8932V36.3827H58.1758V36.3541ZM59.587 28.2901C59.587 29.4625 59.8174 30.349 60.307 30.9209C60.7966 31.4928 61.3726 31.7788 62.0638 31.7788C62.755 31.7788 63.3598 31.4928 63.8494 30.8923C64.339 30.3204 64.5982 29.4053 64.5982 28.1757C64.5982 27.0033 64.3678 26.1168 63.8782 25.5449C63.3886 24.973 62.8126 24.6585 62.1502 24.6585C61.4878 24.6585 60.883 24.973 60.3646 25.6021C59.8462 26.2026 59.587 27.1177 59.587 28.2901Z" fill="white"/>
<path d="M68.1118 36.3541V23.629H69.5518V24.83C69.8974 24.3725 70.2718 24.0007 70.7038 23.772C71.1358 23.5432 71.6542 23.4288 72.259 23.4288C73.0366 23.4288 73.7566 23.629 74.3614 24.0293C74.9662 24.4297 75.427 25.0016 75.7438 25.7451C76.0606 26.4886 76.2046 27.2893 76.2046 28.1757C76.2046 29.1194 76.0318 29.9773 75.6862 30.7207C75.3406 31.4642 74.851 32.0647 74.2174 32.4651C73.555 32.8654 72.8926 33.0656 72.1726 33.0656C71.6542 33.0656 71.1934 32.9512 70.7614 32.7224C70.3582 32.4937 70.0126 32.2363 69.7246 31.8932V36.3827H68.1118V36.3541ZM69.523 28.2901C69.523 29.4625 69.7534 30.349 70.243 30.9209C70.7326 31.4928 71.3086 31.7788 71.9998 31.7788C72.691 31.7788 73.2958 31.4928 73.7854 30.8923C74.275 30.3204 74.5342 29.4053 74.5342 28.1757C74.5342 27.0033 74.3038 26.1168 73.8142 25.5449C73.3246 24.973 72.7486 24.6585 72.0862 24.6585C71.4238 24.6585 70.819 24.973 70.3006 25.6021C69.7822 26.2026 69.523 27.1177 69.523 28.2901Z" fill="white"/>
<path d="M84.211 27.8612V26.3742H89.6254V31.0925C88.7902 31.7502 87.9262 32.2363 87.0622 32.5795C86.1982 32.9226 85.2766 33.0656 84.355 33.0656C83.0878 33.0656 81.9646 32.8082 80.9278 32.2649C79.891 31.7216 79.1134 30.9495 78.595 29.9487C78.0766 28.9478 77.8174 27.804 77.8174 26.5744C77.8174 25.3447 78.0766 24.1723 78.595 23.1143C79.1134 22.0562 79.8622 21.2556 80.8414 20.7408C81.8206 20.2261 82.9438 19.9688 84.211 19.9688C85.1326 19.9688 85.9678 20.1117 86.7166 20.4263C87.4654 20.7122 88.0414 21.1412 88.4734 21.6559C88.9054 22.1992 89.2222 22.8855 89.4526 23.7434L87.9262 24.1723C87.7246 23.5146 87.4942 23.0285 87.2062 22.6567C86.9182 22.285 86.515 21.999 85.9966 21.7703C85.4782 21.5415 84.8734 21.4271 84.2398 21.4271C83.4622 21.4271 82.7998 21.5415 82.2238 21.7703C81.6478 21.999 81.2158 22.3136 80.8702 22.6853C80.5246 23.0571 80.2654 23.486 80.0638 23.9436C79.747 24.7156 79.5742 25.5735 79.5742 26.4886C79.5742 27.6324 79.7758 28.5761 80.1502 29.3196C80.5534 30.0916 81.1006 30.635 81.8494 31.0067C82.5982 31.3784 83.4046 31.55 84.2398 31.55C84.9598 31.55 85.6798 31.407 86.371 31.1211C87.0622 30.8351 87.6094 30.5492 87.955 30.2346V27.8612H84.211Z" fill="white"/>
<path d="M97.9776 31.6931C97.4016 32.1792 96.8256 32.5223 96.3072 32.7225C95.76 32.9227 95.184 33.0371 94.5792 33.0371C93.5711 33.0371 92.7935 32.7797 92.2463 32.2936C91.6991 31.8075 91.4399 31.1783 91.4399 30.4063C91.4399 29.9487 91.5551 29.5484 91.7567 29.1766C91.9583 28.8049 92.2463 28.5189 92.5631 28.2902C92.9087 28.0614 93.2831 27.8898 93.6863 27.7754C94.0031 27.6897 94.464 27.6039 95.0688 27.5467C96.336 27.4037 97.2576 27.2035 97.8624 27.0034C97.8624 26.8032 97.8624 26.6602 97.8624 26.603C97.8624 25.9739 97.7184 25.5164 97.4304 25.259C97.0272 24.9159 96.4224 24.7443 95.6448 24.7443C94.896 24.7443 94.3488 24.8587 94.0032 25.116C93.6575 25.3734 93.3984 25.8309 93.2256 26.4886L91.6991 26.2885C91.8431 25.6308 92.0735 25.116 92.3903 24.7157C92.7071 24.3154 93.168 24.0008 93.7728 23.8006C94.3776 23.5719 95.0688 23.4861 95.8752 23.4861C96.6528 23.4861 97.3152 23.5719 97.8048 23.772C98.2944 23.9436 98.6688 24.201 98.8992 24.4583C99.1296 24.7443 99.3024 25.0874 99.3888 25.5164C99.4464 25.7737 99.4752 26.2599 99.4752 26.9462V28.9765C99.4752 30.4349 99.504 31.3499 99.5616 31.7217C99.6192 32.0934 99.7632 32.4652 99.9648 32.8369H98.3232C98.1216 32.5223 98.0064 32.122 97.9776 31.6931ZM97.8336 28.233C97.2576 28.4617 96.4224 28.6619 95.2704 28.8335C94.6368 28.9193 94.176 29.0337 93.888 29.148C93.6288 29.2624 93.4271 29.434 93.2831 29.6628C93.1391 29.8915 93.0528 30.1203 93.0528 30.4063C93.0528 30.8352 93.1968 31.1783 93.5136 31.4357C93.8304 31.6931 94.2912 31.8646 94.896 31.8646C95.5008 31.8646 96.048 31.7217 96.5088 31.4643C96.9696 31.2069 97.3152 30.8352 97.5456 30.3777C97.7184 30.0345 97.8048 29.5198 97.8048 28.8335V28.233H97.8336Z" fill="white"/>
<path d="M101.836 32.8368V20.1403H103.392V32.8368H101.836Z" fill="white"/>
<path d="M105.782 32.8368V20.1403H107.337V32.8368H105.782Z" fill="white"/>
<path d="M116.121 29.8629L117.734 30.063C117.475 31.0067 117.014 31.7216 116.323 32.2649C115.631 32.7796 114.739 33.037 113.673 33.037C112.319 33.037 111.254 32.6367 110.447 31.8074C109.641 30.9781 109.267 29.8057 109.267 28.3187C109.267 26.7745 109.67 25.5735 110.476 24.7156C111.283 23.8578 112.319 23.4288 113.587 23.4288C114.825 23.4288 115.833 23.8578 116.611 24.687C117.388 25.5163 117.791 26.6887 117.791 28.2329C117.791 28.3187 117.791 28.4617 117.791 28.6619H110.879C110.937 29.6627 111.225 30.4348 111.743 30.9781C112.262 31.5214 112.895 31.7788 113.673 31.7788C114.249 31.7788 114.739 31.6358 115.142 31.3213C115.574 31.0067 115.891 30.5206 116.121 29.8629ZM110.966 27.3465H116.15C116.092 26.5744 115.891 26.0025 115.545 25.6021C115.055 25.0016 114.393 24.7156 113.587 24.7156C112.867 24.7156 112.262 24.9444 111.772 25.4305C111.283 25.9167 111.023 26.5458 110.966 27.3465Z" fill="white"/>
<path d="M119.692 32.8368V23.629H121.104V25.0302C121.478 24.3725 121.795 23.9436 122.112 23.7434C122.428 23.5432 122.745 23.4288 123.12 23.4288C123.638 23.4288 124.185 23.6004 124.732 23.9436L124.185 25.4019C123.811 25.1732 123.408 25.0588 123.033 25.0588C122.688 25.0588 122.371 25.1732 122.112 25.3733C121.852 25.5735 121.651 25.8595 121.536 26.2312C121.363 26.7745 121.276 27.4036 121.276 28.0613V32.8654H119.692V32.8368Z" fill="white"/>
<path d="M125.596 36.3828L125.424 34.9244C125.769 35.0102 126.057 35.0674 126.316 35.0674C126.662 35.0674 126.95 35.0102 127.152 34.8958C127.353 34.7815 127.526 34.6099 127.67 34.4097C127.756 34.2667 127.929 33.8664 128.16 33.2373C128.188 33.1515 128.246 33.0371 128.304 32.8655L124.79 23.6577H126.489L128.419 28.9765C128.678 29.6628 128.88 30.3491 129.081 31.0926C129.254 30.3777 129.484 29.6914 129.715 29.0051L131.702 23.6577H133.257L129.744 32.9799C129.369 33.9808 129.081 34.6957 128.851 35.0674C128.563 35.5821 128.246 35.9539 127.9 36.2112C127.526 36.44 127.123 36.583 126.604 36.583C126.316 36.5544 125.971 36.4972 125.596 36.3828Z" fill="white"/>
<path d="M44.6689 11.6188C44.6689 10.5321 44.9569 9.67427 45.5617 9.07376C46.1377 8.44465 46.9154 8.15869 47.837 8.15869C48.4418 8.15869 48.989 8.30167 49.4786 8.58763C49.9682 8.87359 50.3426 9.27393 50.6018 9.78865C50.861 10.3034 50.9762 10.9039 50.9762 11.533C50.9762 12.1907 50.8322 12.7912 50.573 13.3059C50.3138 13.8207 49.9106 14.221 49.421 14.5069C48.9314 14.7643 48.3842 14.9073 47.8082 14.9073C47.1745 14.9073 46.6273 14.7643 46.1377 14.4498C45.6481 14.1638 45.2737 13.7349 45.0145 13.2201C44.7841 12.7626 44.6689 12.2193 44.6689 11.6188ZM45.5617 11.6474C45.5617 12.4481 45.7633 13.0486 46.1953 13.5061C46.6273 13.9636 47.1457 14.1924 47.8082 14.1924C48.4706 14.1924 49.0178 13.9636 49.421 13.5061C49.853 13.0486 50.0546 12.3909 50.0546 11.5616C50.0546 11.0183 49.9682 10.5607 49.7954 10.1604C49.6226 9.76005 49.3346 9.4455 48.989 9.24533C48.6434 9.04516 48.2402 8.93078 47.8082 8.93078C47.2033 8.93078 46.6561 9.13095 46.2241 9.55988C45.7921 9.96022 45.5617 10.6465 45.5617 11.6474Z" fill="white"/>
<path d="M53.7987 14.8215V9.04516H51.6387V8.27307H56.8803V9.04516H54.6915V14.8215H53.7987Z" fill="white"/>
<path d="M57.7441 8.2731H58.6081V11.1327C59.0113 11.1327 59.2993 11.0469 59.4433 10.9039C59.6161 10.7609 59.8177 10.3892 60.0769 9.78868C60.2497 9.35974 60.4225 9.04519 60.5377 8.87361C60.6529 8.70204 60.8257 8.55906 61.0561 8.41608C61.2865 8.3017 61.5169 8.24451 61.7761 8.24451C62.1217 8.24451 62.2945 8.24451 62.2945 8.24451V8.988C62.2657 8.988 62.2081 8.988 62.1217 8.988C62.0353 8.988 61.9777 8.988 61.9489 8.988C61.6609 8.988 61.4593 9.04519 61.3153 9.18817C61.1713 9.33114 61.0273 9.6171 60.8545 10.046C60.6241 10.5894 60.4513 10.9611 60.2785 11.1041C60.1345 11.2471 59.9329 11.3614 59.7313 11.4472C60.1633 11.5616 60.5665 11.962 60.9985 12.6197L62.3521 14.7929H61.2577L60.1633 13.02C59.8465 12.5339 59.6161 12.1907 59.4145 12.0191C59.2129 11.8476 58.9537 11.7332 58.6081 11.7332V14.7929H57.7441V8.2731Z" fill="white"/>
<path d="M63.1011 14.8215V8.27307H65.5779C66.0099 8.27307 66.3555 8.30167 66.5859 8.33026C66.9027 8.38745 67.1907 8.47324 67.3923 8.64482C67.6227 8.78779 67.7955 9.01656 67.9107 9.27392C68.0547 9.53128 68.1123 9.84584 68.1123 10.1604C68.1123 10.7037 67.9395 11.1898 67.5651 11.5616C67.2195 11.9333 66.5571 12.1335 65.6355 12.1335H63.9363V14.7929H63.1011V14.8215ZM63.9651 11.39H65.6643C66.2403 11.39 66.6147 11.2756 66.8739 11.0755C67.1043 10.8753 67.2195 10.5607 67.2195 10.189C67.2195 9.90303 67.1619 9.67426 67.0179 9.47409C66.8739 9.27392 66.7011 9.15954 66.4707 9.07375C66.3267 9.04516 66.0387 9.01656 65.6643 9.01656H63.9651V11.39Z" fill="white"/>
<path d="M68.7744 11.6187C68.7744 10.532 69.0624 9.67414 69.6672 9.07363C70.2432 8.44453 71.0208 8.15857 71.9424 8.15857C72.5472 8.15857 73.0944 8.30155 73.584 8.58751C74.0736 8.87346 74.448 9.2738 74.7072 9.78853C74.9664 10.3032 75.0816 10.9038 75.0816 11.5329C75.0816 12.1906 74.9376 12.7911 74.6784 13.3058C74.4192 13.8205 74.016 14.2209 73.5264 14.5068C73.0368 14.7642 72.4896 14.9072 71.9136 14.9072C71.28 14.9072 70.7328 14.7642 70.2432 14.4496C69.7536 14.1637 69.3792 13.7347 69.12 13.22C68.9184 12.7625 68.7744 12.2192 68.7744 11.6187ZM69.696 11.6472C69.696 12.4479 69.8976 13.0484 70.3296 13.506C70.7616 13.9635 71.28 14.1923 71.9424 14.1923C72.6048 14.1923 73.152 13.9635 73.5552 13.506C73.9872 13.0484 74.1888 12.3907 74.1888 11.5615C74.1888 11.0181 74.1024 10.5606 73.9296 10.1603C73.7568 9.75993 73.4688 9.44538 73.1232 9.24521C72.7776 9.01644 72.3744 8.93065 71.9424 8.93065C71.3376 8.93065 70.7904 9.13082 70.3584 9.55976C69.8976 9.9601 69.696 10.6464 69.696 11.6472Z" fill="white"/>
<path d="M76.2334 8.27296H77.0398V13.4488L80.5534 8.27296H81.4174V14.8214H80.6398V9.64556L77.1262 14.8214H76.2622V8.27296H76.2334ZM79.5166 6.7002H80.0638C80.0062 7.07194 79.891 7.3579 79.6606 7.55807C79.4302 7.75824 79.1134 7.84402 78.739 7.84402C78.3646 7.84402 78.0478 7.75824 77.8174 7.55807C77.587 7.3579 77.443 7.07194 77.4142 6.7002H77.9614C77.9902 6.90037 78.0766 7.04334 78.2206 7.15773C78.3358 7.24351 78.5086 7.30071 78.7102 7.30071C78.9406 7.30071 79.1422 7.24351 79.2574 7.15773C79.3726 7.07194 79.459 6.92896 79.5166 6.7002Z" fill="white"/>
<path d="M84.5282 14.8214V9.04503H82.3682V8.27295H87.6098V9.04503H85.421V14.8214H84.5282Z" fill="white"/>
<path d="M88.5024 14.8214V8.27295H93.2833V9.04503H89.3952V11.0467H93.0241V11.8188H89.3664V14.0493H93.4273V14.8214H88.5024Z" fill="white"/>
<path d="M97.1426 14.8215V8.27307H99.6194C100.138 8.27307 100.541 8.33026 100.829 8.47324C101.146 8.61622 101.376 8.81639 101.549 9.07375C101.722 9.35971 101.808 9.64567 101.808 9.93162C101.808 10.2176 101.722 10.4749 101.578 10.7323C101.434 10.9897 101.203 11.1898 100.887 11.3328C101.29 11.4472 101.607 11.6474 101.808 11.9333C102.01 12.2193 102.125 12.5338 102.125 12.9342C102.125 13.2487 102.067 13.5347 101.923 13.792C101.779 14.0494 101.635 14.2496 101.434 14.3926C101.232 14.5355 101.002 14.6499 100.714 14.7071C100.426 14.7929 100.08 14.8215 99.6482 14.8215H97.1426ZM98.0354 11.0183H99.4754C99.8498 11.0183 100.138 10.9897 100.311 10.9325C100.541 10.8753 100.714 10.7609 100.8 10.6179C100.887 10.4749 100.973 10.2748 100.973 10.046C100.973 9.81724 100.915 9.64567 100.829 9.47409C100.714 9.30252 100.57 9.18813 100.368 9.13094C100.167 9.07375 99.8498 9.04516 99.3602 9.04516H98.0354V11.0183ZM98.0354 14.0494H99.677C99.965 14.0494 100.167 14.0494 100.282 14.0208C100.483 13.9922 100.656 13.935 100.8 13.8492C100.944 13.7635 101.059 13.6491 101.146 13.4775C101.232 13.3059 101.29 13.1343 101.29 12.9342C101.29 12.6768 101.232 12.4766 101.088 12.3051C100.973 12.1335 100.8 11.9905 100.57 11.9333C100.339 11.8475 100.023 11.8189 99.5906 11.8189H98.0642V14.0494H98.0354Z" fill="white"/>
<path fill-rule="evenodd" clip-rule="evenodd" d="M29.0879 8.53052H17.1359C11.4911 8.53052 9.44629 10.5894 9.44629 16.1656V28.0328C9.44629 33.6376 11.5199 35.6679 17.1359 35.6679H29.0879C34.7327 35.6679 36.7775 33.609 36.7775 28.0328V16.1656C36.8063 10.5894 34.7327 8.53052 29.0879 8.53052Z" fill="#C7102D"/>
<path d="M14.8606 22.1134H15.5806V25.6593H14.8606V24.2295H13.219V25.6593H12.499V22.1134H13.219V23.5432H14.8606V22.1134ZM18.9502 24.1437C18.9502 24.7156 18.6622 25.0302 18.1438 25.0302C17.6254 25.0302 17.3374 24.7156 17.3374 24.1151V22.1134H16.6174V24.1437C16.6174 25.1446 17.1646 25.7165 18.1438 25.7165C19.123 25.7165 19.699 25.1446 19.699 24.1151V22.1134H18.979V24.1437H18.9502ZM27.331 24.544L26.5246 22.1134H25.9198L25.1134 24.544L24.3358 22.1134H23.5582L24.7966 25.6593H25.4014L26.2078 23.3144L27.0142 25.6593H27.619L28.8574 22.1134H28.1086L27.331 24.544ZM30.1822 24.1437H31.507V23.486H30.1822V22.7711H32.1118V22.1134H29.491V25.6593H32.1982V25.0016H30.211V24.1437H30.1822ZM33.0334 25.6593H33.7534V22.1134H33.0334V25.6593ZM21.1102 24.9158L20.7934 25.6593H20.0446L21.5998 22.1134H22.2334L23.7886 25.6593H23.0398L22.7518 24.9158H21.1102ZM21.3694 24.2867H22.4638L21.9166 23.0285L21.3694 24.2867Z" fill="white"/>
<path d="M23.1266 17.5954C20.621 17.5954 18.5762 15.5651 18.5762 13.0773H19.2098C19.2098 15.222 20.9666 16.9663 23.1266 16.9663C25.2866 16.9663 27.0434 15.222 27.0434 13.0773H27.677C27.677 15.5651 25.6322 17.5954 23.1266 17.5954Z" fill="white"/>
<rect x="0.5" y="1.16663" width="143" height="41.8936" rx="5.5" stroke="#A6A6A6"/>
</svg>
