<svg width="96" height="33" viewBox="0 0 96 33" fill="none" xmlns="http://www.w3.org/2000/svg">
<rect x="0.5" y="1.00537" width="95" height="31" rx="3.5" fill="#000B26"/>
<path d="M19.8706 16.746C19.8792 16.0782 20.0571 15.4235 20.3876 14.8428C20.7182 14.262 21.1907 13.7741 21.7611 13.4243C21.3987 12.9082 20.9206 12.4834 20.3648 12.1838C19.809 11.8842 19.1908 11.7179 18.5592 11.6982C17.2121 11.5572 15.9061 12.502 15.2196 12.502C14.5198 12.502 13.4628 11.7122 12.3247 11.7355C11.5885 11.7593 10.871 11.9727 10.2421 12.3552C9.61326 12.7376 9.09446 13.276 8.73629 13.9178C7.18475 16.5966 8.34206 20.5334 9.8283 22.6987C10.5719 23.759 11.441 24.9433 12.5781 24.9013C13.6909 24.8553 14.1065 24.1937 15.4497 24.1937C16.7804 24.1937 17.1703 24.9013 18.3305 24.8746C19.5246 24.8553 20.2769 23.8096 20.9944 22.7393C21.5287 21.9838 21.9398 21.1488 22.2125 20.2653C21.5188 19.9727 20.9268 19.483 20.5104 18.8571C20.0939 18.2313 19.8714 17.4971 19.8706 16.746Z" fill="white"/>
<path d="M17.6788 10.2742C18.3298 9.49482 18.6505 8.49307 18.5729 7.48169C17.5782 7.58587 16.6594 8.05991 15.9996 8.80938C15.677 9.17551 15.4299 9.60146 15.2725 10.0629C15.115 10.5243 15.0503 11.0121 15.0821 11.4985C15.5796 11.5036 16.0718 11.3961 16.5215 11.184C16.9713 10.9719 17.367 10.6608 17.6788 10.2742Z" fill="white"/>
<path d="M33.9368 22.2175H30.1395L29.2275 24.9026H27.6191L31.2159 14.9683H32.887L36.4838 24.9026H34.848L33.9368 22.2175ZM30.5328 20.9784H33.5428L32.0589 16.6206H32.0174L30.5328 20.9784Z" fill="white"/>
<path d="M44.2515 21.2814C44.2515 23.5322 43.0434 24.9783 41.2204 24.9783C40.7586 25.0024 40.2993 24.8963 39.8951 24.6722C39.4909 24.4481 39.1582 24.115 38.9351 23.7111H38.9006V27.2986H37.4097V17.6595H38.8528V18.8642H38.8802C39.1136 18.4622 39.452 18.1309 39.8592 17.9054C40.2665 17.6799 40.7274 17.5688 41.1929 17.5837C43.0364 17.5837 44.2515 19.0369 44.2515 21.2814ZM42.7191 21.2814C42.7191 19.815 41.9591 18.8509 40.7997 18.8509C39.6605 18.8509 38.8943 19.8353 38.8943 21.2814C38.8943 22.7408 39.6605 23.7181 40.7997 23.7181C41.9592 23.7181 42.7191 22.7611 42.7191 21.2814Z" fill="white"/>
<path d="M52.2461 21.2814C52.2461 23.5322 51.0381 24.9783 49.215 24.9783C48.7532 25.0024 48.2939 24.8963 47.8897 24.6722C47.4856 24.4481 47.1528 24.115 46.9297 23.7111H46.8952V27.2986H45.4043V17.6595H46.8474V18.8642H46.8748C47.1082 18.4622 47.4466 18.1309 47.8538 17.9054C48.2611 17.6799 48.722 17.5688 49.1875 17.5837C51.031 17.5837 52.2461 19.0369 52.2461 21.2814ZM50.7137 21.2814C50.7137 19.815 49.9538 18.8509 48.7943 18.8509C47.6552 18.8509 46.8889 19.8353 46.8889 21.2814C46.8889 22.7408 47.6552 23.7181 48.7943 23.7181C49.9538 23.7181 50.7137 22.7611 50.7137 21.2814H50.7137Z" fill="white"/>
<path d="M57.5291 22.1346C57.6396 23.1197 58.5993 23.7666 59.9108 23.7666C61.1674 23.7666 62.0715 23.1197 62.0715 22.2314C62.0715 21.4603 61.5262 20.9986 60.2351 20.6822L58.944 20.372C57.1147 19.9314 56.2654 19.0783 56.2654 17.6939C56.2654 15.9798 57.7634 14.8025 59.8904 14.8025C61.9955 14.8025 63.4386 15.9798 63.4872 17.6939H61.9822C61.8921 16.7025 61.0702 16.1041 59.8692 16.1041C58.6682 16.1041 57.8464 16.7095 57.8464 17.5908C57.8464 18.2931 58.3713 18.7064 59.6553 19.0228L60.7529 19.2915C62.7969 19.7736 63.6462 20.5923 63.6462 22.0454C63.6462 23.904 62.1616 25.0681 59.8003 25.0681C57.591 25.0681 56.0993 23.9314 56.0029 22.1345L57.5291 22.1346Z" fill="white"/>
<path d="M66.8636 15.9456V17.6596H68.2449V18.837H66.8636V22.8299C66.8636 23.4502 67.1402 23.7393 67.7474 23.7393C67.9113 23.7365 68.075 23.725 68.2378 23.7049V24.8752C67.9648 24.9261 67.6874 24.9491 67.4097 24.944C65.9392 24.944 65.3657 24.3932 65.3657 22.9885V18.837H64.3096V17.6596H65.3656V15.9456H66.8636Z" fill="white"/>
<path d="M69.0449 21.2815C69.0449 19.0026 70.3909 17.5706 72.4897 17.5706C74.5956 17.5706 75.9353 19.0026 75.9353 21.2815C75.9353 23.5667 74.6027 24.9924 72.4897 24.9924C70.3775 24.9924 69.0449 23.5666 69.0449 21.2815ZM74.4162 21.2815C74.4162 19.7182 73.6978 18.7956 72.4897 18.7956C71.2816 18.7956 70.564 19.7252 70.564 21.2815C70.564 22.851 71.2816 23.7667 72.4897 23.7667C73.6978 23.7667 74.4162 22.851 74.4162 21.2815H74.4162Z" fill="white"/>
<path d="M77.165 17.6596H78.587V18.8924H78.6215C78.7177 18.5073 78.9439 18.1671 79.262 17.9288C79.5802 17.6905 79.9709 17.5686 80.3685 17.5838C80.5404 17.5832 80.7117 17.6018 80.8793 17.6393V19.0299C80.6624 18.9638 80.4362 18.9334 80.2095 18.94C79.9929 18.9313 79.777 18.9694 79.5765 19.0517C79.3761 19.134 79.1959 19.2586 79.0483 19.4169C78.9007 19.5752 78.7892 19.7635 78.7215 19.9688C78.6538 20.1741 78.6314 20.3917 78.6559 20.6064V24.9025H77.165L77.165 17.6596Z" fill="white"/>
<path d="M87.7527 22.7752C87.5521 24.0901 86.268 24.9924 84.6251 24.9924C82.5122 24.9924 81.2007 23.5807 81.2007 21.3159C81.2007 19.044 82.5192 17.5706 84.5625 17.5706C86.572 17.5706 87.8357 18.9471 87.8357 21.1432V21.6526H82.7057V21.7424C82.682 22.009 82.7155 22.2775 82.8039 22.5302C82.8923 22.7829 83.0336 23.0139 83.2184 23.2079C83.4032 23.402 83.6272 23.5546 83.8757 23.6556C84.1242 23.7567 84.3914 23.8038 84.6596 23.794C85.0119 23.8269 85.3655 23.7455 85.6677 23.562C85.9699 23.3784 86.2047 23.1025 86.337 22.7752L87.7527 22.7752ZM82.7127 20.6135H86.344C86.3574 20.3738 86.321 20.134 86.237 19.909C86.153 19.6841 86.0233 19.4788 85.856 19.3062C85.6887 19.1336 85.4875 18.9973 85.2649 18.906C85.0423 18.8146 84.8031 18.7701 84.5625 18.7752C84.3197 18.7738 84.079 18.8203 83.8543 18.9121C83.6297 19.0039 83.4255 19.1392 83.2535 19.3101C83.0815 19.481 82.9452 19.6841 82.8524 19.9079C82.7596 20.1316 82.7121 20.3714 82.7127 20.6135V20.6135Z" fill="white"/>
<path d="M29.4732 9.50804H30.1133C30.2235 9.52172 30.3353 9.51249 30.4417 9.48094C30.5482 9.44938 30.6469 9.39618 30.7317 9.32469C30.8165 9.2532 30.8855 9.16497 30.9344 9.06556C30.9833 8.96616 31.011 8.85772 31.0158 8.7471C31.0158 8.30687 30.6836 8.02249 30.1203 8.02249C30.0075 8.00676 29.8926 8.01375 29.7824 8.04303C29.6723 8.07232 29.5692 8.12331 29.4791 8.19301C29.3891 8.2627 29.3139 8.34968 29.2582 8.4488C29.2024 8.54793 29.1671 8.65719 29.1544 8.77015H28.4516C28.4637 8.56511 28.518 8.36475 28.6111 8.18154C28.7042 7.99833 28.8341 7.83619 28.9928 7.70523C29.1515 7.57427 29.3355 7.47728 29.5334 7.4203C29.7313 7.36332 29.9388 7.34758 30.143 7.37405C31.0855 7.37405 31.7491 7.90022 31.7491 8.65764C31.7513 8.91139 31.6662 9.15821 31.5079 9.35691C31.3497 9.55561 31.1279 9.69416 30.8795 9.74944V9.80569C31.1739 9.81871 31.4512 9.94745 31.6507 10.1638C31.8502 10.3801 31.9557 10.6663 31.9442 10.96C31.9224 11.1711 31.8586 11.3758 31.7565 11.5619C31.6543 11.7481 31.5159 11.9121 31.3494 12.0443C31.1829 12.1765 30.9916 12.2742 30.7868 12.3317C30.5819 12.3892 30.3676 12.4053 30.1564 12.3791C29.9448 12.4079 29.7295 12.3939 29.5234 12.3379C29.3173 12.282 29.1246 12.1852 28.9568 12.0534C28.789 11.9216 28.6496 11.7574 28.5468 11.5707C28.4439 11.384 28.3799 11.1786 28.3584 10.9666H29.0721C29.1152 11.4233 29.5359 11.7178 30.1564 11.7178C30.7769 11.7178 31.1819 11.387 31.1819 10.9206C31.1819 10.4475 30.8004 10.1561 30.1337 10.1561H29.4732V9.50804Z" fill="white"/>
<path d="M32.7549 11.2447C32.7549 10.5962 33.2398 10.2224 34.0985 10.1693L35.077 10.113V9.8021C35.077 9.42163 34.8255 9.20679 34.3374 9.20679C33.9395 9.20679 33.6645 9.35249 33.5846 9.60718H32.8943C32.9672 8.98843 33.5517 8.59155 34.3711 8.59155C35.2768 8.59155 35.7876 9.04115 35.7876 9.8021V12.2634H35.1005V11.7572H35.0441C34.9296 11.9388 34.7688 12.0868 34.5782 12.1862C34.3876 12.2855 34.1739 12.3327 33.959 12.3228C33.8074 12.3385 33.6541 12.3224 33.5091 12.2754C33.3641 12.2285 33.2305 12.1517 33.1171 12.0501C33.0036 11.9486 32.9128 11.8244 32.8504 11.6857C32.788 11.5469 32.7555 11.3967 32.7549 11.2447ZM35.077 10.9369V10.6357L34.1948 10.6919C33.6973 10.7251 33.4717 10.8939 33.4717 11.2115C33.4717 11.5357 33.7537 11.7244 34.1416 11.7244C34.2552 11.7358 34.37 11.7244 34.4791 11.6907C34.5882 11.6571 34.6894 11.6018 34.7767 11.5284C34.864 11.4549 34.9356 11.3647 34.9871 11.263C35.0387 11.1614 35.0693 11.0505 35.077 10.9369Z" fill="white"/>
<path d="M37.6797 9.2597V12.2636H36.9668V8.66125H39.3454V9.25965L37.6797 9.2597Z" fill="white"/>
<path d="M43.6665 10.4609C43.6665 11.6055 43.0859 12.323 42.174 12.323C41.9502 12.3383 41.7266 12.2894 41.5296 12.1822C41.3327 12.075 41.1706 11.914 41.0623 11.718H41.0059V13.4613H40.293V8.66132H40.9793V9.25666H41.0325C41.1427 9.05381 41.307 8.88528 41.5072 8.76968C41.7074 8.65407 41.9357 8.5959 42.167 8.60158C43.0859 8.60155 43.6665 9.316 43.6665 10.4609ZM42.9332 10.4609C42.9332 9.69999 42.572 9.24022 41.968 9.24022C41.3679 9.24022 40.9926 9.70975 40.9926 10.4641C40.9926 11.2148 41.3679 11.6848 41.9648 11.6848C42.572 11.6848 42.9332 11.225 42.9332 10.4609Z" fill="white"/>
<path d="M44.6158 13.5538V12.9417C44.693 12.9515 44.7707 12.9559 44.8485 12.955C45.0003 12.9662 45.151 12.9211 45.2716 12.8283C45.3922 12.7356 45.4742 12.6016 45.5018 12.4523L45.5551 12.2769L44.2476 8.66125H45.0239L45.9296 11.5226H45.986L46.8886 8.66125H47.6446L46.2979 12.4124C45.9892 13.289 45.6476 13.5702 44.9112 13.5702C44.8516 13.5702 44.6824 13.5636 44.6158 13.5538Z" fill="white"/>
<path d="M48.1997 11.2411H48.9095C48.9792 11.5587 49.2777 11.7243 49.6953 11.7243C50.1701 11.7243 50.4615 11.5157 50.4615 11.1915C50.4615 10.8443 50.1998 10.6786 49.6953 10.6786H49.1547V10.1263H49.6859C50.1168 10.1263 50.3362 9.96106 50.3362 9.65989C50.3362 9.39543 50.1238 9.19349 49.6859 9.19349C49.2871 9.19349 48.9957 9.36224 48.9494 9.64662H48.2624C48.3138 9.31985 48.4917 9.02624 48.7579 8.82893C49.0241 8.63162 49.3573 8.54638 49.6859 8.59154C50.5446 8.59154 51.0358 8.97865 51.0358 9.58724C51.0398 9.75672 50.9853 9.92243 50.8815 10.0567C50.7777 10.1909 50.6308 10.2855 50.4654 10.3247V10.381C50.6623 10.4063 50.8431 10.5028 50.9733 10.6523C51.1036 10.8017 51.1743 10.9936 51.1721 11.1915C51.1721 11.8763 50.5876 12.3294 49.6953 12.3294C48.9064 12.3294 48.2655 11.9689 48.1997 11.2411Z" fill="white"/>
<path d="M52.1992 12.2636V8.66125H52.9059V11.139H52.9623L54.6271 8.66126H55.3338V12.2636H54.6271V9.7726H54.5738L52.9059 12.2636L52.1992 12.2636Z" fill="white"/>
<path d="M59.2262 9.25966H58.0886V12.2636H57.3749V9.25966H56.2373V8.66125H59.2262V9.25966Z" fill="white"/>
<path d="M63.0666 11.2908C62.9695 11.6201 62.7595 11.9048 62.4732 12.0953C62.1869 12.2858 61.8427 12.3699 61.5005 12.333C61.2625 12.3393 61.026 12.2938 60.8074 12.1998C60.5888 12.1058 60.3933 11.9654 60.2346 11.7885C60.0758 11.6116 59.9575 11.4024 59.888 11.1753C59.8184 10.9483 59.7993 10.7088 59.8318 10.4736C59.8001 10.2377 59.8196 9.99779 59.889 9.77005C59.9584 9.54231 60.076 9.3321 60.234 9.15364C60.3919 8.97518 60.5864 8.83265 60.8044 8.73568C61.0224 8.63872 61.2587 8.58958 61.4974 8.59161C62.5026 8.59161 63.1097 9.27641 63.1097 10.4076V10.6557H60.5589V10.6955C60.5476 10.8278 60.5641 10.9609 60.6075 11.0863C60.6509 11.2118 60.7201 11.3268 60.8107 11.424C60.9013 11.5212 61.0113 11.5984 61.1336 11.6507C61.2559 11.703 61.3878 11.7291 61.5209 11.7275C61.6913 11.7479 61.864 11.7172 62.0169 11.6394C62.1698 11.5617 62.296 11.4403 62.3796 11.2908L63.0666 11.2908ZM60.5588 10.1299H62.3827C62.3917 10.0091 62.3752 9.88768 62.3344 9.77354C62.2936 9.65941 62.2293 9.55506 62.1456 9.46718C62.062 9.3793 61.9608 9.30984 61.8486 9.26326C61.7364 9.21668 61.6157 9.19401 61.4943 9.1967C61.3709 9.19503 61.2485 9.21803 61.1342 9.26434C61.0199 9.31065 60.9161 9.37933 60.8289 9.46632C60.7417 9.55332 60.6729 9.65687 60.6265 9.77084C60.5801 9.88482 60.5571 10.0069 60.5589 10.1299H60.5588Z" fill="white"/>
<path d="M66.0894 8.66125H67.7181C68.4248 8.66125 68.8393 9.01829 68.8393 9.57725C68.8404 9.75462 68.7803 9.92698 68.6692 10.0655C68.5581 10.204 68.4027 10.3003 68.229 10.3382V10.3944C68.4399 10.4077 68.6377 10.5013 68.7815 10.6559C68.9252 10.8104 69.004 11.0141 69.0014 11.2249C69.0014 11.8534 68.5274 12.2636 67.7346 12.2636H66.0894V8.66125ZM66.796 9.20696V10.1398H67.5027C67.9336 10.1398 68.1396 9.97453 68.1396 9.66984C68.1396 9.38898 67.9602 9.20695 67.5818 9.20695L66.796 9.20696ZM66.796 10.6624V11.7179H67.6414C68.0629 11.7179 68.2885 11.5324 68.2885 11.1917C68.2885 10.8312 68.0331 10.6624 67.5521 10.6624L66.796 10.6624Z" fill="white"/>
<rect x="0.5" y="1.00537" width="95" height="31" rx="3.5" stroke="#A6A6A6"/>
</svg>
