<svg width="108" height="33" viewBox="0 0 108 33" fill="none" xmlns="http://www.w3.org/2000/svg">
<rect x="1.07129" y="1.00537" width="106.429" height="31" rx="3.5" fill="#000B26"/>
<path d="M34.1963 24.5053L37.8489 15.0333H39.2025L43.1129 24.5053H41.6733L40.5561 21.6467H36.5597L35.5069 24.5053H34.1963ZM36.9465 20.6227H40.1693L39.181 17.9987C38.8802 17.2093 38.6438 16.548 38.5149 16.036C38.386 16.6333 38.2141 17.252 37.9993 17.8493L36.9465 20.6227Z" fill="black"/>
<path d="M43.9722 27.1292V17.6359H45.0465V18.5319C45.3043 18.1906 45.5836 17.9132 45.9059 17.7426C46.2282 17.5719 46.6149 17.4866 47.0661 17.4866C47.6462 17.4866 48.1834 17.6359 48.6346 17.9346C49.0858 18.2332 49.4295 18.6599 49.6659 19.2146C49.9022 19.7692 50.0096 20.3666 50.0096 21.0279C50.0096 21.7319 49.8807 22.3719 49.6229 22.9266C49.3651 23.4812 48.9998 23.9292 48.5271 24.2279C48.0544 24.5266 47.5388 24.6759 47.0017 24.6759C46.6149 24.6759 46.2711 24.5906 45.9489 24.4199C45.6481 24.2492 45.3902 24.0572 45.1754 23.8012V27.1506H43.9722V27.1292ZM45.025 21.1132C45.025 21.9879 45.1969 22.6492 45.5621 23.0759C45.9274 23.5026 46.3571 23.7159 46.8727 23.7159C47.3884 23.7159 47.8396 23.5026 48.2048 23.0546C48.5701 22.6279 48.7635 21.9452 48.7635 21.0279C48.7635 20.1532 48.5916 19.4919 48.2263 19.0652C47.8611 18.6386 47.4314 18.4039 46.9372 18.4039C46.443 18.4039 45.9918 18.6386 45.6051 19.1079C45.2183 19.5559 45.025 20.2386 45.025 21.1132Z" fill="black"/>
<path d="M51.3848 27.1292V17.6359H52.4591V18.5319C52.7169 18.1906 52.9962 17.9132 53.3185 17.7426C53.6408 17.5719 54.0275 17.4866 54.4787 17.4866C55.0588 17.4866 55.596 17.6359 56.0472 17.9346C56.4984 18.2332 56.8421 18.6599 57.0785 19.2146C57.3148 19.7692 57.4223 20.3666 57.4223 21.0279C57.4223 21.7319 57.2933 22.3719 57.0355 22.9266C56.7777 23.4812 56.4124 23.9292 55.9397 24.2279C55.4456 24.5266 54.9514 24.6759 54.4143 24.6759C54.0275 24.6759 53.6837 24.5906 53.3615 24.4199C53.0607 24.2492 52.8028 24.0572 52.588 23.8012V27.1506H51.3848V27.1292ZM52.4376 21.1132C52.4376 21.9879 52.6095 22.6492 52.9747 23.0759C53.34 23.5026 53.7697 23.7159 54.2853 23.7159C54.801 23.7159 55.2522 23.5026 55.6175 23.0546C55.9827 22.6279 56.1761 21.9452 56.1761 21.0279C56.1761 20.1532 56.0042 19.4919 55.6389 19.0652C55.2737 18.6386 54.844 18.4039 54.3498 18.4039C53.8556 18.4039 53.4044 18.6386 53.0177 19.1079C52.6309 19.5559 52.4376 20.2386 52.4376 21.1132Z" fill="black"/>
<path d="M63.3953 20.7934V19.6841H67.4346V23.2041C66.8115 23.6947 66.167 24.0574 65.5224 24.3134C64.8778 24.5694 64.1903 24.6761 63.5027 24.6761C62.5574 24.6761 61.7194 24.4841 60.9459 24.0787C60.1725 23.6734 59.5923 23.0974 59.2056 22.3507C58.8189 21.6041 58.6255 20.7507 58.6255 19.8334C58.6255 18.9161 58.8189 18.0414 59.2056 17.2521C59.5923 16.4627 60.151 15.8654 60.8815 15.4814C61.612 15.0974 62.4499 14.9054 63.3953 14.9054C64.0828 14.9054 64.7059 15.0121 65.2646 15.2467C65.8232 15.4601 66.2529 15.7801 66.5752 16.1641C66.8975 16.5694 67.1338 17.0814 67.3057 17.7214L66.167 18.0414C66.0166 17.5507 65.8447 17.1881 65.6298 16.9107C65.415 16.6334 65.1142 16.4201 64.7274 16.2494C64.3407 16.0787 63.8895 15.9934 63.4168 15.9934C62.8367 15.9934 62.3425 16.0787 61.9128 16.2494C61.4831 16.4201 61.1608 16.6547 60.903 16.9321C60.6451 17.2094 60.4518 17.5294 60.3014 17.8707C60.065 18.4467 59.9361 19.0867 59.9361 19.7694C59.9361 20.6227 60.0865 21.3267 60.3658 21.8814C60.6666 22.4574 61.0749 22.8627 61.6335 23.1401C62.1921 23.4174 62.7937 23.5454 63.4168 23.5454C63.9539 23.5454 64.4911 23.4387 65.0067 23.2254C65.5224 23.0121 65.9306 22.7987 66.1884 22.5641V20.7934H63.3953Z" fill="black"/>
<path d="M73.6654 23.6521C73.2356 24.0148 72.8059 24.2708 72.4192 24.4201C72.0109 24.5694 71.5812 24.6548 71.13 24.6548C70.378 24.6548 69.7979 24.4628 69.3897 24.1001C68.9815 23.7374 68.7881 23.2681 68.7881 22.6921C68.7881 22.3508 68.874 22.0521 69.0244 21.7748C69.1748 21.4974 69.3897 21.2841 69.626 21.1134C69.8839 20.9428 70.1632 20.8148 70.464 20.7294C70.7003 20.6654 71.0441 20.6014 71.4953 20.5588C72.4407 20.4521 73.1282 20.3028 73.5794 20.1534C73.5794 20.0041 73.5794 19.8974 73.5794 19.8548C73.5794 19.3854 73.472 19.0441 73.2571 18.8521C72.9563 18.5961 72.5051 18.4681 71.925 18.4681C71.3664 18.4681 70.9581 18.5534 70.7003 18.7454C70.4425 18.9374 70.2491 19.2788 70.1202 19.7694L68.9815 19.6201C69.0889 19.1294 69.2608 18.7454 69.4971 18.4468C69.7335 18.1481 70.0772 17.9134 70.5284 17.7641C70.9796 17.5934 71.4953 17.5294 72.0969 17.5294C72.677 17.5294 73.1712 17.5934 73.5364 17.7428C73.9017 17.8708 74.181 18.0628 74.3529 18.2548C74.5248 18.4681 74.6537 18.7241 74.7182 19.0441C74.7611 19.2361 74.7826 19.5988 74.7826 20.1108V21.6254C74.7826 22.7134 74.8041 23.3961 74.8471 23.6734C74.89 23.9508 74.9975 24.2281 75.1479 24.5054H73.9232C73.7728 24.2708 73.6868 23.9721 73.6654 23.6521ZM73.5579 21.0708C73.1282 21.2414 72.5051 21.3908 71.6457 21.5188C71.173 21.5828 70.8292 21.6681 70.6144 21.7534C70.421 21.8388 70.2706 21.9668 70.1632 22.1374C70.0557 22.3081 69.9913 22.4788 69.9913 22.6921C69.9913 23.0121 70.0987 23.2681 70.3351 23.4601C70.5714 23.6521 70.9152 23.7801 71.3664 23.7801C71.8176 23.7801 72.2258 23.6734 72.5696 23.4814C72.9133 23.2894 73.1712 23.0121 73.3431 22.6708C73.472 22.4148 73.5364 22.0308 73.5364 21.5188V21.0708H73.5579Z" fill="black"/>
<path d="M76.5449 24.5053V15.0333H77.7051V24.5053H76.5449Z" fill="black"/>
<path d="M79.4883 24.5053V15.0333H80.6485V24.5053H79.4883Z" fill="black"/>
<path d="M87.2015 22.2866L88.4047 22.4359C88.2113 23.1399 87.8675 23.6732 87.3519 24.0786C86.8362 24.4626 86.1702 24.6546 85.3752 24.6546C84.3654 24.6546 83.5704 24.3559 82.9688 23.7372C82.3672 23.1186 82.0879 22.2439 82.0879 21.1346C82.0879 19.9826 82.3887 19.0866 82.9903 18.4466C83.5919 17.8066 84.3654 17.4866 85.3107 17.4866C86.2346 17.4866 86.9866 17.8066 87.5667 18.4252C88.1469 19.0439 88.4477 19.9186 88.4477 21.0706C88.4477 21.1346 88.4477 21.2412 88.4477 21.3906H83.2911C83.3341 22.1372 83.5489 22.7132 83.9357 23.1186C84.3224 23.5239 84.7951 23.7159 85.3752 23.7159C85.8049 23.7159 86.1702 23.6092 86.471 23.3746C86.7933 23.1399 87.0296 22.7772 87.2015 22.2866ZM83.3555 20.4092H87.223C87.18 19.8332 87.0296 19.4066 86.7718 19.1079C86.4065 18.6599 85.9123 18.4466 85.3107 18.4466C84.7736 18.4466 84.3224 18.6172 83.9571 18.9799C83.5919 19.3426 83.3985 19.8119 83.3555 20.4092Z" fill="black"/>
<path d="M89.8657 24.5052V17.6359H90.9185V18.6812C91.1978 18.1906 91.4342 17.8706 91.6705 17.7212C91.9069 17.5719 92.1432 17.4866 92.4225 17.4866C92.8093 17.4866 93.2175 17.6146 93.6257 17.8706L93.2175 18.9586C92.9382 18.7879 92.6374 18.7026 92.3581 18.7026C92.1002 18.7026 91.8639 18.7879 91.6705 18.9372C91.4772 19.0866 91.3268 19.2999 91.2408 19.5772C91.1119 19.9826 91.0474 20.4519 91.0474 20.9426V24.5266H89.8657V24.5052Z" fill="black"/>
<path d="M94.2706 27.1508L94.1416 26.0628C94.3995 26.1268 94.6143 26.1695 94.8077 26.1695C95.0655 26.1695 95.2804 26.1268 95.4308 26.0415C95.5812 25.9561 95.7101 25.8281 95.8175 25.6788C95.882 25.5721 96.0109 25.2735 96.1828 24.8041C96.2043 24.7401 96.2472 24.6548 96.2902 24.5268L93.6689 17.6575H94.9366L96.3762 21.6255C96.5695 22.1375 96.7199 22.6495 96.8703 23.2041C96.9993 22.6708 97.1711 22.1588 97.343 21.6468L98.8255 17.6575H99.9858L97.3645 24.6121C97.0852 25.3588 96.8703 25.8921 96.6984 26.1695C96.4836 26.5535 96.2472 26.8308 95.9894 27.0228C95.7101 27.1935 95.4093 27.3001 95.0226 27.3001C94.8077 27.2788 94.5499 27.2361 94.2706 27.1508Z" fill="black"/>
<path d="M33.8955 8.67594C33.8955 7.86527 34.1104 7.22527 34.5616 6.77727C34.9913 6.30794 35.5714 6.0946 36.2589 6.0946C36.7101 6.0946 37.1184 6.20127 37.4836 6.4146C37.8489 6.62794 38.1282 6.9266 38.3216 7.31061C38.5149 7.69461 38.6009 8.14261 38.6009 8.61194C38.6009 9.10261 38.4935 9.55061 38.3001 9.93461C38.1067 10.3186 37.8059 10.6173 37.4407 10.8306C37.0754 11.0226 36.6672 11.1293 36.2375 11.1293C35.7648 11.1293 35.3565 11.0226 34.9913 10.7879C34.626 10.5746 34.3467 10.2546 34.1533 9.87061C33.9815 9.52927 33.8955 9.12394 33.8955 8.67594ZM34.5616 8.69727C34.5616 9.29461 34.712 9.74261 35.0343 10.0839C35.3565 10.4253 35.7433 10.5959 36.2375 10.5959C36.7316 10.5959 37.1399 10.4253 37.4407 10.0839C37.7629 9.74261 37.9133 9.25194 37.9133 8.63327C37.9133 8.22794 37.8489 7.88661 37.72 7.58794C37.5911 7.28927 37.3762 7.05461 37.1184 6.90527C36.8605 6.75594 36.5597 6.6706 36.2375 6.6706C35.7863 6.6706 35.378 6.81994 35.0557 7.13994C34.7335 7.43861 34.5616 7.95061 34.5616 8.69727Z" fill="black"/>
<path d="M40.7066 11.0654V6.75605H39.0952V6.18005H43.0056V6.75605H41.3727V11.0654H40.7066Z" fill="black"/>
<path d="M43.6504 6.18002H44.295V8.31336C44.5958 8.31336 44.8106 8.24936 44.918 8.14269C45.047 8.03603 45.1974 7.75869 45.3907 7.31069C45.5197 6.99069 45.6486 6.75603 45.7345 6.62803C45.8205 6.50002 45.9494 6.39336 46.1213 6.28669C46.2931 6.20136 46.465 6.15869 46.6584 6.15869C46.9162 6.15869 47.0451 6.15869 47.0451 6.15869V6.71336C47.0237 6.71336 46.9807 6.71336 46.9162 6.71336C46.8518 6.71336 46.8088 6.71336 46.7873 6.71336C46.5725 6.71336 46.4221 6.75602 46.3146 6.86269C46.2072 6.96936 46.0998 7.18269 45.9709 7.50269C45.799 7.90803 45.6701 8.18536 45.5411 8.29203C45.4337 8.39869 45.2833 8.48403 45.1329 8.54803C45.4552 8.63336 45.756 8.93203 46.0783 9.42269L47.0881 11.044H46.2717L45.4552 9.72136C45.2188 9.35869 45.047 9.10269 44.8966 8.97469C44.7462 8.84669 44.5528 8.76136 44.295 8.76136V11.044H43.6504V6.18002Z" fill="black"/>
<path d="M47.6465 11.0654V6.18005H49.4942C49.8165 6.18005 50.0744 6.20139 50.2462 6.22272C50.4826 6.26539 50.6974 6.32939 50.8478 6.45739C51.0197 6.56405 51.1486 6.73472 51.2346 6.92672C51.342 7.11872 51.385 7.35339 51.385 7.58805C51.385 7.99339 51.2561 8.35605 50.9768 8.63339C50.7189 8.91072 50.2248 9.06005 49.5372 9.06005H48.2696V11.0441H47.6465V11.0654ZM48.2911 8.50539H49.5587C49.9884 8.50539 50.2677 8.42005 50.4611 8.27072C50.633 8.12139 50.7189 7.88672 50.7189 7.60939C50.7189 7.39605 50.676 7.22539 50.5685 7.07605C50.4611 6.92672 50.3322 6.84139 50.1603 6.77739C50.0529 6.75605 49.838 6.73472 49.5587 6.73472H48.2911V8.50539Z" fill="black"/>
<path d="M51.8789 8.67606C51.8789 7.86539 52.0938 7.22539 52.545 6.77739C52.9747 6.30806 53.5548 6.09473 54.2423 6.09473C54.6935 6.09473 55.1018 6.20139 55.467 6.41473C55.8323 6.62806 56.1116 6.92673 56.305 7.31073C56.4983 7.69473 56.5843 8.14273 56.5843 8.61206C56.5843 9.10273 56.4768 9.55073 56.2835 9.93473C56.0901 10.3187 55.7893 10.6174 55.4241 10.8307C55.0588 11.0227 54.6506 11.1294 54.2208 11.1294C53.7482 11.1294 53.3399 11.0227 52.9747 10.7881C52.6094 10.5747 52.3301 10.2547 52.1367 9.87073C51.9863 9.52939 51.8789 9.12406 51.8789 8.67606ZM52.5664 8.69739C52.5664 9.29473 52.7168 9.74273 53.0391 10.0841C53.3614 10.4254 53.7482 10.5961 54.2423 10.5961C54.7365 10.5961 55.1447 10.4254 55.4455 10.0841C55.7678 9.74273 55.9182 9.25206 55.9182 8.63339C55.9182 8.22806 55.8538 7.88673 55.7249 7.58806C55.5959 7.28939 55.3811 7.05473 55.1232 6.90539C54.8654 6.73473 54.5646 6.67073 54.2423 6.67073C53.7911 6.67073 53.3829 6.82006 53.0606 7.14006C52.7168 7.43873 52.5664 7.95073 52.5664 8.69739Z" fill="black"/>
<path d="M57.4438 6.17993H58.0454V10.0413L60.6667 6.17993H61.3113V11.0653H60.7312V7.20393L58.1099 11.0653H57.4653V6.17993H57.4438ZM59.8932 5.00659H60.3014C60.2585 5.28393 60.1725 5.49726 60.0006 5.64659C59.8288 5.79593 59.5924 5.85993 59.3131 5.85993C59.0338 5.85993 58.7974 5.79593 58.6256 5.64659C58.4537 5.49726 58.3462 5.28393 58.3248 5.00659H58.733C58.7545 5.15593 58.8189 5.26259 58.9264 5.34793C59.0123 5.41193 59.1412 5.45459 59.2916 5.45459C59.4635 5.45459 59.6139 5.41193 59.6998 5.34793C59.7858 5.28393 59.8502 5.17726 59.8932 5.00659Z" fill="black"/>
<path d="M63.6319 11.0653V6.75593H62.0205V6.17993H65.9309V6.75593H64.298V11.0653H63.6319Z" fill="black"/>
<path d="M66.5962 11.0653V6.17993H70.1629V6.75593H67.2623V8.24927H69.9695V8.82527H67.2408V10.4893H70.2703V11.0653H66.5962Z" fill="black"/>
<path d="M73.0425 11.0653V6.17993H74.8902C75.277 6.17993 75.5778 6.2226 75.7926 6.32926C76.029 6.43593 76.2009 6.58526 76.3298 6.77726C76.4587 6.9906 76.5231 7.20393 76.5231 7.41727C76.5231 7.6306 76.4587 7.8226 76.3513 8.0146C76.2438 8.2066 76.0719 8.35593 75.8356 8.4626C76.1364 8.54793 76.3727 8.69727 76.5231 8.9106C76.6735 9.12393 76.7595 9.3586 76.7595 9.65727C76.7595 9.89193 76.7165 10.1053 76.6091 10.2973C76.5017 10.4893 76.3942 10.6386 76.2438 10.7453C76.0934 10.8519 75.9216 10.9373 75.7067 10.9799C75.4918 11.0439 75.234 11.0653 74.9117 11.0653H73.0425ZM73.7085 8.22793H74.7828C75.0621 8.22793 75.277 8.2066 75.4059 8.16393C75.5778 8.12127 75.7067 8.03593 75.7712 7.92926C75.8356 7.8226 75.9001 7.67326 75.9001 7.5026C75.9001 7.33193 75.8571 7.20393 75.7926 7.07593C75.7067 6.94793 75.5993 6.8626 75.4489 6.81993C75.2985 6.77727 75.0621 6.75593 74.6969 6.75593H73.7085V8.22793ZM73.7085 10.4893H74.9332C75.1481 10.4893 75.2985 10.4893 75.3844 10.4679C75.5348 10.4466 75.6637 10.4039 75.7712 10.3399C75.8786 10.2759 75.9645 10.1906 76.029 10.0626C76.0934 9.9346 76.1364 9.8066 76.1364 9.65727C76.1364 9.46527 76.0934 9.31593 75.986 9.18793C75.9001 9.05993 75.7712 8.95327 75.5993 8.9106C75.4274 8.8466 75.191 8.82526 74.8688 8.82526H73.73V10.4893H73.7085Z" fill="black"/>
<path fill-rule="evenodd" clip-rule="evenodd" d="M22.2719 6.37207H13.3553C9.14414 6.37207 7.61865 7.90807 7.61865 12.0681V20.9214C7.61865 25.1027 9.16562 26.6174 13.3553 26.6174H22.2719C26.4831 26.6174 28.0086 25.0814 28.0086 20.9214V12.0681C28.0301 7.90807 26.4831 6.37207 22.2719 6.37207Z" fill="#C7102D"/>
<path d="M11.6583 16.5054H12.1955V19.1507H11.6583V18.084H10.4336V19.1507H9.89648V16.5054H10.4336V17.572H11.6583V16.5054ZM14.7093 18.02C14.7093 18.4467 14.4944 18.6814 14.1077 18.6814C13.7209 18.6814 13.5061 18.4467 13.5061 17.9987V16.5054H12.9689V18.02C12.9689 18.7667 13.3772 19.1934 14.1077 19.1934C14.8382 19.1934 15.2679 18.7667 15.2679 17.9987V16.5054H14.7308V18.02H14.7093ZM20.9616 18.3187L20.36 16.5054H19.9088L19.3072 18.3187L18.7271 16.5054H18.147L19.0709 19.1507H19.5221L20.1237 17.4014L20.7253 19.1507H21.1765L22.1004 16.5054H21.5417L20.9616 18.3187ZM23.0887 18.02H24.0771V17.5294H23.0887V16.996H24.5283V16.5054H22.5731V19.1507H24.5927V18.66H23.1102V18.02H23.0887ZM25.2158 19.1507H25.7529V16.5054H25.2158V19.1507ZM16.3207 18.596L16.0844 19.1507H15.5257L16.686 16.5054H17.1587L18.3189 19.1507H17.7603L17.5454 18.596H16.3207ZM16.5141 18.1267H17.3305L16.9223 17.188L16.5141 18.1267Z" fill="white"/>
<path d="M17.8244 13.1347C15.9552 13.1347 14.4297 11.62 14.4297 9.76404H14.9024C14.9024 11.364 16.213 12.6654 17.8244 12.6654C19.4359 12.6654 20.7465 11.364 20.7465 9.76404H21.2192C21.2192 11.62 19.6937 13.1347 17.8244 13.1347Z" fill="white"/>
<path d="M34.1963 24.5053L37.8489 15.0333H39.2025L43.1129 24.5053H41.6733L40.5561 21.6467H36.5597L35.5069 24.5053H34.1963ZM36.9465 20.6227H40.1693L39.181 17.9987C38.8802 17.2093 38.6438 16.548 38.5149 16.036C38.386 16.6333 38.2141 17.252 37.9993 17.8493L36.9465 20.6227Z" fill="white"/>
<path d="M43.9722 27.1292V17.6359H45.0465V18.5319C45.3043 18.1906 45.5836 17.9132 45.9059 17.7426C46.2282 17.5719 46.6149 17.4866 47.0661 17.4866C47.6462 17.4866 48.1834 17.6359 48.6346 17.9346C49.0858 18.2332 49.4295 18.6599 49.6659 19.2146C49.9022 19.7692 50.0096 20.3666 50.0096 21.0279C50.0096 21.7319 49.8807 22.3719 49.6229 22.9266C49.3651 23.4812 48.9998 23.9292 48.5271 24.2279C48.0544 24.5266 47.5388 24.6759 47.0017 24.6759C46.6149 24.6759 46.2711 24.5906 45.9489 24.4199C45.6481 24.2492 45.3902 24.0572 45.1754 23.8012V27.1506H43.9722V27.1292ZM45.025 21.1132C45.025 21.9879 45.1969 22.6492 45.5621 23.0759C45.9274 23.5026 46.3571 23.7159 46.8727 23.7159C47.3884 23.7159 47.8396 23.5026 48.2048 23.0546C48.5701 22.6279 48.7635 21.9452 48.7635 21.0279C48.7635 20.1532 48.5916 19.4919 48.2263 19.0652C47.8611 18.6386 47.4314 18.4039 46.9372 18.4039C46.443 18.4039 45.9918 18.6386 45.6051 19.1079C45.2183 19.5559 45.025 20.2386 45.025 21.1132Z" fill="white"/>
<path d="M51.3848 27.1292V17.6359H52.4591V18.5319C52.7169 18.1906 52.9962 17.9132 53.3185 17.7426C53.6408 17.5719 54.0275 17.4866 54.4787 17.4866C55.0588 17.4866 55.596 17.6359 56.0472 17.9346C56.4984 18.2332 56.8421 18.6599 57.0785 19.2146C57.3148 19.7692 57.4223 20.3666 57.4223 21.0279C57.4223 21.7319 57.2933 22.3719 57.0355 22.9266C56.7777 23.4812 56.4124 23.9292 55.9397 24.2279C55.4456 24.5266 54.9514 24.6759 54.4143 24.6759C54.0275 24.6759 53.6837 24.5906 53.3615 24.4199C53.0607 24.2492 52.8028 24.0572 52.588 23.8012V27.1506H51.3848V27.1292ZM52.4376 21.1132C52.4376 21.9879 52.6095 22.6492 52.9747 23.0759C53.34 23.5026 53.7697 23.7159 54.2853 23.7159C54.801 23.7159 55.2522 23.5026 55.6175 23.0546C55.9827 22.6279 56.1761 21.9452 56.1761 21.0279C56.1761 20.1532 56.0042 19.4919 55.6389 19.0652C55.2737 18.6386 54.844 18.4039 54.3498 18.4039C53.8556 18.4039 53.4044 18.6386 53.0177 19.1079C52.6309 19.5559 52.4376 20.2386 52.4376 21.1132Z" fill="white"/>
<path d="M63.3953 20.7934V19.6841H67.4346V23.2041C66.8115 23.6947 66.167 24.0574 65.5224 24.3134C64.8778 24.5694 64.1903 24.6761 63.5027 24.6761C62.5574 24.6761 61.7194 24.4841 60.9459 24.0787C60.1725 23.6734 59.5923 23.0974 59.2056 22.3507C58.8189 21.6041 58.6255 20.7507 58.6255 19.8334C58.6255 18.9161 58.8189 18.0414 59.2056 17.2521C59.5923 16.4627 60.151 15.8654 60.8815 15.4814C61.612 15.0974 62.4499 14.9054 63.3953 14.9054C64.0828 14.9054 64.7059 15.0121 65.2646 15.2467C65.8232 15.4601 66.2529 15.7801 66.5752 16.1641C66.8975 16.5694 67.1338 17.0814 67.3057 17.7214L66.167 18.0414C66.0166 17.5507 65.8447 17.1881 65.6298 16.9107C65.415 16.6334 65.1142 16.4201 64.7274 16.2494C64.3407 16.0787 63.8895 15.9934 63.4168 15.9934C62.8367 15.9934 62.3425 16.0787 61.9128 16.2494C61.4831 16.4201 61.1608 16.6547 60.903 16.9321C60.6451 17.2094 60.4518 17.5294 60.3014 17.8707C60.065 18.4467 59.9361 19.0867 59.9361 19.7694C59.9361 20.6227 60.0865 21.3267 60.3658 21.8814C60.6666 22.4574 61.0749 22.8627 61.6335 23.1401C62.1921 23.4174 62.7937 23.5454 63.4168 23.5454C63.9539 23.5454 64.4911 23.4387 65.0067 23.2254C65.5224 23.0121 65.9306 22.7987 66.1884 22.5641V20.7934H63.3953Z" fill="white"/>
<path d="M73.6654 23.6521C73.2356 24.0148 72.8059 24.2708 72.4192 24.4201C72.0109 24.5694 71.5812 24.6548 71.13 24.6548C70.378 24.6548 69.7979 24.4628 69.3897 24.1001C68.9815 23.7374 68.7881 23.2681 68.7881 22.6921C68.7881 22.3508 68.874 22.0521 69.0244 21.7748C69.1748 21.4974 69.3897 21.2841 69.626 21.1134C69.8839 20.9428 70.1632 20.8148 70.464 20.7294C70.7003 20.6654 71.0441 20.6014 71.4953 20.5588C72.4407 20.4521 73.1282 20.3028 73.5794 20.1534C73.5794 20.0041 73.5794 19.8974 73.5794 19.8548C73.5794 19.3854 73.472 19.0441 73.2571 18.8521C72.9563 18.5961 72.5051 18.4681 71.925 18.4681C71.3664 18.4681 70.9581 18.5534 70.7003 18.7454C70.4425 18.9374 70.2491 19.2788 70.1202 19.7694L68.9815 19.6201C69.0889 19.1294 69.2608 18.7454 69.4971 18.4468C69.7335 18.1481 70.0772 17.9134 70.5284 17.7641C70.9796 17.5934 71.4953 17.5294 72.0969 17.5294C72.677 17.5294 73.1712 17.5934 73.5364 17.7428C73.9017 17.8708 74.181 18.0628 74.3529 18.2548C74.5248 18.4681 74.6537 18.7241 74.7182 19.0441C74.7611 19.2361 74.7826 19.5988 74.7826 20.1108V21.6254C74.7826 22.7134 74.8041 23.3961 74.8471 23.6734C74.89 23.9508 74.9975 24.2281 75.1479 24.5054H73.9232C73.7728 24.2708 73.6868 23.9721 73.6654 23.6521ZM73.5579 21.0708C73.1282 21.2414 72.5051 21.3908 71.6457 21.5188C71.173 21.5828 70.8292 21.6681 70.6144 21.7534C70.421 21.8388 70.2706 21.9668 70.1632 22.1374C70.0557 22.3081 69.9913 22.4788 69.9913 22.6921C69.9913 23.0121 70.0987 23.2681 70.3351 23.4601C70.5714 23.6521 70.9152 23.7801 71.3664 23.7801C71.8176 23.7801 72.2258 23.6734 72.5696 23.4814C72.9133 23.2894 73.1712 23.0121 73.3431 22.6708C73.472 22.4148 73.5364 22.0308 73.5364 21.5188V21.0708H73.5579Z" fill="white"/>
<path d="M76.5449 24.5053V15.0333H77.7051V24.5053H76.5449Z" fill="white"/>
<path d="M79.4883 24.5053V15.0333H80.6485V24.5053H79.4883Z" fill="white"/>
<path d="M87.2015 22.2866L88.4047 22.4359C88.2113 23.1399 87.8675 23.6732 87.3519 24.0786C86.8362 24.4626 86.1702 24.6546 85.3752 24.6546C84.3654 24.6546 83.5704 24.3559 82.9688 23.7372C82.3672 23.1186 82.0879 22.2439 82.0879 21.1346C82.0879 19.9826 82.3887 19.0866 82.9903 18.4466C83.5919 17.8066 84.3654 17.4866 85.3107 17.4866C86.2346 17.4866 86.9866 17.8066 87.5667 18.4252C88.1469 19.0439 88.4477 19.9186 88.4477 21.0706C88.4477 21.1346 88.4477 21.2412 88.4477 21.3906H83.2911C83.3341 22.1372 83.5489 22.7132 83.9357 23.1186C84.3224 23.5239 84.7951 23.7159 85.3752 23.7159C85.8049 23.7159 86.1702 23.6092 86.471 23.3746C86.7933 23.1399 87.0296 22.7772 87.2015 22.2866ZM83.3555 20.4092H87.223C87.18 19.8332 87.0296 19.4066 86.7718 19.1079C86.4065 18.6599 85.9123 18.4466 85.3107 18.4466C84.7736 18.4466 84.3224 18.6172 83.9571 18.9799C83.5919 19.3426 83.3985 19.8119 83.3555 20.4092Z" fill="white"/>
<path d="M89.8657 24.5052V17.6359H90.9185V18.6812C91.1978 18.1906 91.4342 17.8706 91.6705 17.7212C91.9069 17.5719 92.1432 17.4866 92.4225 17.4866C92.8093 17.4866 93.2175 17.6146 93.6257 17.8706L93.2175 18.9586C92.9382 18.7879 92.6374 18.7026 92.3581 18.7026C92.1002 18.7026 91.8639 18.7879 91.6705 18.9372C91.4772 19.0866 91.3268 19.2999 91.2408 19.5772C91.1119 19.9826 91.0474 20.4519 91.0474 20.9426V24.5266H89.8657V24.5052Z" fill="white"/>
<path d="M94.2706 27.1508L94.1416 26.0628C94.3995 26.1268 94.6143 26.1695 94.8077 26.1695C95.0655 26.1695 95.2804 26.1268 95.4308 26.0415C95.5812 25.9561 95.7101 25.8281 95.8175 25.6788C95.882 25.5721 96.0109 25.2735 96.1828 24.8041C96.2043 24.7401 96.2472 24.6548 96.2902 24.5268L93.6689 17.6575H94.9366L96.3762 21.6255C96.5695 22.1375 96.7199 22.6495 96.8703 23.2041C96.9993 22.6708 97.1711 22.1588 97.343 21.6468L98.8255 17.6575H99.9858L97.3645 24.6121C97.0852 25.3588 96.8703 25.8921 96.6984 26.1695C96.4836 26.5535 96.2472 26.8308 95.9894 27.0228C95.7101 27.1935 95.4093 27.3001 95.0226 27.3001C94.8077 27.2788 94.5499 27.2361 94.2706 27.1508Z" fill="white"/>
<path d="M33.8955 8.67594C33.8955 7.86527 34.1104 7.22527 34.5616 6.77727C34.9913 6.30794 35.5714 6.0946 36.2589 6.0946C36.7101 6.0946 37.1184 6.20127 37.4836 6.4146C37.8489 6.62794 38.1282 6.9266 38.3216 7.31061C38.5149 7.69461 38.6009 8.14261 38.6009 8.61194C38.6009 9.10261 38.4935 9.55061 38.3001 9.93461C38.1067 10.3186 37.8059 10.6173 37.4407 10.8306C37.0754 11.0226 36.6672 11.1293 36.2375 11.1293C35.7648 11.1293 35.3565 11.0226 34.9913 10.7879C34.626 10.5746 34.3467 10.2546 34.1533 9.87061C33.9815 9.52927 33.8955 9.12394 33.8955 8.67594ZM34.5616 8.69727C34.5616 9.29461 34.712 9.74261 35.0343 10.0839C35.3565 10.4253 35.7433 10.5959 36.2375 10.5959C36.7316 10.5959 37.1399 10.4253 37.4407 10.0839C37.7629 9.74261 37.9133 9.25194 37.9133 8.63327C37.9133 8.22794 37.8489 7.88661 37.72 7.58794C37.5911 7.28927 37.3762 7.05461 37.1184 6.90527C36.8605 6.75594 36.5597 6.6706 36.2375 6.6706C35.7863 6.6706 35.378 6.81994 35.0557 7.13994C34.7335 7.43861 34.5616 7.95061 34.5616 8.69727Z" fill="white"/>
<path d="M40.7066 11.0654V6.75605H39.0952V6.18005H43.0056V6.75605H41.3727V11.0654H40.7066Z" fill="white"/>
<path d="M43.6504 6.18002H44.295V8.31336C44.5958 8.31336 44.8106 8.24936 44.918 8.14269C45.047 8.03603 45.1974 7.75869 45.3907 7.31069C45.5197 6.99069 45.6486 6.75603 45.7345 6.62803C45.8205 6.50002 45.9494 6.39336 46.1213 6.28669C46.2931 6.20136 46.465 6.15869 46.6584 6.15869C46.9162 6.15869 47.0451 6.15869 47.0451 6.15869V6.71336C47.0237 6.71336 46.9807 6.71336 46.9162 6.71336C46.8518 6.71336 46.8088 6.71336 46.7873 6.71336C46.5725 6.71336 46.4221 6.75602 46.3146 6.86269C46.2072 6.96936 46.0998 7.18269 45.9709 7.50269C45.799 7.90803 45.6701 8.18536 45.5411 8.29203C45.4337 8.39869 45.2833 8.48403 45.1329 8.54803C45.4552 8.63336 45.756 8.93203 46.0783 9.42269L47.0881 11.044H46.2717L45.4552 9.72136C45.2188 9.35869 45.047 9.10269 44.8966 8.97469C44.7462 8.84669 44.5528 8.76136 44.295 8.76136V11.044H43.6504V6.18002Z" fill="white"/>
<path d="M47.6465 11.0654V6.18005H49.4942C49.8165 6.18005 50.0744 6.20139 50.2462 6.22272C50.4826 6.26539 50.6974 6.32939 50.8478 6.45739C51.0197 6.56405 51.1486 6.73472 51.2346 6.92672C51.342 7.11872 51.385 7.35339 51.385 7.58805C51.385 7.99339 51.2561 8.35605 50.9768 8.63339C50.7189 8.91072 50.2248 9.06005 49.5372 9.06005H48.2696V11.0441H47.6465V11.0654ZM48.2911 8.50539H49.5587C49.9884 8.50539 50.2677 8.42005 50.4611 8.27072C50.633 8.12139 50.7189 7.88672 50.7189 7.60939C50.7189 7.39605 50.676 7.22539 50.5685 7.07605C50.4611 6.92672 50.3322 6.84139 50.1603 6.77739C50.0529 6.75605 49.838 6.73472 49.5587 6.73472H48.2911V8.50539Z" fill="white"/>
<path d="M51.8789 8.67606C51.8789 7.86539 52.0938 7.22539 52.545 6.77739C52.9747 6.30806 53.5548 6.09473 54.2423 6.09473C54.6935 6.09473 55.1018 6.20139 55.467 6.41473C55.8323 6.62806 56.1116 6.92673 56.305 7.31073C56.4983 7.69473 56.5843 8.14273 56.5843 8.61206C56.5843 9.10273 56.4768 9.55073 56.2835 9.93473C56.0901 10.3187 55.7893 10.6174 55.4241 10.8307C55.0588 11.0227 54.6506 11.1294 54.2208 11.1294C53.7482 11.1294 53.3399 11.0227 52.9747 10.7881C52.6094 10.5747 52.3301 10.2547 52.1367 9.87073C51.9863 9.52939 51.8789 9.12406 51.8789 8.67606ZM52.5664 8.69739C52.5664 9.29473 52.7168 9.74273 53.0391 10.0841C53.3614 10.4254 53.7482 10.5961 54.2423 10.5961C54.7365 10.5961 55.1447 10.4254 55.4455 10.0841C55.7678 9.74273 55.9182 9.25206 55.9182 8.63339C55.9182 8.22806 55.8538 7.88673 55.7249 7.58806C55.5959 7.28939 55.3811 7.05473 55.1232 6.90539C54.8654 6.73473 54.5646 6.67073 54.2423 6.67073C53.7911 6.67073 53.3829 6.82006 53.0606 7.14006C52.7168 7.43873 52.5664 7.95073 52.5664 8.69739Z" fill="white"/>
<path d="M57.4438 6.17993H58.0454V10.0413L60.6667 6.17993H61.3113V11.0653H60.7312V7.20393L58.1099 11.0653H57.4653V6.17993H57.4438ZM59.8932 5.00659H60.3014C60.2585 5.28393 60.1725 5.49726 60.0006 5.64659C59.8288 5.79593 59.5924 5.85993 59.3131 5.85993C59.0338 5.85993 58.7974 5.79593 58.6256 5.64659C58.4537 5.49726 58.3462 5.28393 58.3248 5.00659H58.733C58.7545 5.15593 58.8189 5.26259 58.9264 5.34793C59.0123 5.41193 59.1412 5.45459 59.2916 5.45459C59.4635 5.45459 59.6139 5.41193 59.6998 5.34793C59.7858 5.28393 59.8502 5.17726 59.8932 5.00659Z" fill="white"/>
<path d="M63.6319 11.0653V6.75593H62.0205V6.17993H65.9309V6.75593H64.298V11.0653H63.6319Z" fill="white"/>
<path d="M66.5962 11.0653V6.17993H70.1629V6.75593H67.2623V8.24927H69.9695V8.82527H67.2408V10.4893H70.2703V11.0653H66.5962Z" fill="white"/>
<path d="M73.0425 11.0653V6.17993H74.8902C75.277 6.17993 75.5778 6.2226 75.7926 6.32926C76.029 6.43593 76.2009 6.58526 76.3298 6.77726C76.4587 6.9906 76.5231 7.20393 76.5231 7.41727C76.5231 7.6306 76.4587 7.8226 76.3513 8.0146C76.2438 8.2066 76.0719 8.35593 75.8356 8.4626C76.1364 8.54793 76.3727 8.69727 76.5231 8.9106C76.6735 9.12393 76.7595 9.3586 76.7595 9.65727C76.7595 9.89193 76.7165 10.1053 76.6091 10.2973C76.5017 10.4893 76.3942 10.6386 76.2438 10.7453C76.0934 10.8519 75.9216 10.9373 75.7067 10.9799C75.4918 11.0439 75.234 11.0653 74.9117 11.0653H73.0425ZM73.7085 8.22793H74.7828C75.0621 8.22793 75.277 8.2066 75.4059 8.16393C75.5778 8.12127 75.7067 8.03593 75.7712 7.92926C75.8356 7.8226 75.9001 7.67326 75.9001 7.5026C75.9001 7.33193 75.8571 7.20393 75.7926 7.07593C75.7067 6.94793 75.5993 6.8626 75.4489 6.81993C75.2985 6.77727 75.0621 6.75593 74.6969 6.75593H73.7085V8.22793ZM73.7085 10.4893H74.9332C75.1481 10.4893 75.2985 10.4893 75.3844 10.4679C75.5348 10.4466 75.6637 10.4039 75.7712 10.3399C75.8786 10.2759 75.9645 10.1906 76.029 10.0626C76.0934 9.9346 76.1364 9.8066 76.1364 9.65727C76.1364 9.46527 76.0934 9.31593 75.986 9.18793C75.9001 9.05993 75.7712 8.95327 75.5993 8.9106C75.4274 8.8466 75.191 8.82526 74.8688 8.82526H73.73V10.4893H73.7085Z" fill="white"/>
<path fill-rule="evenodd" clip-rule="evenodd" d="M22.2719 6.37207H13.3553C9.14414 6.37207 7.61865 7.90807 7.61865 12.0681V20.9214C7.61865 25.1027 9.16562 26.6174 13.3553 26.6174H22.2719C26.4831 26.6174 28.0086 25.0814 28.0086 20.9214V12.0681C28.0301 7.90807 26.4831 6.37207 22.2719 6.37207Z" fill="#C7102D"/>
<path d="M11.6583 16.5054H12.1955V19.1507H11.6583V18.084H10.4336V19.1507H9.89648V16.5054H10.4336V17.572H11.6583V16.5054ZM14.7093 18.02C14.7093 18.4467 14.4944 18.6814 14.1077 18.6814C13.7209 18.6814 13.5061 18.4467 13.5061 17.9987V16.5054H12.9689V18.02C12.9689 18.7667 13.3772 19.1934 14.1077 19.1934C14.8382 19.1934 15.2679 18.7667 15.2679 17.9987V16.5054H14.7308V18.02H14.7093ZM20.9616 18.3187L20.36 16.5054H19.9088L19.3072 18.3187L18.7271 16.5054H18.147L19.0709 19.1507H19.5221L20.1237 17.4014L20.7253 19.1507H21.1765L22.1004 16.5054H21.5417L20.9616 18.3187ZM23.0887 18.02H24.0771V17.5294H23.0887V16.996H24.5283V16.5054H22.5731V19.1507H24.5927V18.66H23.1102V18.02H23.0887ZM25.2158 19.1507H25.7529V16.5054H25.2158V19.1507ZM16.3207 18.596L16.0844 19.1507H15.5257L16.686 16.5054H17.1587L18.3189 19.1507H17.7603L17.5454 18.596H16.3207ZM16.5141 18.1267H17.3305L16.9223 17.188L16.5141 18.1267Z" fill="white"/>
<path d="M17.8244 13.1347C15.9552 13.1347 14.4297 11.62 14.4297 9.76404H14.9024C14.9024 11.364 16.213 12.6654 17.8244 12.6654C19.4359 12.6654 20.7465 11.364 20.7465 9.76404H21.2192C21.2192 11.62 19.6937 13.1347 17.8244 13.1347Z" fill="white"/>
<rect x="1.07129" y="1.00537" width="106.429" height="31" rx="3.5" stroke="#A6A6A6"/>
</svg>
