<svg width="258" height="49" viewBox="0 0 258 49" fill="none" xmlns="http://www.w3.org/2000/svg">
<g clip-path="url(#clip0_802_324)">
<path d="M206.575 0.371521H205.742H200.491V17.1322H203.7V10.2793H205.742H206.533C209.034 10.2793 210.784 8.38031 210.992 5.90336C211.034 5.65567 211.034 5.44926 211.034 5.20156C211.034 4.95387 211.034 4.74746 210.992 4.54104C210.742 2.18795 209.075 0.371521 206.575 0.371521ZM205.742 7.76107C205.617 7.76107 205.492 7.80235 205.325 7.80235H203.7V2.84847H205.325C205.492 2.84847 205.617 2.84847 205.742 2.84847C207.117 2.97231 207.784 3.83924 207.784 5.28413C207.784 6.72901 207.117 7.63722 205.742 7.76107Z" fill="#0066D1"/>
<path d="M120.936 17.0909H124.145V2.88975H128.146V0.371521H116.936V2.88975H120.936V17.0909Z" fill="#0066D1"/>
<path d="M168.944 17.5037C172.945 17.5037 174.028 14.903 174.028 11.8068V11.105H170.861V11.9719C170.861 14.1599 170.194 14.9442 168.902 14.9442C167.569 14.9442 166.985 14.1599 166.985 11.9719V5.44928C166.985 3.30259 167.569 2.60079 168.944 2.60079C170.319 2.60079 170.861 3.30259 170.861 5.44928V5.77954H174.028V4.95389C174.028 1.81643 172.278 0 169.027 0C167.527 0 166.402 0.371542 165.568 0.990778C164.318 1.85771 163.735 3.46772 163.735 5.77954V11.8893C163.735 13.7883 164.152 15.5635 165.568 16.6368C166.319 17.1735 167.402 17.5037 168.944 17.5037Z" fill="#0066D1"/>
<path d="M178.862 2.88975H179.696H183.113V17.0909H186.322V0.371521H179.696H175.654V17.0909H178.862V2.88975Z" fill="#0066D1"/>
<path d="M132.938 24.852H127.938L122.562 34.8424V24.852H118.144V47.8463H122.562V40.9522L124.354 38.6816L128.146 47.8463H133.105L127.021 34.8424L132.938 24.852Z" fill="#0066D1"/>
<path d="M154.609 9.32981H158.317H158.859V17.0909H162.068V0.371521H158.859V6.81158H158.317H154.609V0.371521H151.4V17.0909H154.609V9.32981Z" fill="#0066D1"/>
<path d="M144.648 24.852H141.773H139.023V24.9759L134.355 43.0989L133.105 47.8876H134.355H137.897L139.023 43.0163L139.273 41.9017H141.773H144.273L144.648 43.8419L145.357 47.8463H150.149L144.94 24.852H144.648ZM141.773 38.4339H139.814L141.773 28.6913L141.94 27.7418L143.648 38.4339H141.773Z" fill="#0066D1"/>
<path d="M132.355 10.2793H134.397H135.189C136.939 10.2793 138.273 9.3298 139.064 7.96748C139.481 7.14184 139.731 6.19234 139.731 5.20156C139.731 4.25207 139.481 3.30257 139.064 2.51821C138.273 1.19717 136.939 0.371521 135.189 0.371521H134.355H129.104V17.1322H132.355V10.2793ZM132.355 2.84847H133.98C134.105 2.84847 134.272 2.84847 134.397 2.84847C135.689 2.97231 136.397 3.83924 136.397 5.28413C136.397 6.77029 135.689 7.63722 134.355 7.76107C134.23 7.76107 134.064 7.80235 133.939 7.80235H132.355V2.84847Z" fill="#0066D1"/>
<path d="M252.749 0.371521H251.791C249.04 0.371521 247.415 2.55949 247.415 5.24284C247.415 7.38953 248.415 9.20596 250.124 9.90776L246.832 17.1322H250.29L252.749 11.3939L253.208 10.3206H254.749V17.1322H257.958V0.371521H252.749ZM254.749 7.80235H253.124C252.999 7.80235 252.874 7.76107 252.707 7.76107C251.374 7.63722 250.665 6.77029 250.665 5.28413C250.665 3.88053 251.374 2.97231 252.707 2.84847C252.874 2.84847 252.999 2.84847 253.124 2.84847H254.749V7.80235Z" fill="#0066D1"/>
<path d="M210.992 2.88975H214.951V17.0909H218.16V2.88975H222.161V0.371521H210.992V2.88975Z" fill="#0066D1"/>
<path d="M230.579 6.81158H226.328V0.371521H223.119V17.0909H226.328V9.32981H230.579V17.0909H233.788V0.371521H230.579V6.81158Z" fill="#0066D1"/>
<path d="M190.323 24.852H187.114H184.405L179.696 43.264L178.487 47.8876H179.696H183.238L184.613 41.9017H187.114H189.614L190.698 47.8876H193.448H195.49L193.448 38.6404L190.323 24.852ZM187.114 38.4339H185.197L187.114 28.6913L187.28 27.7418L189.072 38.4339H187.114Z" fill="#0066D1"/>
<path d="M193.448 0C190.239 0.0412824 187.947 1.52745 187.947 5.73826V11.8481C187.947 16.1001 190.197 17.545 193.448 17.545C196.74 17.545 198.949 16.1827 198.949 11.8481V5.73826C198.949 1.48617 196.74 0 193.448 0ZM195.657 12.2609C195.657 14.036 194.865 14.9855 193.448 14.9855C191.948 14.903 191.239 13.9535 191.239 12.2609V5.36672C191.239 3.59157 191.948 2.60079 193.448 2.60079C194.865 2.60079 195.657 3.67414 195.657 5.44928V12.2609Z" fill="#0066D1"/>
<path d="M180.821 28.4023V24.852H179.696H165.527H165.485V28.4023H165.527H170.986V47.8463H175.403V28.4023H179.696H180.821Z" fill="#0066D1"/>
<path d="M243.081 0.371521H240.747H238.789L234.455 17.0909H237.913L238.914 12.715H240.706H242.539L243.331 17.0909H246.79V17.0496L243.081 0.371521ZM240.747 10.238H239.372L240.747 3.09616L240.914 2.43564L242.164 10.238H240.747Z" fill="#0066D1"/>
<path d="M159.443 24.852H158.317H151.108V47.8463H155.525V38.4339H158.317H159.401C162.86 38.4339 165.193 35.8744 165.569 32.5718C165.569 32.2003 165.61 31.9113 165.61 31.5811C165.61 31.2921 165.569 30.9205 165.569 30.6316C165.193 27.4115 162.901 24.852 159.443 24.852ZM158.317 35.0901C158.151 35.0901 157.942 35.1313 157.776 35.1313H155.525V28.2785H157.776C157.942 28.2785 158.151 28.2785 158.317 28.3197C160.193 28.4849 161.068 29.6821 161.068 31.6223C161.068 33.6452 160.193 34.8836 158.317 35.0901Z" fill="#0066D1"/>
<path d="M144.649 0.371521H142.607L141.773 3.7154L139.023 14.4901L138.314 17.0909H139.023H141.773L142.773 12.715H144.607H146.399L147.191 17.0909H150.691L146.982 0.371521H144.649ZM144.649 10.238H143.232L144.649 3.09616L144.774 2.43564L146.024 10.238H144.649Z" fill="#0066D1"/>
</g>
<path fill-rule="evenodd" clip-rule="evenodd" d="M53.4175 20.3026H69.2726V23.3273L91.7272 0.289856H110.695L88.4482 24.446L110.529 48.0221H91.1876L69.2726 24.446V48.0221H53.4175V20.3026Z" fill="#0066D1"/>
<path fill-rule="evenodd" clip-rule="evenodd" d="M15.8967 0L0 15.9108H32.2914V47.898L48.2295 32.1115V15.9108H69.0653L84.879 0H15.8967Z" fill="#F33748"/>
<defs>
<clipPath id="clip0_802_324">
<rect width="141.064" height="47.8463" fill="white" transform="translate(116.936)"/>
</clipPath>
</defs>
</svg>
