<svg width="48" height="48" viewBox="0 0 48 48" fill="none" xmlns="http://www.w3.org/2000/svg">
<path fill-rule="evenodd" clip-rule="evenodd" d="M14 8C12.3431 8 11 9.34315 11 11V14H7C6.44772 14 6 14.4477 6 15V21C6 21.5523 6.44772 22 7 22H8C8.55228 22 9 21.5523 9 21V16H11V34C11 35.3062 11.8348 36.4175 13 36.8293V39C13 39.5523 13.4477 40 14 40H18C18.5523 40 19 39.5523 19 39V37H29V39C29 39.5523 29.4477 40 30 40H34C34.5523 40 35 39.5523 35 39V36.8293C36.1652 36.4175 37 35.3062 37 34V16H39V21C39 21.5523 39.4477 22 40 22H41C41.5523 22 42 21.5523 42 21V15C42 14.4477 41.5523 14 41 14H37V11C37 9.34315 35.6569 8 34 8H14ZM15 14C14.4477 14 14 14.4477 14 15V27C14 27.5523 14.4477 28 15 28H33C33.5523 28 34 27.5523 34 27V15C34 14.4477 33.5523 14 33 14H15ZM29 31C29 30.4477 29.4477 30 30 30H33C33.5523 30 34 30.4477 34 31V32C34 32.5523 33.5523 33 33 33H30C29.4477 33 29 32.5523 29 32V31ZM15 30C14.4477 30 14 30.4477 14 31V32C14 32.5523 14.4477 33 15 33H18C18.5523 33 19 32.5523 19 32V31C19 30.4477 18.5523 30 18 30H15Z" fill="url(#paint0_radial_846_28)"/>
<defs>
<radialGradient id="paint0_radial_846_28" cx="0" cy="0" r="1" gradientUnits="userSpaceOnUse" gradientTransform="translate(15.1986 27.7303) rotate(59.4633) scale(17.3225 21.5772)">
<stop stop-color="#0066D1"/>
<stop offset="1" stop-color="#4DC3FE"/>
</radialGradient>
</defs>
</svg>
