<svg width="48" height="48" viewBox="0 0 48 48" fill="none" xmlns="http://www.w3.org/2000/svg">
<path fill-rule="evenodd" clip-rule="evenodd" d="M6 14C6 11.7909 7.79086 10 10 10H38C40.2091 10 42 11.7909 42 14V34C42 36.2091 40.2091 38 38 38H10C7.79086 38 6 36.2091 6 34V14ZM17 23.5C17 22.9477 17.4477 22.5 18 22.5H22.5V18C22.5 17.4477 22.9477 17 23.5 17H24.5C25.0523 17 25.5 17.4477 25.5 18V22.5H30C30.5523 22.5 31 22.9477 31 23.5V24.5C31 25.0523 30.5523 25.5 30 25.5H25.5V30C25.5 30.5523 25.0523 31 24.5 31H23.5C22.9477 31 22.5 30.5523 22.5 30V25.5H18C17.4477 25.5 17 25.0523 17 24.5V23.5Z" fill="url(#paint0_radial_846_13)"/>
<defs>
<radialGradient id="paint0_radial_846_13" cx="0" cy="0" r="1" gradientUnits="userSpaceOnUse" gradientTransform="translate(15.1986 27.264) rotate(56.013) scale(15.7447 20.772)">
<stop stop-color="#0066D1"/>
<stop offset="1" stop-color="#4DC3FE"/>
</radialGradient>
</defs>
</svg>
