<svg width="48" height="48" viewBox="0 0 48 48" fill="none" xmlns="http://www.w3.org/2000/svg">
<path fill-rule="evenodd" clip-rule="evenodd" d="M24.6315 34.4843C24.7314 34.4236 24.7814 34.3933 24.8368 34.393H24.8389C24.8943 34.3933 24.9442 34.4236 25.0442 34.4843L32.731 39.1459C34.1014 39.977 34.7866 40.3925 35.2148 40.09C35.2199 40.0863 35.225 40.0827 35.23 40.079C35.651 39.7664 35.4698 38.9858 35.1073 37.4246L33.064 28.6238C33.0377 28.5108 33.0246 28.4543 33.0413 28.402L33.0419 28.3999C33.0591 28.3478 33.1029 28.3097 33.1903 28.2336L40.0027 22.3038C41.2062 21.2563 41.8078 20.7325 41.6513 20.2332C41.6494 20.2273 41.6475 20.2214 41.6455 20.2154C41.4772 19.72 40.6824 19.6522 39.0927 19.5167L30.1353 18.7531C30.0193 18.7432 29.9613 18.7383 29.9165 18.7061L29.9147 18.7048C29.8703 18.6722 29.8477 18.6185 29.8024 18.5112L26.3047 10.2191C25.6824 8.74382 25.3713 8.0062 24.8472 8.00005C24.841 7.99998 24.8347 7.99998 24.8285 8.00005C24.3044 8.0062 23.9933 8.74382 23.371 10.2191L19.8733 18.5112C19.828 18.6185 19.8054 18.6722 19.761 18.7048L19.7592 18.7061C19.7144 18.7383 19.6564 18.7432 19.5404 18.7531L10.583 19.5167C8.99329 19.6522 8.19846 19.72 8.03024 20.2154C8.02823 20.2214 8.02629 20.2273 8.02442 20.2332C7.86784 20.7325 8.46955 21.2563 9.67295 22.3038L16.4853 28.2336C16.5728 28.3097 16.6166 28.3478 16.6338 28.3999L16.6344 28.402C16.6511 28.4543 16.638 28.5108 16.6117 28.6238L14.5684 37.4246C14.2059 38.9858 14.0247 39.7664 14.4457 40.079C14.4507 40.0827 14.4558 40.0863 14.4609 40.09C14.8891 40.3925 15.5743 39.977 16.9447 39.1459L24.6315 34.4843Z" fill="url(#paint0_radial_846_38)"/>
<defs>
<radialGradient id="paint0_radial_846_38" cx="0" cy="0" r="1" gradientUnits="userSpaceOnUse" gradientTransform="translate(16.6047 27.8465) rotate(61.2514) scale(17.1178 20.5457)">
<stop stop-color="#0066D1"/>
<stop offset="1" stop-color="#4DC3FE"/>
</radialGradient>
</defs>
</svg>
