<svg width="48" height="48" viewBox="0 0 48 48" fill="none" xmlns="http://www.w3.org/2000/svg">
<path fill-rule="evenodd" clip-rule="evenodd" d="M31.9375 6.17622C31.5609 5.79963 30.9173 6.06659 30.9173 6.59942V13.1099C30.9173 13.6563 31.353 14.0829 31.8904 14.0829H38.4011C38.9337 14.0829 39.2004 13.4383 38.8235 13.0615L31.9375 6.17622ZM27.9286 6.10659H9.99624C9.44603 6.10659 9 6.55298 9 7.10363V41.003C9 41.5536 9.44603 42 9.99624 42H37.891C38.4412 42 38.8872 41.5536 38.8872 41.003V17.074H31.8946C29.7053 17.074 27.9286 15.3072 27.9286 13.1048V6.10659ZM15.9737 14.0829C15.4235 14.0829 14.9774 14.5293 14.9774 15.0799V16.077C14.9774 16.6276 15.4235 17.074 15.9737 17.074H23.9436C24.4938 17.074 24.9399 16.6276 24.9399 16.077V15.0799C24.9399 14.5293 24.4938 14.0829 23.9436 14.0829H15.9737ZM14.9774 23.0563C14.9774 22.5056 15.4235 22.0592 15.9737 22.0592H31.9135C32.4638 22.0592 32.9098 22.5056 32.9098 23.0563V24.0533C32.9098 24.6039 32.4638 25.0503 31.9135 25.0503H15.9737C15.4235 25.0503 14.9774 24.6039 14.9774 24.0533V23.0563ZM15.9737 30.0355C15.4235 30.0355 14.9774 30.4819 14.9774 31.0326V32.0296C14.9774 32.5803 15.4235 33.0266 15.9737 33.0266H31.9135C32.4638 33.0266 32.9098 32.5803 32.9098 32.0296V31.0326C32.9098 30.4819 32.4638 30.0355 31.9135 30.0355H15.9737Z" fill="url(#paint0_radial_846_53)"/>
<defs>
<radialGradient id="paint0_radial_846_53" cx="0" cy="0" r="1" gradientUnits="userSpaceOnUse" gradientTransform="translate(16.6655 28.1965) rotate(66.3962) scale(18.3174 19.1298)">
<stop stop-color="#0066D1"/>
<stop offset="1" stop-color="#4DC3FE"/>
</radialGradient>
</defs>
</svg>
