<svg width="188" height="56" viewBox="0 0 188 56" fill="none" xmlns="http://www.w3.org/2000/svg">
<rect x="0.5" y="0.5" width="187" height="55" rx="5.5" fill="black"/>
<path d="M58.8438 41.9999L65.2357 25.4239H67.6045L74.4477 41.9999H71.9285L69.9733 36.9973H62.9797L61.1374 41.9999H58.8438ZM63.6565 35.2053H69.2965L67.5669 30.6133C67.0405 29.2319 66.6269 28.0746 66.4013 27.1786C66.1757 28.2239 65.8749 29.3066 65.4989 30.3519L63.6565 35.2053Z" fill="black"/>
<path d="M75.9517 46.5919V29.9786H77.8317V31.5466C78.2829 30.9493 78.7717 30.4639 79.3357 30.1653C79.8997 29.8666 80.5765 29.7173 81.3661 29.7173C82.3813 29.7173 83.3213 29.9786 84.1109 30.5013C84.9005 31.0239 85.5021 31.7706 85.9157 32.7413C86.3293 33.7119 86.5173 34.7573 86.5173 35.9146C86.5173 37.1466 86.2917 38.2666 85.8405 39.2373C85.3893 40.2079 84.7501 40.9919 83.9229 41.5146C83.0957 42.0373 82.1933 42.2986 81.2533 42.2986C80.5765 42.2986 79.9749 42.1493 79.4109 41.8506C78.8845 41.5519 78.4333 41.2159 78.0573 40.7679V46.6293H75.9517V46.5919ZM77.7941 36.0639C77.7941 37.5946 78.0949 38.7519 78.7341 39.4986C79.3733 40.2453 80.1253 40.6186 81.0277 40.6186C81.9301 40.6186 82.7197 40.2453 83.3589 39.4613C83.9981 38.7146 84.3365 37.5199 84.3365 35.9146C84.3365 34.3839 84.0357 33.2266 83.3965 32.4799C82.7573 31.7333 82.0053 31.3226 81.1405 31.3226C80.2757 31.3226 79.4861 31.7333 78.8093 32.5546C78.1325 33.3386 77.7941 34.5333 77.7941 36.0639Z" fill="black"/>
<path d="M88.9238 46.5919V29.9786H90.8038V31.5466C91.255 30.9493 91.7438 30.4639 92.3078 30.1653C92.8718 29.8666 93.5486 29.7173 94.3382 29.7173C95.3534 29.7173 96.2934 29.9786 97.083 30.5013C97.8726 31.0239 98.4742 31.7706 98.8878 32.7413C99.3014 33.7119 99.4894 34.7573 99.4894 35.9146C99.4894 37.1466 99.2638 38.2666 98.8126 39.2373C98.3614 40.2079 97.7222 40.9919 96.895 41.5146C96.0302 42.0373 95.1654 42.2986 94.2254 42.2986C93.5486 42.2986 92.947 42.1493 92.383 41.8506C91.8566 41.5519 91.4054 41.2159 91.0294 40.7679V46.6293H88.9238V46.5919ZM90.7662 36.0639C90.7662 37.5946 91.067 38.7519 91.7062 39.4986C92.3454 40.2453 93.0974 40.6186 93.9998 40.6186C94.9022 40.6186 95.6918 40.2453 96.331 39.4613C96.9702 38.7146 97.3086 37.5199 97.3086 35.9146C97.3086 34.3839 97.0078 33.2266 96.3686 32.4799C95.7294 31.7333 94.9774 31.3226 94.1126 31.3226C93.2478 31.3226 92.4582 31.7333 91.7814 32.5546C91.1046 33.3386 90.7662 34.5333 90.7662 36.0639Z" fill="black"/>
<path d="M109.942 35.504V33.5627H117.011V39.7227C115.92 40.5813 114.792 41.216 113.664 41.664C112.536 42.112 111.333 42.2987 110.13 42.2987C108.476 42.2987 107.009 41.9627 105.656 41.2533C104.302 40.544 103.287 39.536 102.61 38.2293C101.933 36.9227 101.595 35.4293 101.595 33.824C101.595 32.2187 101.933 30.688 102.61 29.3067C103.287 27.9253 104.264 26.88 105.543 26.208C106.821 25.536 108.288 25.2 109.942 25.2C111.145 25.2 112.236 25.3867 113.213 25.7973C114.191 26.1707 114.943 26.7307 115.507 27.4027C116.071 28.112 116.484 29.008 116.785 30.128L114.792 30.688C114.529 29.8293 114.228 29.1947 113.852 28.7093C113.476 28.224 112.95 27.8507 112.273 27.552C111.596 27.2533 110.807 27.104 109.98 27.104C108.964 27.104 108.1 27.2533 107.348 27.552C106.596 27.8507 106.032 28.2613 105.58 28.7467C105.129 29.232 104.791 29.792 104.528 30.3893C104.114 31.3973 103.888 32.5173 103.888 33.712C103.888 35.2053 104.152 36.4373 104.64 37.408C105.167 38.416 105.881 39.1253 106.859 39.6107C107.836 40.096 108.889 40.32 109.98 40.32C110.92 40.32 111.86 40.1333 112.762 39.76C113.664 39.3867 114.379 39.0133 114.83 38.6027V35.504H109.942Z" fill="black"/>
<path d="M127.915 40.5066C127.163 41.1413 126.411 41.5893 125.734 41.8506C125.02 42.112 124.268 42.2613 123.478 42.2613C122.162 42.2613 121.147 41.9253 120.433 41.2906C119.718 40.656 119.38 39.8346 119.38 38.8266C119.38 38.2293 119.53 37.7066 119.793 37.2213C120.057 36.736 120.433 36.3626 120.846 36.064C121.297 35.7653 121.786 35.5413 122.313 35.392C122.726 35.28 123.328 35.168 124.117 35.0933C125.772 34.9066 126.975 34.6453 127.765 34.384C127.765 34.1226 127.765 33.936 127.765 33.8613C127.765 33.04 127.577 32.4426 127.201 32.1066C126.674 31.6586 125.885 31.4346 124.869 31.4346C123.892 31.4346 123.177 31.584 122.726 31.92C122.275 32.256 121.937 32.8533 121.711 33.712L119.718 33.4506C119.906 32.592 120.207 31.92 120.621 31.3973C121.034 30.8746 121.636 30.464 122.425 30.2026C123.215 29.904 124.117 29.792 125.17 29.792C126.185 29.792 127.05 29.904 127.69 30.1653C128.329 30.3893 128.818 30.7253 129.118 31.0613C129.419 31.4346 129.645 31.8826 129.758 32.4426C129.833 32.7786 129.87 33.4133 129.87 34.3093V36.96C129.87 38.864 129.908 40.0586 129.983 40.544C130.058 41.0293 130.246 41.5146 130.51 42H128.366C128.103 41.5893 127.953 41.0666 127.915 40.5066ZM127.727 35.9893C126.975 36.288 125.885 36.5493 124.381 36.7733C123.553 36.8853 122.952 37.0346 122.576 37.184C122.237 37.3333 121.974 37.5573 121.786 37.856C121.598 38.1546 121.485 38.4533 121.485 38.8266C121.485 39.3866 121.673 39.8346 122.087 40.1706C122.501 40.5066 123.102 40.7306 123.892 40.7306C124.681 40.7306 125.396 40.544 125.998 40.208C126.599 39.872 127.05 39.3866 127.351 38.7893C127.577 38.3413 127.69 37.6693 127.69 36.7733V35.9893H127.727Z" fill="black"/>
<path d="M132.953 41.9999V25.4239H134.984V41.9999H132.953Z" fill="black"/>
<path d="M138.104 41.9999V25.4239H140.135V41.9999H138.104Z" fill="black"/>
<path d="M151.603 38.1173L153.709 38.3786C153.37 39.6106 152.769 40.5439 151.866 41.2533C150.964 41.9253 149.798 42.2613 148.407 42.2613C146.64 42.2613 145.249 41.7386 144.196 40.6559C143.143 39.5733 142.654 38.0426 142.654 36.1013C142.654 34.0853 143.181 32.5173 144.234 31.3973C145.286 30.2773 146.64 29.7173 148.294 29.7173C149.911 29.7173 151.227 30.2773 152.242 31.3599C153.258 32.4426 153.784 33.9733 153.784 35.9893C153.784 36.1013 153.784 36.2879 153.784 36.5493H144.76C144.835 37.8559 145.211 38.8639 145.888 39.5733C146.565 40.2826 147.392 40.6186 148.407 40.6186C149.159 40.6186 149.798 40.4319 150.325 40.0213C150.889 39.6106 151.302 38.9759 151.603 38.1173ZM144.873 34.8319H151.641C151.565 33.8239 151.302 33.0773 150.851 32.5546C150.212 31.7706 149.347 31.3973 148.294 31.3973C147.354 31.3973 146.565 31.6959 145.926 32.3306C145.286 32.9653 144.948 33.7866 144.873 34.8319Z" fill="black"/>
<path d="M156.265 41.9999V29.9786H158.108V31.8079C158.596 30.9493 159.01 30.3893 159.424 30.1279C159.837 29.8666 160.251 29.7173 160.74 29.7173C161.416 29.7173 162.131 29.9413 162.845 30.3893L162.131 32.2933C161.642 31.9946 161.116 31.8453 160.627 31.8453C160.176 31.8453 159.762 31.9946 159.424 32.2559C159.085 32.5173 158.822 32.8906 158.672 33.3759C158.446 34.0853 158.333 34.9066 158.333 35.7653V42.0373H156.265V41.9999Z" fill="black"/>
<path d="M163.973 46.6294L163.748 44.7254C164.199 44.8374 164.575 44.9121 164.913 44.9121C165.364 44.9121 165.74 44.8374 166.004 44.688C166.267 44.5387 166.492 44.3147 166.68 44.0534C166.793 43.8667 167.019 43.3441 167.32 42.5227C167.357 42.4107 167.432 42.2614 167.508 42.0374L162.92 30.0161H165.139L167.658 36.9601C167.996 37.8561 168.26 38.7521 168.523 39.7227C168.748 38.7894 169.049 37.8934 169.35 36.9974L171.944 30.0161H173.975L169.388 42.1867C168.899 43.4934 168.523 44.4267 168.222 44.9121C167.846 45.5841 167.432 46.0694 166.981 46.4054C166.492 46.7041 165.966 46.8907 165.289 46.8907C164.913 46.8534 164.462 46.7787 163.973 46.6294Z" fill="black"/>
<path d="M58.3174 14.2987C58.3174 12.88 58.6934 11.76 59.483 10.976C60.235 10.1547 61.2502 9.78133 62.4534 9.78133C63.243 9.78133 63.9574 9.96799 64.5966 10.3413C65.2358 10.7147 65.7246 11.2373 66.063 11.9093C66.4014 12.5813 66.5518 13.3653 66.5518 14.1867C66.5518 15.0453 66.3638 15.8293 66.0254 16.5013C65.687 17.1733 65.1606 17.696 64.5214 18.0693C63.8822 18.4053 63.1678 18.592 62.4158 18.592C61.5886 18.592 60.8742 18.4053 60.235 17.9947C59.5958 17.6213 59.107 17.0613 58.7686 16.3893C58.4678 15.792 58.3174 15.0827 58.3174 14.2987ZM59.483 14.336C59.483 15.3813 59.7462 16.1653 60.3102 16.7627C60.8742 17.36 61.551 17.6587 62.4158 17.6587C63.2806 17.6587 63.995 17.36 64.5214 16.7627C65.0854 16.1653 65.3486 15.3067 65.3486 14.224C65.3486 13.5147 65.2358 12.9173 65.0102 12.3947C64.7846 11.872 64.4086 11.4613 63.9574 11.2C63.5062 10.9387 62.9798 10.7893 62.4158 10.7893C61.6262 10.7893 60.9118 11.0507 60.3478 11.6107C59.7838 12.1333 59.483 13.0293 59.483 14.336Z" fill="black"/>
<path d="M70.2365 18.48V10.9387H67.4165V9.93069H74.2597V10.9387H71.4021V18.48H70.2365Z" fill="black"/>
<path d="M75.3877 9.93066H76.5157V13.664C77.0421 13.664 77.4181 13.552 77.6061 13.3653C77.8317 13.1787 78.0949 12.6933 78.4333 11.9093C78.6589 11.3493 78.8845 10.9387 79.0349 10.7147C79.1853 10.4907 79.4109 10.304 79.7117 10.1173C80.0125 9.96799 80.3133 9.89333 80.6517 9.89333C81.1029 9.89333 81.3285 9.89333 81.3285 9.89333V10.864C81.2909 10.864 81.2157 10.864 81.1029 10.864C80.9901 10.864 80.9149 10.864 80.8773 10.864C80.5013 10.864 80.2381 10.9387 80.0501 11.1253C79.8621 11.312 79.6741 11.6853 79.4485 12.2453C79.1477 12.9547 78.9221 13.44 78.6965 13.6267C78.5085 13.8133 78.2453 13.9627 77.9821 14.0747C78.5461 14.224 79.0725 14.7467 79.6365 15.6053L81.4037 18.4427H79.9749L78.5461 16.128C78.1325 15.4933 77.8317 15.0453 77.5685 14.8213C77.3053 14.5973 76.9669 14.448 76.5157 14.448V18.4427H75.3877V9.93066Z" fill="black"/>
<path d="M82.3813 18.48V9.93069H85.6149C86.1789 9.93069 86.6301 9.96803 86.9309 10.0054C87.3445 10.08 87.7206 10.192 87.9838 10.416C88.2846 10.6027 88.5102 10.9014 88.6606 11.2374C88.8486 11.5734 88.9238 11.984 88.9238 12.3947C88.9238 13.104 88.6982 13.7387 88.2094 14.224C87.7582 14.7094 86.8933 14.9707 85.6901 14.9707H83.4717V18.4427H82.3813V18.48ZM83.5093 14H85.7277C86.4797 14 86.9685 13.8507 87.3069 13.5894C87.6077 13.328 87.7581 12.9174 87.7581 12.432C87.7581 12.0587 87.6829 11.76 87.4949 11.4987C87.3069 11.2374 87.0814 11.088 86.7806 10.976C86.5926 10.9387 86.2165 10.9014 85.7277 10.9014H83.5093V14Z" fill="black"/>
<path d="M89.7886 14.2986C89.7886 12.8799 90.1646 11.7599 90.9542 10.9759C91.7062 10.1546 92.7214 9.78125 93.9246 9.78125C94.7142 9.78125 95.4286 9.96792 96.0678 10.3413C96.707 10.7146 97.1958 11.2372 97.5342 11.9092C97.8726 12.5812 98.023 13.3652 98.023 14.1866C98.023 15.0452 97.835 15.8292 97.4966 16.5013C97.1582 17.1733 96.6318 17.6959 95.9926 18.0693C95.3534 18.4053 94.639 18.5919 93.887 18.5919C93.0598 18.5919 92.3454 18.4052 91.7062 17.9946C91.067 17.6213 90.5782 17.0613 90.2398 16.3893C89.9766 15.7919 89.7886 15.0826 89.7886 14.2986ZM90.9918 14.3359C90.9918 15.3813 91.255 16.1653 91.819 16.7626C92.383 17.3599 93.0598 17.6586 93.9246 17.6586C94.7894 17.6586 95.5038 17.3599 96.0302 16.7626C96.5942 16.1653 96.8574 15.3066 96.8574 14.2239C96.8574 13.5146 96.7446 12.9172 96.519 12.3946C96.2934 11.8719 95.9174 11.4612 95.4662 11.1999C95.015 10.9012 94.4886 10.7892 93.9246 10.7892C93.135 10.7892 92.4206 11.0506 91.8566 11.6106C91.255 12.1332 90.9918 13.0293 90.9918 14.3359Z" fill="black"/>
<path d="M99.5269 9.93061H100.58V16.6879L105.167 9.93061H106.295V18.4799H105.28V11.7226L100.692 18.4799H99.5644V9.93061H99.5269ZM103.813 7.87727H104.528C104.452 8.36261 104.302 8.73594 104.001 8.99727C103.7 9.25861 103.287 9.37061 102.798 9.37061C102.309 9.37061 101.896 9.25861 101.595 8.99727C101.294 8.73594 101.106 8.36261 101.068 7.87727H101.783C101.82 8.13861 101.933 8.32527 102.121 8.47461C102.272 8.58661 102.497 8.66127 102.76 8.66127C103.061 8.66127 103.324 8.58661 103.475 8.47461C103.625 8.36261 103.738 8.17594 103.813 7.87727Z" fill="black"/>
<path d="M110.356 18.4799V10.9386H107.536V9.9306H114.379V10.9386H111.521V18.4799H110.356Z" fill="black"/>
<path d="M115.544 18.4799V9.9306H121.786V10.9386H116.71V13.5519H121.448V14.5599H116.672V17.4719H121.974V18.4799H115.544Z" fill="black"/>
<path d="M126.825 18.48V9.93062H130.058C130.735 9.93062 131.262 10.0053 131.638 10.192C132.051 10.3786 132.352 10.64 132.578 10.976C132.803 11.3493 132.916 11.7226 132.916 12.096C132.916 12.4693 132.803 12.8053 132.615 13.1413C132.427 13.4773 132.126 13.7386 131.713 13.9253C132.239 14.0746 132.653 14.336 132.916 14.7093C133.179 15.0826 133.33 15.4933 133.33 16.016C133.33 16.4266 133.254 16.8 133.066 17.136C132.878 17.472 132.69 17.7333 132.427 17.92C132.164 18.1066 131.863 18.256 131.487 18.3306C131.111 18.4426 130.66 18.48 130.096 18.48H126.825ZM127.99 13.5146H129.87C130.359 13.5146 130.735 13.4773 130.961 13.4026C131.262 13.328 131.487 13.1786 131.6 12.992C131.713 12.8053 131.826 12.544 131.826 12.2453C131.826 11.9466 131.75 11.7226 131.638 11.4986C131.487 11.2746 131.299 11.1253 131.036 11.0506C130.773 10.976 130.359 10.9386 129.72 10.9386H127.99V13.5146ZM127.99 17.472H130.134C130.51 17.472 130.773 17.472 130.923 17.4346C131.186 17.3973 131.412 17.3226 131.6 17.2106C131.788 17.0986 131.938 16.9493 132.051 16.7253C132.164 16.5013 132.239 16.2773 132.239 16.016C132.239 15.68 132.164 15.4186 131.976 15.1946C131.826 14.9706 131.6 14.784 131.299 14.7093C130.998 14.5973 130.585 14.56 130.021 14.56H128.028V17.472H127.99Z" fill="black"/>
<path fill-rule="evenodd" clip-rule="evenodd" d="M37.9762 10.2667H22.3722C15.0026 10.2667 12.333 12.9547 12.333 20.2347V35.728C12.333 43.0454 15.0402 45.696 22.3722 45.696H37.9762C45.3458 45.696 48.0154 43.008 48.0154 35.728V20.2347C48.053 12.9547 45.3458 10.2667 37.9762 10.2667Z" fill="#C7102D"/>
<path d="M19.4016 28H20.3416V32.6293H19.4016V30.7627H17.2584V32.6293H16.3184V28H17.2584V29.8667H19.4016V28ZM24.7408 30.6507C24.7408 31.3973 24.3648 31.808 23.688 31.808C23.0112 31.808 22.6352 31.3973 22.6352 30.6133V28H21.6952V30.6507C21.6952 31.9573 22.4096 32.704 23.688 32.704C24.9664 32.704 25.7184 31.9573 25.7184 30.6133V28H24.7784V30.6507H24.7408ZM35.6824 31.1733L34.6296 28H33.84L32.7872 31.1733L31.772 28H30.7568L32.3736 32.6293H33.1632L34.216 29.568L35.2688 32.6293H36.0584L37.6752 28H36.6976L35.6824 31.1733ZM39.4048 30.6507H41.1344V29.792H39.4048V28.8587H41.924V28H38.5024V32.6293H42.0368V31.7707H39.4424V30.6507H39.4048ZM43.1272 32.6293H44.0672V28H43.1272V32.6293ZM27.5608 31.6587L27.1472 32.6293H26.1696L28.2 28H29.0272L31.0576 32.6293H30.08L29.704 31.6587H27.5608ZM27.8992 30.8373H29.328L28.6136 29.1947L27.8992 30.8373Z" fill="white"/>
<path d="M30.1928 22.1014C26.9216 22.1014 24.252 19.4507 24.252 16.2027H25.0792C25.0792 19.0027 27.3728 21.28 30.1928 21.28C33.0128 21.28 35.3063 19.0027 35.3063 16.2027H36.1335C36.1335 19.4507 33.464 22.1014 30.1928 22.1014Z" fill="white"/>
<path d="M58.8438 41.9999L65.2357 25.4239H67.6045L74.4477 41.9999H71.9285L69.9733 36.9973H62.9797L61.1374 41.9999H58.8438ZM63.6565 35.2053H69.2965L67.5669 30.6133C67.0405 29.2319 66.6269 28.0746 66.4013 27.1786C66.1757 28.2239 65.8749 29.3066 65.4989 30.3519L63.6565 35.2053Z" fill="white"/>
<path d="M75.9517 46.5919V29.9786H77.8317V31.5466C78.2829 30.9493 78.7717 30.4639 79.3357 30.1653C79.8997 29.8666 80.5765 29.7173 81.3661 29.7173C82.3813 29.7173 83.3213 29.9786 84.1109 30.5013C84.9005 31.0239 85.5021 31.7706 85.9157 32.7413C86.3293 33.7119 86.5173 34.7573 86.5173 35.9146C86.5173 37.1466 86.2917 38.2666 85.8405 39.2373C85.3893 40.2079 84.7501 40.9919 83.9229 41.5146C83.0957 42.0373 82.1933 42.2986 81.2533 42.2986C80.5765 42.2986 79.9749 42.1493 79.4109 41.8506C78.8845 41.5519 78.4333 41.2159 78.0573 40.7679V46.6293H75.9517V46.5919ZM77.7941 36.0639C77.7941 37.5946 78.0949 38.7519 78.7341 39.4986C79.3733 40.2453 80.1253 40.6186 81.0277 40.6186C81.9301 40.6186 82.7197 40.2453 83.3589 39.4613C83.9981 38.7146 84.3365 37.5199 84.3365 35.9146C84.3365 34.3839 84.0357 33.2266 83.3965 32.4799C82.7573 31.7333 82.0053 31.3226 81.1405 31.3226C80.2757 31.3226 79.4861 31.7333 78.8093 32.5546C78.1325 33.3386 77.7941 34.5333 77.7941 36.0639Z" fill="white"/>
<path d="M88.9238 46.5919V29.9786H90.8038V31.5466C91.255 30.9493 91.7438 30.4639 92.3078 30.1653C92.8718 29.8666 93.5486 29.7173 94.3382 29.7173C95.3534 29.7173 96.2934 29.9786 97.083 30.5013C97.8726 31.0239 98.4742 31.7706 98.8878 32.7413C99.3014 33.7119 99.4894 34.7573 99.4894 35.9146C99.4894 37.1466 99.2638 38.2666 98.8126 39.2373C98.3614 40.2079 97.7222 40.9919 96.895 41.5146C96.0302 42.0373 95.1654 42.2986 94.2254 42.2986C93.5486 42.2986 92.947 42.1493 92.383 41.8506C91.8566 41.5519 91.4054 41.2159 91.0294 40.7679V46.6293H88.9238V46.5919ZM90.7662 36.0639C90.7662 37.5946 91.067 38.7519 91.7062 39.4986C92.3454 40.2453 93.0974 40.6186 93.9998 40.6186C94.9022 40.6186 95.6918 40.2453 96.331 39.4613C96.9702 38.7146 97.3086 37.5199 97.3086 35.9146C97.3086 34.3839 97.0078 33.2266 96.3686 32.4799C95.7294 31.7333 94.9774 31.3226 94.1126 31.3226C93.2478 31.3226 92.4582 31.7333 91.7814 32.5546C91.1046 33.3386 90.7662 34.5333 90.7662 36.0639Z" fill="white"/>
<path d="M109.942 35.504V33.5627H117.011V39.7227C115.92 40.5813 114.792 41.216 113.664 41.664C112.536 42.112 111.333 42.2987 110.13 42.2987C108.476 42.2987 107.009 41.9627 105.656 41.2533C104.302 40.544 103.287 39.536 102.61 38.2293C101.933 36.9227 101.595 35.4293 101.595 33.824C101.595 32.2187 101.933 30.688 102.61 29.3067C103.287 27.9253 104.264 26.88 105.543 26.208C106.821 25.536 108.288 25.2 109.942 25.2C111.145 25.2 112.236 25.3867 113.213 25.7973C114.191 26.1707 114.943 26.7307 115.507 27.4027C116.071 28.112 116.484 29.008 116.785 30.128L114.792 30.688C114.529 29.8293 114.228 29.1947 113.852 28.7093C113.476 28.224 112.95 27.8507 112.273 27.552C111.596 27.2533 110.807 27.104 109.98 27.104C108.964 27.104 108.1 27.2533 107.348 27.552C106.596 27.8507 106.032 28.2613 105.58 28.7467C105.129 29.232 104.791 29.792 104.528 30.3893C104.114 31.3973 103.888 32.5173 103.888 33.712C103.888 35.2053 104.152 36.4373 104.64 37.408C105.167 38.416 105.881 39.1253 106.859 39.6107C107.836 40.096 108.889 40.32 109.98 40.32C110.92 40.32 111.86 40.1333 112.762 39.76C113.664 39.3867 114.379 39.0133 114.83 38.6027V35.504H109.942Z" fill="white"/>
<path d="M127.915 40.5066C127.163 41.1413 126.411 41.5893 125.734 41.8506C125.02 42.112 124.268 42.2613 123.478 42.2613C122.162 42.2613 121.147 41.9253 120.433 41.2906C119.718 40.656 119.38 39.8346 119.38 38.8266C119.38 38.2293 119.53 37.7066 119.793 37.2213C120.057 36.736 120.433 36.3626 120.846 36.064C121.297 35.7653 121.786 35.5413 122.313 35.392C122.726 35.28 123.328 35.168 124.117 35.0933C125.772 34.9066 126.975 34.6453 127.765 34.384C127.765 34.1226 127.765 33.936 127.765 33.8613C127.765 33.04 127.577 32.4426 127.201 32.1066C126.674 31.6586 125.885 31.4346 124.869 31.4346C123.892 31.4346 123.177 31.584 122.726 31.92C122.275 32.256 121.937 32.8533 121.711 33.712L119.718 33.4506C119.906 32.592 120.207 31.92 120.621 31.3973C121.034 30.8746 121.636 30.464 122.425 30.2026C123.215 29.904 124.117 29.792 125.17 29.792C126.185 29.792 127.05 29.904 127.69 30.1653C128.329 30.3893 128.818 30.7253 129.118 31.0613C129.419 31.4346 129.645 31.8826 129.758 32.4426C129.833 32.7786 129.87 33.4133 129.87 34.3093V36.96C129.87 38.864 129.908 40.0586 129.983 40.544C130.058 41.0293 130.246 41.5146 130.51 42H128.366C128.103 41.5893 127.953 41.0666 127.915 40.5066ZM127.727 35.9893C126.975 36.288 125.885 36.5493 124.381 36.7733C123.553 36.8853 122.952 37.0346 122.576 37.184C122.237 37.3333 121.974 37.5573 121.786 37.856C121.598 38.1546 121.485 38.4533 121.485 38.8266C121.485 39.3866 121.673 39.8346 122.087 40.1706C122.501 40.5066 123.102 40.7306 123.892 40.7306C124.681 40.7306 125.396 40.544 125.998 40.208C126.599 39.872 127.05 39.3866 127.351 38.7893C127.577 38.3413 127.69 37.6693 127.69 36.7733V35.9893H127.727Z" fill="white"/>
<path d="M132.953 41.9999V25.4239H134.984V41.9999H132.953Z" fill="white"/>
<path d="M138.104 41.9999V25.4239H140.135V41.9999H138.104Z" fill="white"/>
<path d="M151.603 38.1173L153.709 38.3786C153.37 39.6106 152.769 40.5439 151.866 41.2533C150.964 41.9253 149.798 42.2613 148.407 42.2613C146.64 42.2613 145.249 41.7386 144.196 40.6559C143.143 39.5733 142.654 38.0426 142.654 36.1013C142.654 34.0853 143.181 32.5173 144.234 31.3973C145.286 30.2773 146.64 29.7173 148.294 29.7173C149.911 29.7173 151.227 30.2773 152.242 31.3599C153.258 32.4426 153.784 33.9733 153.784 35.9893C153.784 36.1013 153.784 36.2879 153.784 36.5493H144.76C144.835 37.8559 145.211 38.8639 145.888 39.5733C146.565 40.2826 147.392 40.6186 148.407 40.6186C149.159 40.6186 149.798 40.4319 150.325 40.0213C150.889 39.6106 151.302 38.9759 151.603 38.1173ZM144.873 34.8319H151.641C151.565 33.8239 151.302 33.0773 150.851 32.5546C150.212 31.7706 149.347 31.3973 148.294 31.3973C147.354 31.3973 146.565 31.6959 145.926 32.3306C145.286 32.9653 144.948 33.7866 144.873 34.8319Z" fill="white"/>
<path d="M156.265 41.9999V29.9786H158.108V31.8079C158.596 30.9493 159.01 30.3893 159.424 30.1279C159.837 29.8666 160.251 29.7173 160.74 29.7173C161.416 29.7173 162.131 29.9413 162.845 30.3893L162.131 32.2933C161.642 31.9946 161.116 31.8453 160.627 31.8453C160.176 31.8453 159.762 31.9946 159.424 32.2559C159.085 32.5173 158.822 32.8906 158.672 33.3759C158.446 34.0853 158.333 34.9066 158.333 35.7653V42.0373H156.265V41.9999Z" fill="white"/>
<path d="M163.973 46.6294L163.748 44.7254C164.199 44.8374 164.575 44.9121 164.913 44.9121C165.364 44.9121 165.74 44.8374 166.004 44.688C166.267 44.5387 166.492 44.3147 166.68 44.0534C166.793 43.8667 167.019 43.3441 167.32 42.5227C167.357 42.4107 167.432 42.2614 167.508 42.0374L162.92 30.0161H165.139L167.658 36.9601C167.996 37.8561 168.26 38.7521 168.523 39.7227C168.748 38.7894 169.049 37.8934 169.35 36.9974L171.944 30.0161H173.975L169.388 42.1867C168.899 43.4934 168.523 44.4267 168.222 44.9121C167.846 45.5841 167.432 46.0694 166.981 46.4054C166.492 46.7041 165.966 46.8907 165.289 46.8907C164.913 46.8534 164.462 46.7787 163.973 46.6294Z" fill="white"/>
<path d="M58.3174 14.2987C58.3174 12.88 58.6934 11.76 59.483 10.976C60.235 10.1547 61.2502 9.78133 62.4534 9.78133C63.243 9.78133 63.9574 9.96799 64.5966 10.3413C65.2358 10.7147 65.7246 11.2373 66.063 11.9093C66.4014 12.5813 66.5518 13.3653 66.5518 14.1867C66.5518 15.0453 66.3638 15.8293 66.0254 16.5013C65.687 17.1733 65.1606 17.696 64.5214 18.0693C63.8822 18.4053 63.1678 18.592 62.4158 18.592C61.5886 18.592 60.8742 18.4053 60.235 17.9947C59.5958 17.6213 59.107 17.0613 58.7686 16.3893C58.4678 15.792 58.3174 15.0827 58.3174 14.2987ZM59.483 14.336C59.483 15.3813 59.7462 16.1653 60.3102 16.7627C60.8742 17.36 61.551 17.6587 62.4158 17.6587C63.2806 17.6587 63.995 17.36 64.5214 16.7627C65.0854 16.1653 65.3486 15.3067 65.3486 14.224C65.3486 13.5147 65.2358 12.9173 65.0102 12.3947C64.7846 11.872 64.4086 11.4613 63.9574 11.2C63.5062 10.9387 62.9798 10.7893 62.4158 10.7893C61.6262 10.7893 60.9118 11.0507 60.3478 11.6107C59.7838 12.1333 59.483 13.0293 59.483 14.336Z" fill="white"/>
<path d="M70.2365 18.48V10.9387H67.4165V9.93069H74.2597V10.9387H71.4021V18.48H70.2365Z" fill="white"/>
<path d="M75.3877 9.93066H76.5157V13.664C77.0421 13.664 77.4181 13.552 77.6061 13.3653C77.8317 13.1787 78.0949 12.6933 78.4333 11.9093C78.6589 11.3493 78.8845 10.9387 79.0349 10.7147C79.1853 10.4907 79.4109 10.304 79.7117 10.1173C80.0125 9.96799 80.3133 9.89333 80.6517 9.89333C81.1029 9.89333 81.3285 9.89333 81.3285 9.89333V10.864C81.2909 10.864 81.2157 10.864 81.1029 10.864C80.9901 10.864 80.9149 10.864 80.8773 10.864C80.5013 10.864 80.2381 10.9387 80.0501 11.1253C79.8621 11.312 79.6741 11.6853 79.4485 12.2453C79.1477 12.9547 78.9221 13.44 78.6965 13.6267C78.5085 13.8133 78.2453 13.9627 77.9821 14.0747C78.5461 14.224 79.0725 14.7467 79.6365 15.6053L81.4037 18.4427H79.9749L78.5461 16.128C78.1325 15.4933 77.8317 15.0453 77.5685 14.8213C77.3053 14.5973 76.9669 14.448 76.5157 14.448V18.4427H75.3877V9.93066Z" fill="white"/>
<path d="M82.3813 18.48V9.93069H85.6149C86.1789 9.93069 86.6301 9.96803 86.9309 10.0054C87.3445 10.08 87.7206 10.192 87.9838 10.416C88.2846 10.6027 88.5102 10.9014 88.6606 11.2374C88.8486 11.5734 88.9238 11.984 88.9238 12.3947C88.9238 13.104 88.6982 13.7387 88.2094 14.224C87.7582 14.7094 86.8933 14.9707 85.6901 14.9707H83.4717V18.4427H82.3813V18.48ZM83.5093 14H85.7277C86.4797 14 86.9685 13.8507 87.3069 13.5894C87.6077 13.328 87.7581 12.9174 87.7581 12.432C87.7581 12.0587 87.6829 11.76 87.4949 11.4987C87.3069 11.2374 87.0814 11.088 86.7806 10.976C86.5926 10.9387 86.2165 10.9014 85.7277 10.9014H83.5093V14Z" fill="white"/>
<path d="M89.7886 14.2986C89.7886 12.8799 90.1646 11.7599 90.9542 10.9759C91.7062 10.1546 92.7214 9.78125 93.9246 9.78125C94.7142 9.78125 95.4286 9.96792 96.0678 10.3413C96.707 10.7146 97.1958 11.2372 97.5342 11.9092C97.8726 12.5812 98.023 13.3652 98.023 14.1866C98.023 15.0452 97.835 15.8292 97.4966 16.5013C97.1582 17.1733 96.6318 17.6959 95.9926 18.0693C95.3534 18.4053 94.639 18.5919 93.887 18.5919C93.0598 18.5919 92.3454 18.4052 91.7062 17.9946C91.067 17.6213 90.5782 17.0613 90.2398 16.3893C89.9766 15.7919 89.7886 15.0826 89.7886 14.2986ZM90.9918 14.3359C90.9918 15.3813 91.255 16.1653 91.819 16.7626C92.383 17.3599 93.0598 17.6586 93.9246 17.6586C94.7894 17.6586 95.5038 17.3599 96.0302 16.7626C96.5942 16.1653 96.8574 15.3066 96.8574 14.2239C96.8574 13.5146 96.7446 12.9172 96.519 12.3946C96.2934 11.8719 95.9174 11.4612 95.4662 11.1999C95.015 10.9012 94.4886 10.7892 93.9246 10.7892C93.135 10.7892 92.4206 11.0506 91.8566 11.6106C91.255 12.1332 90.9918 13.0293 90.9918 14.3359Z" fill="white"/>
<path d="M99.5269 9.93061H100.58V16.6879L105.167 9.93061H106.295V18.4799H105.28V11.7226L100.692 18.4799H99.5644V9.93061H99.5269ZM103.813 7.87727H104.528C104.452 8.36261 104.302 8.73594 104.001 8.99727C103.7 9.25861 103.287 9.37061 102.798 9.37061C102.309 9.37061 101.896 9.25861 101.595 8.99727C101.294 8.73594 101.106 8.36261 101.068 7.87727H101.783C101.82 8.13861 101.933 8.32527 102.121 8.47461C102.272 8.58661 102.497 8.66127 102.76 8.66127C103.061 8.66127 103.324 8.58661 103.475 8.47461C103.625 8.36261 103.738 8.17594 103.813 7.87727Z" fill="white"/>
<path d="M110.356 18.4799V10.9386H107.536V9.9306H114.379V10.9386H111.521V18.4799H110.356Z" fill="white"/>
<path d="M115.544 18.4799V9.9306H121.786V10.9386H116.71V13.5519H121.448V14.5599H116.672V17.4719H121.974V18.4799H115.544Z" fill="white"/>
<path d="M126.825 18.48V9.93062H130.058C130.735 9.93062 131.262 10.0053 131.638 10.192C132.051 10.3786 132.352 10.64 132.578 10.976C132.803 11.3493 132.916 11.7226 132.916 12.096C132.916 12.4693 132.803 12.8053 132.615 13.1413C132.427 13.4773 132.126 13.7386 131.713 13.9253C132.239 14.0746 132.653 14.336 132.916 14.7093C133.179 15.0826 133.33 15.4933 133.33 16.016C133.33 16.4266 133.254 16.8 133.066 17.136C132.878 17.472 132.69 17.7333 132.427 17.92C132.164 18.1066 131.863 18.256 131.487 18.3306C131.111 18.4426 130.66 18.48 130.096 18.48H126.825ZM127.99 13.5146H129.87C130.359 13.5146 130.735 13.4773 130.961 13.4026C131.262 13.328 131.487 13.1786 131.6 12.992C131.713 12.8053 131.826 12.544 131.826 12.2453C131.826 11.9466 131.75 11.7226 131.638 11.4986C131.487 11.2746 131.299 11.1253 131.036 11.0506C130.773 10.976 130.359 10.9386 129.72 10.9386H127.99V13.5146ZM127.99 17.472H130.134C130.51 17.472 130.773 17.472 130.923 17.4346C131.186 17.3973 131.412 17.3226 131.6 17.2106C131.788 17.0986 131.938 16.9493 132.051 16.7253C132.164 16.5013 132.239 16.2773 132.239 16.016C132.239 15.68 132.164 15.4186 131.976 15.1946C131.826 14.9706 131.6 14.784 131.299 14.7093C130.998 14.5973 130.585 14.56 130.021 14.56H128.028V17.472H127.99Z" fill="white"/>
<path fill-rule="evenodd" clip-rule="evenodd" d="M37.9762 10.2667H22.3722C15.0026 10.2667 12.333 12.9547 12.333 20.2347V35.728C12.333 43.0454 15.0402 45.696 22.3722 45.696H37.9762C45.3458 45.696 48.0154 43.008 48.0154 35.728V20.2347C48.053 12.9547 45.3458 10.2667 37.9762 10.2667Z" fill="#C7102D"/>
<path d="M19.4016 28H20.3416V32.6293H19.4016V30.7627H17.2584V32.6293H16.3184V28H17.2584V29.8667H19.4016V28ZM24.7408 30.6507C24.7408 31.3973 24.3648 31.808 23.688 31.808C23.0112 31.808 22.6352 31.3973 22.6352 30.6133V28H21.6952V30.6507C21.6952 31.9573 22.4096 32.704 23.688 32.704C24.9664 32.704 25.7184 31.9573 25.7184 30.6133V28H24.7784V30.6507H24.7408ZM35.6824 31.1733L34.6296 28H33.84L32.7872 31.1733L31.772 28H30.7568L32.3736 32.6293H33.1632L34.216 29.568L35.2688 32.6293H36.0584L37.6752 28H36.6976L35.6824 31.1733ZM39.4048 30.6507H41.1344V29.792H39.4048V28.8587H41.924V28H38.5024V32.6293H42.0368V31.7707H39.4424V30.6507H39.4048ZM43.1272 32.6293H44.0672V28H43.1272V32.6293ZM27.5608 31.6587L27.1472 32.6293H26.1696L28.2 28H29.0272L31.0576 32.6293H30.08L29.704 31.6587H27.5608ZM27.8992 30.8373H29.328L28.6136 29.1947L27.8992 30.8373Z" fill="white"/>
<path d="M30.1928 22.1014C26.9216 22.1014 24.252 19.4507 24.252 16.2027H25.0792C25.0792 19.0027 27.3728 21.28 30.1928 21.28C33.0128 21.28 35.3063 19.0027 35.3063 16.2027H36.1335C36.1335 19.4507 33.464 22.1014 30.1928 22.1014Z" fill="white"/>
<rect x="0.5" y="0.5" width="187" height="55" rx="5.5" stroke="#A6A6A6"/>
</svg>
