<svg width="189" height="56" viewBox="0 0 189 56" fill="none" xmlns="http://www.w3.org/2000/svg">
<rect x="0.5" y="0.5" width="188" height="55" rx="5.5" fill="black"/>
<path d="M95.34 30.52C91.98 30.52 89.32 33.04 89.32 36.54C89.32 39.9 91.98 42.56 95.34 42.56C98.7 42.56 101.36 40.04 101.36 36.54C101.36 32.9 98.7 30.52 95.34 30.52ZM95.34 40.04C93.52 40.04 91.98 38.5 91.98 36.4C91.98 34.3 93.52 32.76 95.34 32.76C97.16 32.76 98.7 34.16 98.7 36.4C98.7 38.5 97.16 40.04 95.34 40.04ZM82.32 30.52C78.96 30.52 76.3 33.04 76.3 36.54C76.3 39.9 78.96 42.56 82.32 42.56C85.68 42.56 88.34 40.04 88.34 36.54C88.34 32.9 85.68 30.52 82.32 30.52ZM82.32 40.04C80.5 40.04 78.96 38.5 78.96 36.4C78.96 34.3 80.5 32.76 82.32 32.76C84.14 32.76 85.68 34.16 85.68 36.4C85.68 38.5 84.14 40.04 82.32 40.04ZM66.78 32.34V34.86H72.8C72.66 36.26 72.1 37.38 71.4 38.08C70.56 38.92 69.16 39.9 66.78 39.9C63 39.9 60.2 36.96 60.2 33.18C60.2 29.4 63.14 26.46 66.78 26.46C68.74 26.46 70.28 27.3 71.4 28.28L73.22 26.46C71.68 25.06 69.72 23.94 66.92 23.94C61.88 23.94 57.54 28.14 57.54 33.18C57.54 38.22 61.88 42.42 66.92 42.42C69.72 42.42 71.68 41.58 73.36 39.76C75.04 38.08 75.6 35.7 75.6 33.88C75.6 33.32 75.6 32.76 75.46 32.34H66.78ZM130.34 34.3C129.78 32.9 128.38 30.52 125.3 30.52C122.22 30.52 119.7 32.9 119.7 36.54C119.7 39.9 122.22 42.56 125.58 42.56C128.24 42.56 129.92 40.88 130.48 39.9L128.52 38.5C127.82 39.48 126.98 40.18 125.58 40.18C124.18 40.18 123.34 39.62 122.64 38.36L130.62 35L130.34 34.3ZM122.22 36.26C122.22 34.02 124.04 32.76 125.3 32.76C126.28 32.76 127.26 33.32 127.54 34.02L122.22 36.26ZM115.64 42H118.3V24.5H115.64V42ZM111.44 31.78C110.74 31.08 109.62 30.38 108.22 30.38C105.28 30.38 102.48 33.04 102.48 36.4C102.48 39.76 105.14 42.28 108.22 42.28C109.62 42.28 110.74 41.58 111.3 40.88H111.44V41.72C111.44 43.96 110.18 45.22 108.22 45.22C106.68 45.22 105.56 44.1 105.28 43.12L103.04 44.1C103.74 45.64 105.42 47.6 108.36 47.6C111.44 47.6 113.96 45.78 113.96 41.44V30.8H111.44V31.78ZM108.36 40.04C106.54 40.04 105 38.5 105 36.4C105 34.3 106.54 32.76 108.36 32.76C110.18 32.76 111.58 34.3 111.58 36.4C111.58 38.5 110.18 40.04 108.36 40.04ZM142.52 24.5H136.22V42H138.88V35.42H142.52C145.46 35.42 148.26 33.32 148.26 29.96C148.26 26.6 145.46 24.5 142.52 24.5ZM142.66 32.9H138.88V26.88H142.66C144.62 26.88 145.74 28.56 145.74 29.82C145.6 31.36 144.48 32.9 142.66 32.9ZM158.76 30.38C156.8 30.38 154.84 31.22 154.14 33.04L156.52 34.02C157.08 33.04 157.92 32.76 158.9 32.76C160.3 32.76 161.56 33.6 161.7 35V35.14C161.28 34.86 160.16 34.44 159.04 34.44C156.52 34.44 154 35.84 154 38.36C154 40.74 156.1 42.28 158.34 42.28C160.16 42.28 161 41.44 161.7 40.6H161.84V42H164.36V35.28C164.08 32.2 161.7 30.38 158.76 30.38ZM158.48 40.04C157.64 40.04 156.38 39.62 156.38 38.5C156.38 37.1 157.92 36.68 159.18 36.68C160.3 36.68 160.86 36.96 161.56 37.24C161.28 38.92 159.88 40.04 158.48 40.04ZM173.18 30.8L170.24 38.36H170.1L167.02 30.8H164.22L168.84 41.44L166.18 47.32H168.84L175.98 30.8H173.18ZM149.66 42H152.32V24.5H149.66V42Z" fill="white"/>
<path d="M14.56 10.5C14.14 10.92 14 11.62 14 12.46V43.4C14 44.24 14.28 44.94 14.7 45.36L14.84 45.5L32.2 28.14V28V27.86L14.56 10.5Z" fill="url(#paint0_linear_801_1604)"/>
<path d="M37.8001 34.02L32.0601 28.28V28V27.86L37.8001 22.12L37.9401 22.26L44.8001 26.18C46.7601 27.3 46.7601 29.12 44.8001 30.24L37.8001 34.02Z" fill="url(#paint1_linear_801_1604)"/>
<path d="M37.9401 33.88L32.0601 28L14.5601 45.5C15.2601 46.2 16.2401 46.2 17.5001 45.64L37.9401 33.88Z" fill="url(#paint2_linear_801_1604)"/>
<path d="M37.9401 22.12L17.5001 10.5C16.2401 9.80004 15.2601 9.94004 14.5601 10.64L32.0601 28L37.9401 22.12Z" fill="url(#paint3_linear_801_1604)"/>
<path opacity="0.2" d="M37.8001 33.74L17.5001 45.22C16.3801 45.92 15.4001 45.78 14.7001 45.22L14.5601 45.36L14.7001 45.5C15.4001 46.06 16.3801 46.2 17.5001 45.5L37.8001 33.74Z" fill="black"/>
<path opacity="0.12" d="M14.56 45.2201C14.14 44.8001 14 44.1001 14 43.2601V43.4001C14 44.2401 14.28 44.9401 14.7 45.3601V45.2201H14.56Z" fill="black"/>
<path opacity="0.12" d="M44.7998 29.82L37.7998 33.74L37.9398 33.88L44.7998 29.96C45.7798 29.4 46.1998 28.7 46.1998 28C46.1998 28.7 45.6398 29.26 44.7998 29.82Z" fill="black"/>
<path opacity="0.25" d="M17.5 10.64L44.8 26.18C45.64 26.74 46.2 27.3 46.2 28C46.2 27.3 45.78 26.6 44.8 26.04L17.5 10.5C15.54 9.38001 14 10.22 14 12.46V12.6C14 10.5 15.54 9.52001 17.5 10.64Z" fill="white"/>
<path d="M58.94 20.02H57.96V17.22H58.8C59.5 16.66 59.92 15.54 59.92 14V9.8H65.52V17.22H66.5V20.02H65.52V18.2H59.08V20.02H58.94ZM60.9 14C60.9 15.26 60.62 16.38 60.06 17.22H64.26V10.78H60.76V14H60.9Z" fill="white" stroke="white" stroke-width="0.2" stroke-miterlimit="10"/>
<path d="M74.7598 17.08C73.9198 17.92 72.9398 18.34 71.6798 18.34C70.4198 18.34 69.4398 17.92 68.5998 17.08C67.7598 16.24 67.3398 15.26 67.3398 14C67.3398 12.74 67.7598 11.76 68.5998 10.92C69.4398 10.08 70.4198 9.65996 71.6798 9.65996C72.9398 9.65996 73.9198 10.08 74.7598 10.92C75.5998 11.76 76.0198 12.74 76.0198 14C76.0198 15.26 75.5998 16.24 74.7598 17.08ZM69.4398 16.38C69.9998 16.94 70.8398 17.36 71.6798 17.36C72.5198 17.36 73.3598 17.08 73.9198 16.38C74.4798 15.82 74.8998 14.98 74.8998 14C74.8998 13.02 74.6198 12.18 73.9198 11.62C73.3598 11.06 72.5198 10.64 71.6798 10.64C70.8398 10.64 69.9998 10.92 69.4398 11.62C68.8798 12.18 68.4598 13.02 68.4598 14C68.4598 14.98 68.7398 15.82 69.4398 16.38Z" fill="white" stroke="white" stroke-width="0.2" stroke-miterlimit="10"/>
<path d="M81.4801 18.34C80.2201 18.34 79.2401 17.92 78.4001 17.08C77.5601 16.24 77.1401 15.26 77.1401 14C77.1401 12.74 77.5601 11.76 78.4001 10.92C79.2401 10.08 80.2201 9.65996 81.4801 9.65996C82.7401 9.65996 83.7201 10.08 84.5601 11.06L83.8601 11.76C83.3001 11.06 82.4601 10.64 81.4801 10.64C80.5001 10.64 79.8001 10.92 79.1001 11.62C78.4001 12.18 78.1201 13.02 78.1201 14C78.1201 14.98 78.4001 15.82 79.1001 16.38C79.6601 16.94 80.5001 17.36 81.4801 17.36C82.4601 17.36 83.3001 16.94 84.0001 16.1L84.7001 16.8C84.2801 17.22 83.8601 17.64 83.3001 17.92C82.7401 18.2 82.1801 18.34 81.4801 18.34Z" fill="white" stroke="white" stroke-width="0.2" stroke-miterlimit="10"/>
<path d="M89.1802 18.2H88.0602V10.78H85.6802V9.8H91.4202V10.78H89.0402V18.2H89.1802Z" fill="white" stroke="white" stroke-width="0.2" stroke-miterlimit="10"/>
<path d="M98.8401 9.8L95.6201 16.94C95.2001 17.92 94.5001 18.48 93.6601 18.48C93.3801 18.48 93.1001 18.48 92.8201 18.34L93.1001 17.36C93.2401 17.5 93.5201 17.5 93.6601 17.5C93.9401 17.5 94.0801 17.5 94.2201 17.36C94.3601 17.22 94.5001 17.08 94.6401 16.8L94.9201 16.1L92.1201 9.94H93.3801L95.4801 14.7L97.5801 9.8H98.8401Z" fill="white" stroke="white" stroke-width="0.2" stroke-miterlimit="10"/>
<path d="M100.1 18.2V9.8H106.12V18.2H105V10.78H101.08V18.2H100.1Z" fill="white" stroke="white" stroke-width="0.2" stroke-miterlimit="10"/>
<path d="M108.08 18.2V9.8H109.2V13.44H113.4V9.8H114.52V18.2H113.4V14.42H109.2V18.2H108.08Z" fill="white" stroke="white" stroke-width="0.2" stroke-miterlimit="10"/>
<path d="M123.34 17.08C122.5 17.92 121.52 18.34 120.26 18.34C119 18.34 118.02 17.92 117.18 17.08C116.34 16.24 115.92 15.26 115.92 14C115.92 12.74 116.34 11.76 117.18 10.92C118.02 10.08 119 9.65996 120.26 9.65996C121.52 9.65996 122.5 10.08 123.34 10.92C124.18 11.76 124.6 12.74 124.6 14C124.46 15.26 124.04 16.24 123.34 17.08ZM117.88 16.38C118.44 16.94 119.28 17.36 120.12 17.36C120.96 17.36 121.8 17.08 122.36 16.38C122.92 15.82 123.34 14.98 123.34 14C123.34 13.02 123.06 12.18 122.36 11.62C121.8 11.06 120.96 10.64 120.12 10.64C119.28 10.64 118.44 10.92 117.88 11.62C117.32 12.18 116.9 13.02 116.9 14C116.9 14.98 117.32 15.82 117.88 16.38Z" fill="white" stroke="white" stroke-width="0.2" stroke-miterlimit="10"/>
<path d="M128.94 18.2V9.8H132.02C132.72 9.8 133.28 10.08 133.7 10.5C134.12 10.92 134.4 11.48 134.4 12.04C134.4 12.46 134.26 12.74 134.12 13.16C133.98 13.44 133.7 13.72 133.28 13.86C133.7 14 133.98 14.28 134.26 14.56C134.54 14.84 134.68 15.26 134.68 15.82C134.68 16.52 134.4 17.08 133.98 17.5C133.42 17.92 132.86 18.2 132.16 18.2H128.94ZM130.06 13.44H132.02C132.44 13.44 132.72 13.3 133 13.02C133.28 12.74 133.42 12.46 133.42 12.18C133.42 11.9 133.14 11.48 133 11.2C132.72 10.92 132.44 10.78 132.02 10.78H130.06V13.44ZM130.06 17.22H132.3C132.72 17.22 133 17.08 133.28 16.8C133.56 16.52 133.7 16.24 133.7 15.82C133.7 15.54 133.56 15.12 133.28 14.84C133 14.56 132.72 14.42 132.3 14.42H130.2V17.22H130.06Z" fill="white" stroke="white" stroke-width="0.2" stroke-miterlimit="10"/>
<rect x="0.5" y="0.5" width="188" height="55" rx="5.5" stroke="#A6A6A6"/>
<defs>
<linearGradient id="paint0_linear_801_1604" x1="30.5194" y1="12.1937" x2="7.02408" y2="35.6891" gradientUnits="userSpaceOnUse">
<stop stop-color="#00A0FF"/>
<stop offset="0.00657445" stop-color="#00A1FF"/>
<stop offset="0.2601" stop-color="#00BEFF"/>
<stop offset="0.5122" stop-color="#00D2FF"/>
<stop offset="0.7604" stop-color="#00DFFF"/>
<stop offset="1" stop-color="#00E3FF"/>
</linearGradient>
<linearGradient id="paint1_linear_801_1604" x1="47.3681" y1="28.0021" x2="13.4924" y2="28.0021" gradientUnits="userSpaceOnUse">
<stop stop-color="#FFE000"/>
<stop offset="0.4087" stop-color="#FFBD00"/>
<stop offset="0.7754" stop-color="#FFA500"/>
<stop offset="1" stop-color="#FF9C00"/>
</linearGradient>
<linearGradient id="paint2_linear_801_1604" x1="34.7577" y1="31.2147" x2="2.89611" y2="63.0763" gradientUnits="userSpaceOnUse">
<stop stop-color="#FF3A44"/>
<stop offset="1" stop-color="#C31162"/>
</linearGradient>
<linearGradient id="paint3_linear_801_1604" x1="10.2161" y1="0.246861" x2="24.4438" y2="14.4744" gradientUnits="userSpaceOnUse">
<stop stop-color="#32A071"/>
<stop offset="0.0685" stop-color="#2DA771"/>
<stop offset="0.4762" stop-color="#15CF74"/>
<stop offset="0.8009" stop-color="#06E775"/>
<stop offset="1" stop-color="#00F076"/>
</linearGradient>
</defs>
</svg>
